<mxfile host="app.diagrams.net" modified="2020-09-30T09:02:34.219Z" agent="5.0 (Windows NT 10.0; Win64; x64) AppleWebKit/537.36 (KHTML, like Gecko) Chrome/85.0.4183.121 Safari/537.36" etag="hNuxYBe3qlEnub2532xh" version="13.7.6" type="github">
  <diagram id="PjSpE_dmqOtsdUptbFbl" name="Page-1">
    <mxGraphModel dx="2333" dy="3029" grid="1" gridSize="10" guides="0" tooltips="1" connect="1" arrows="1" fold="1" page="1" pageScale="1" pageWidth="850" pageHeight="1100" math="0" shadow="0">
      <root>
        <mxCell id="0" />
        <mxCell id="1" parent="0" />
        <mxCell id="gXIctKyo1TDuMm2zsvnv-73" value="" style="edgeStyle=entityRelationEdgeStyle;fontSize=12;html=1;endArrow=ERmany;" parent="1" source="_0oobIRNl8wnkdukzj8S-18" target="gXIctKyo1TDuMm2zsvnv-65" edge="1">
          <mxGeometry width="100" height="100" relative="1" as="geometry">
            <mxPoint x="1420" y="-162" as="sourcePoint" />
            <mxPoint x="1520" y="-262" as="targetPoint" />
          </mxGeometry>
        </mxCell>
        <mxCell id="gXIctKyo1TDuMm2zsvnv-95" value="" style="edgeStyle=orthogonalEdgeStyle;fontSize=12;html=1;endArrow=ERmany;" parent="1" source="gXIctKyo1TDuMm2zsvnv-62" target="gXIctKyo1TDuMm2zsvnv-91" edge="1">
          <mxGeometry width="100" height="100" relative="1" as="geometry">
            <mxPoint x="1970" y="-551" as="sourcePoint" />
            <mxPoint x="2070" y="-651" as="targetPoint" />
            <Array as="points">
              <mxPoint x="1430" y="-580" />
              <mxPoint x="1430" y="-580" />
            </Array>
          </mxGeometry>
        </mxCell>
        <mxCell id="gXIctKyo1TDuMm2zsvnv-96" value="" style="edgeStyle=orthogonalEdgeStyle;fontSize=12;html=1;endArrow=ERmany;dashed=1;" parent="1" source="gXIctKyo1TDuMm2zsvnv-101" target="gXIctKyo1TDuMm2zsvnv-91" edge="1">
          <mxGeometry width="100" height="100" relative="1" as="geometry">
            <mxPoint x="1900" y="-561" as="sourcePoint" />
            <mxPoint x="2000" y="-661" as="targetPoint" />
            <Array as="points">
              <mxPoint x="1890" y="-557" />
            </Array>
          </mxGeometry>
        </mxCell>
        <mxCell id="gXIctKyo1TDuMm2zsvnv-100" value="" style="edgeStyle=orthogonalEdgeStyle;fontSize=12;html=1;endArrow=ERmany;" parent="1" source="gXIctKyo1TDuMm2zsvnv-97" target="gXIctKyo1TDuMm2zsvnv-91" edge="1">
          <mxGeometry width="100" height="100" relative="1" as="geometry">
            <mxPoint x="1360" y="-631" as="sourcePoint" />
            <mxPoint x="1460" y="-731" as="targetPoint" />
          </mxGeometry>
        </mxCell>
        <mxCell id="gXIctKyo1TDuMm2zsvnv-125" style="edgeStyle=orthogonalEdgeStyle;rounded=1;orthogonalLoop=1;jettySize=auto;html=1;endArrow=ERmany;endFill=0;" parent="1" source="gXIctKyo1TDuMm2zsvnv-101" target="gXIctKyo1TDuMm2zsvnv-115" edge="1">
          <mxGeometry relative="1" as="geometry">
            <Array as="points">
              <mxPoint x="1960" y="160" />
              <mxPoint x="2060" y="160" />
            </Array>
            <mxPoint x="2060" y="132" as="targetPoint" />
          </mxGeometry>
        </mxCell>
        <mxCell id="gXIctKyo1TDuMm2zsvnv-108" value="" style="edgeStyle=orthogonalEdgeStyle;fontSize=12;html=1;endArrow=ERone;endFill=0;" parent="1" source="gXIctKyo1TDuMm2zsvnv-101" target="gXIctKyo1TDuMm2zsvnv-85" edge="1">
          <mxGeometry width="100" height="100" relative="1" as="geometry">
            <mxPoint x="1510" y="351" as="sourcePoint" />
            <mxPoint x="1610" y="251" as="targetPoint" />
            <Array as="points">
              <mxPoint x="1720" y="220" />
              <mxPoint x="1720" y="220" />
            </Array>
          </mxGeometry>
        </mxCell>
        <mxCell id="gXIctKyo1TDuMm2zsvnv-114" value="" style="edgeStyle=orthogonalEdgeStyle;fontSize=12;html=1;endArrow=ERone;endFill=0;" parent="1" source="gXIctKyo1TDuMm2zsvnv-102" target="gXIctKyo1TDuMm2zsvnv-109" edge="1">
          <mxGeometry width="100" height="100" relative="1" as="geometry">
            <mxPoint x="2185" y="271" as="sourcePoint" />
            <mxPoint x="2285" y="171" as="targetPoint" />
            <Array as="points">
              <mxPoint x="1930" y="371" />
            </Array>
          </mxGeometry>
        </mxCell>
        <mxCell id="gXIctKyo1TDuMm2zsvnv-123" value="" style="edgeStyle=entityRelationEdgeStyle;fontSize=12;html=1;endArrow=ERmany;" parent="1" source="gXIctKyo1TDuMm2zsvnv-120" target="gXIctKyo1TDuMm2zsvnv-115" edge="1">
          <mxGeometry width="100" height="100" relative="1" as="geometry">
            <mxPoint x="2300" y="288" as="sourcePoint" />
            <mxPoint x="2400" y="188" as="targetPoint" />
          </mxGeometry>
        </mxCell>
        <mxCell id="gXIctKyo1TDuMm2zsvnv-163" style="edgeStyle=orthogonalEdgeStyle;rounded=1;orthogonalLoop=1;jettySize=auto;html=1;endArrow=ERmany;endFill=0;" parent="1" source="gXIctKyo1TDuMm2zsvnv-101" target="gXIctKyo1TDuMm2zsvnv-159" edge="1">
          <mxGeometry relative="1" as="geometry">
            <Array as="points">
              <mxPoint x="1870" y="371" />
              <mxPoint x="1870" y="371" />
            </Array>
          </mxGeometry>
        </mxCell>
        <mxCell id="gXIctKyo1TDuMm2zsvnv-165" value="From" style="edgeLabel;html=1;align=center;verticalAlign=middle;resizable=0;points=[];" parent="gXIctKyo1TDuMm2zsvnv-163" vertex="1" connectable="0">
          <mxGeometry x="0.6395" y="-4" relative="1" as="geometry">
            <mxPoint as="offset" />
          </mxGeometry>
        </mxCell>
        <mxCell id="gXIctKyo1TDuMm2zsvnv-164" style="edgeStyle=orthogonalEdgeStyle;rounded=1;orthogonalLoop=1;jettySize=auto;html=1;endArrow=ERmany;endFill=0;" parent="1" source="gXIctKyo1TDuMm2zsvnv-101" target="gXIctKyo1TDuMm2zsvnv-159" edge="1">
          <mxGeometry relative="1" as="geometry">
            <Array as="points">
              <mxPoint x="1900" y="381" />
              <mxPoint x="1900" y="381" />
            </Array>
          </mxGeometry>
        </mxCell>
        <mxCell id="gXIctKyo1TDuMm2zsvnv-166" value="To" style="edgeLabel;html=1;align=center;verticalAlign=middle;resizable=0;points=[];" parent="gXIctKyo1TDuMm2zsvnv-164" vertex="1" connectable="0">
          <mxGeometry x="0.6395" y="-1" relative="1" as="geometry">
            <mxPoint as="offset" />
          </mxGeometry>
        </mxCell>
        <mxCell id="gXIctKyo1TDuMm2zsvnv-171" style="edgeStyle=orthogonalEdgeStyle;rounded=1;orthogonalLoop=1;jettySize=auto;html=1;endArrow=ERmany;endFill=0;" parent="1" source="gXIctKyo1TDuMm2zsvnv-167" target="gXIctKyo1TDuMm2zsvnv-159" edge="1">
          <mxGeometry relative="1" as="geometry" />
        </mxCell>
        <mxCell id="gXIctKyo1TDuMm2zsvnv-186" style="edgeStyle=orthogonalEdgeStyle;rounded=1;orthogonalLoop=1;jettySize=auto;html=1;endArrow=ERmany;endFill=0;" parent="1" source="gXIctKyo1TDuMm2zsvnv-182" target="gXIctKyo1TDuMm2zsvnv-175" edge="1">
          <mxGeometry relative="1" as="geometry" />
        </mxCell>
        <mxCell id="gXIctKyo1TDuMm2zsvnv-197" style="edgeStyle=orthogonalEdgeStyle;rounded=1;orthogonalLoop=1;jettySize=auto;html=1;endArrow=ERmany;endFill=0;" parent="1" source="gXIctKyo1TDuMm2zsvnv-192" target="gXIctKyo1TDuMm2zsvnv-187" edge="1">
          <mxGeometry relative="1" as="geometry" />
        </mxCell>
        <mxCell id="_0oobIRNl8wnkdukzj8S-65" style="edgeStyle=orthogonalEdgeStyle;rounded=1;orthogonalLoop=1;jettySize=auto;html=1;endArrow=ERmany;endFill=0;" parent="1" source="gXIctKyo1TDuMm2zsvnv-101" target="_0oobIRNl8wnkdukzj8S-52" edge="1">
          <mxGeometry relative="1" as="geometry">
            <Array as="points">
              <mxPoint x="1850" y="160" />
              <mxPoint x="1740" y="160" />
            </Array>
          </mxGeometry>
        </mxCell>
        <mxCell id="_0oobIRNl8wnkdukzj8S-28" style="edgeStyle=orthogonalEdgeStyle;rounded=1;orthogonalLoop=1;jettySize=auto;html=1;endArrow=ERmany;endFill=0;" parent="1" source="5tScs2i6ls9q81FOWfNb-14" target="5tScs2i6ls9q81FOWfNb-8" edge="1">
          <mxGeometry relative="1" as="geometry">
            <mxPoint x="2850" y="-911" as="targetPoint" />
            <mxPoint x="2980" y="-910" as="sourcePoint" />
            <Array as="points" />
          </mxGeometry>
        </mxCell>
        <mxCell id="_0oobIRNl8wnkdukzj8S-38" style="edgeStyle=orthogonalEdgeStyle;rounded=1;orthogonalLoop=1;jettySize=auto;html=1;endArrow=ERmany;endFill=0;" parent="1" source="gXIctKyo1TDuMm2zsvnv-62" target="_0oobIRNl8wnkdukzj8S-32" edge="1">
          <mxGeometry relative="1" as="geometry">
            <Array as="points">
              <mxPoint x="1255" y="-762" />
              <mxPoint x="1255" y="-762" />
            </Array>
          </mxGeometry>
        </mxCell>
        <mxCell id="_0oobIRNl8wnkdukzj8S-74" style="edgeStyle=orthogonalEdgeStyle;rounded=1;orthogonalLoop=1;jettySize=auto;html=1;endArrow=ERmany;endFill=0;" parent="1" source="_0oobIRNl8wnkdukzj8S-68" target="_0oobIRNl8wnkdukzj8S-52" edge="1">
          <mxGeometry relative="1" as="geometry" />
        </mxCell>
        <mxCell id="_0oobIRNl8wnkdukzj8S-100" style="edgeStyle=orthogonalEdgeStyle;rounded=1;orthogonalLoop=1;jettySize=auto;html=1;endArrow=ERmany;endFill=0;" parent="1" source="_0oobIRNl8wnkdukzj8S-84" target="_0oobIRNl8wnkdukzj8S-96" edge="1">
          <mxGeometry relative="1" as="geometry" />
        </mxCell>
        <mxCell id="_0oobIRNl8wnkdukzj8S-91" style="edgeStyle=orthogonalEdgeStyle;rounded=1;orthogonalLoop=1;jettySize=auto;html=1;endArrow=ERmany;endFill=0;" parent="1" source="_0oobIRNl8wnkdukzj8S-81" target="_0oobIRNl8wnkdukzj8S-84" edge="1">
          <mxGeometry relative="1" as="geometry" />
        </mxCell>
        <mxCell id="_0oobIRNl8wnkdukzj8S-95" style="edgeStyle=orthogonalEdgeStyle;rounded=1;orthogonalLoop=1;jettySize=auto;html=1;endArrow=ERmany;endFill=0;entryX=0;entryY=0.25;entryDx=0;entryDy=0;" parent="1" source="_0oobIRNl8wnkdukzj8S-80" target="_0oobIRNl8wnkdukzj8S-87" edge="1">
          <mxGeometry relative="1" as="geometry">
            <Array as="points">
              <mxPoint x="315" y="-805" />
              <mxPoint x="315" y="-558" />
            </Array>
          </mxGeometry>
        </mxCell>
        <mxCell id="_0oobIRNl8wnkdukzj8S-102" style="edgeStyle=orthogonalEdgeStyle;rounded=1;orthogonalLoop=1;jettySize=auto;html=1;endArrow=ERmany;endFill=0;" parent="1" source="_0oobIRNl8wnkdukzj8S-87" target="_0oobIRNl8wnkdukzj8S-96" edge="1">
          <mxGeometry relative="1" as="geometry" />
        </mxCell>
        <mxCell id="_0oobIRNl8wnkdukzj8S-107" style="edgeStyle=orthogonalEdgeStyle;rounded=1;orthogonalLoop=1;jettySize=auto;html=1;endArrow=ERmany;endFill=0;" parent="1" source="gXIctKyo1TDuMm2zsvnv-8" target="_0oobIRNl8wnkdukzj8S-103" edge="1">
          <mxGeometry relative="1" as="geometry" />
        </mxCell>
        <mxCell id="_0oobIRNl8wnkdukzj8S-117" style="edgeStyle=orthogonalEdgeStyle;rounded=1;orthogonalLoop=1;jettySize=auto;html=1;endArrow=ERmany;endFill=0;" parent="1" source="gXIctKyo1TDuMm2zsvnv-8" target="_0oobIRNl8wnkdukzj8S-109" edge="1">
          <mxGeometry relative="1" as="geometry">
            <Array as="points">
              <mxPoint x="445" y="-230" />
            </Array>
          </mxGeometry>
        </mxCell>
        <mxCell id="_0oobIRNl8wnkdukzj8S-108" style="edgeStyle=orthogonalEdgeStyle;rounded=1;orthogonalLoop=1;jettySize=auto;html=1;endArrow=ERmany;endFill=0;" parent="1" source="_0oobIRNl8wnkdukzj8S-96" target="_0oobIRNl8wnkdukzj8S-103" edge="1">
          <mxGeometry relative="1" as="geometry">
            <Array as="points">
              <mxPoint x="265" y="-695" />
            </Array>
          </mxGeometry>
        </mxCell>
        <mxCell id="0TQyI1X9U9wz12JWhdh1-11" value="" style="edgeStyle=orthogonalEdgeStyle;fontSize=12;html=1;endArrow=ERmany;" parent="1" source="gXIctKyo1TDuMm2zsvnv-65" target="0TQyI1X9U9wz12JWhdh1-1" edge="1">
          <mxGeometry width="100" height="100" relative="1" as="geometry">
            <mxPoint x="1270" y="-355.4213562373095" as="sourcePoint" />
            <mxPoint x="1270" y="-455.4213562373095" as="targetPoint" />
          </mxGeometry>
        </mxCell>
        <mxCell id="0TQyI1X9U9wz12JWhdh1-13" value="" style="edgeStyle=orthogonalEdgeStyle;fontSize=12;html=1;endArrow=ERmany;dashed=1;" parent="1" source="_0oobIRNl8wnkdukzj8S-109" target="0TQyI1X9U9wz12JWhdh1-1" edge="1">
          <mxGeometry width="100" height="100" relative="1" as="geometry">
            <mxPoint x="770" y="-44" as="sourcePoint" />
            <mxPoint x="911.4213562373095" y="-144" as="targetPoint" />
            <Array as="points">
              <mxPoint x="800" y="-126" />
              <mxPoint x="800" y="-290" />
            </Array>
          </mxGeometry>
        </mxCell>
        <mxCell id="0TQyI1X9U9wz12JWhdh1-18" value="" style="edgeStyle=orthogonalEdgeStyle;fontSize=12;html=1;endArrow=ERmany;dashed=1;" parent="1" source="gXIctKyo1TDuMm2zsvnv-8" target="0TQyI1X9U9wz12JWhdh1-1" edge="1">
          <mxGeometry width="100" height="100" relative="1" as="geometry">
            <mxPoint x="690" y="-432.4213562373095" as="sourcePoint" />
            <mxPoint x="690" y="-532.4213562373095" as="targetPoint" />
            <Array as="points">
              <mxPoint x="300" y="-312" />
            </Array>
          </mxGeometry>
        </mxCell>
        <mxCell id="5tScs2i6ls9q81FOWfNb-12" value="" style="edgeStyle=orthogonalEdgeStyle;fontSize=12;html=1;endArrow=ERmany;" parent="1" source="5tScs2i6ls9q81FOWfNb-1" target="5tScs2i6ls9q81FOWfNb-8" edge="1">
          <mxGeometry width="100" height="100" relative="1" as="geometry">
            <mxPoint x="2892.5" y="-731" as="sourcePoint" />
            <mxPoint x="2992.5" y="-831" as="targetPoint" />
            <Array as="points">
              <mxPoint x="2673" y="-810" />
              <mxPoint x="2673" y="-810" />
            </Array>
          </mxGeometry>
        </mxCell>
        <mxCell id="5tScs2i6ls9q81FOWfNb-13" value="" style="edgeStyle=orthogonalEdgeStyle;fontSize=12;html=1;endArrow=ERmany;dashed=1;" parent="1" source="gXIctKyo1TDuMm2zsvnv-101" target="5tScs2i6ls9q81FOWfNb-8" edge="1">
          <mxGeometry width="100" height="100" relative="1" as="geometry">
            <mxPoint x="2470" y="-351" as="sourcePoint" />
            <mxPoint x="2570" y="-451" as="targetPoint" />
            <Array as="points">
              <mxPoint x="1920" y="-1000" />
            </Array>
          </mxGeometry>
        </mxCell>
        <mxCell id="5tScs2i6ls9q81FOWfNb-18" value="" style="edgeStyle=orthogonalEdgeStyle;fontSize=12;html=1;endArrow=ERmany;entryX=0;entryY=0.5;entryDx=0;entryDy=0;" parent="1" source="5tScs2i6ls9q81FOWfNb-20" target="gXIctKyo1TDuMm2zsvnv-187" edge="1">
          <mxGeometry width="100" height="100" relative="1" as="geometry">
            <mxPoint x="2470" y="-315" as="sourcePoint" />
            <mxPoint x="2570" y="-415" as="targetPoint" />
          </mxGeometry>
        </mxCell>
        <mxCell id="5tScs2i6ls9q81FOWfNb-19" value="" style="edgeStyle=orthogonalEdgeStyle;fontSize=12;html=1;endArrow=ERmany;" parent="1" source="gXIctKyo1TDuMm2zsvnv-182" target="gXIctKyo1TDuMm2zsvnv-192" edge="1">
          <mxGeometry width="100" height="100" relative="1" as="geometry">
            <mxPoint x="2460" y="-445" as="sourcePoint" />
            <mxPoint x="2560" y="-545" as="targetPoint" />
          </mxGeometry>
        </mxCell>
        <mxCell id="5tScs2i6ls9q81FOWfNb-23" value="" style="edgeStyle=orthogonalEdgeStyle;fontSize=12;html=1;endArrow=ERmany;" parent="1" source="gXIctKyo1TDuMm2zsvnv-178" target="5tScs2i6ls9q81FOWfNb-20" edge="1">
          <mxGeometry width="100" height="100" relative="1" as="geometry">
            <mxPoint x="2110" y="-205" as="sourcePoint" />
            <mxPoint x="2210" y="-305" as="targetPoint" />
          </mxGeometry>
        </mxCell>
        <mxCell id="5tScs2i6ls9q81FOWfNb-24" value="" style="edgeStyle=orthogonalEdgeStyle;fontSize=12;html=1;endArrow=ERmany;entryX=0.5;entryY=0;entryDx=0;entryDy=0;" parent="1" source="gXIctKyo1TDuMm2zsvnv-175" target="5tScs2i6ls9q81FOWfNb-20" edge="1">
          <mxGeometry width="100" height="100" relative="1" as="geometry">
            <mxPoint x="2110" y="-365" as="sourcePoint" />
            <mxPoint x="2210" y="-465" as="targetPoint" />
          </mxGeometry>
        </mxCell>
        <mxCell id="4bJShYl02M1BMANjru1z-9" value="" style="edgeStyle=orthogonalEdgeStyle;fontSize=12;html=1;endArrow=ERmany;exitX=1;exitY=0.25;exitDx=0;exitDy=0;" parent="1" source="gXIctKyo1TDuMm2zsvnv-101" target="4bJShYl02M1BMANjru1z-1" edge="1">
          <mxGeometry width="100" height="100" relative="1" as="geometry">
            <mxPoint x="2260" y="281" as="sourcePoint" />
            <mxPoint x="2360" y="181" as="targetPoint" />
            <Array as="points">
              <mxPoint x="2000" y="215" />
              <mxPoint x="2000" y="215" />
            </Array>
          </mxGeometry>
        </mxCell>
        <mxCell id="4bJShYl02M1BMANjru1z-10" value="" style="edgeStyle=orthogonalEdgeStyle;fontSize=12;html=1;endArrow=ERmany;" parent="1" source="4bJShYl02M1BMANjru1z-4" target="4bJShYl02M1BMANjru1z-1" edge="1">
          <mxGeometry width="100" height="100" relative="1" as="geometry">
            <mxPoint x="2530" y="61" as="sourcePoint" />
            <mxPoint x="2630" y="-39" as="targetPoint" />
          </mxGeometry>
        </mxCell>
        <mxCell id="4bJShYl02M1BMANjru1z-25" value="" style="edgeStyle=orthogonalEdgeStyle;fontSize=12;html=1;endArrow=ERmany;" parent="1" source="0TQyI1X9U9wz12JWhdh1-1" target="4bJShYl02M1BMANjru1z-21" edge="1">
          <mxGeometry width="100" height="100" relative="1" as="geometry">
            <mxPoint x="950" y="-81.5" as="sourcePoint" />
            <mxPoint x="1050" y="-181.5" as="targetPoint" />
          </mxGeometry>
        </mxCell>
        <mxCell id="4bJShYl02M1BMANjru1z-26" value="" style="edgeStyle=orthogonalEdgeStyle;fontSize=12;html=1;endArrow=ERmany;dashed=1;" parent="1" source="_0oobIRNl8wnkdukzj8S-103" target="4bJShYl02M1BMANjru1z-21" edge="1">
          <mxGeometry width="100" height="100" relative="1" as="geometry">
            <mxPoint x="650" y="-341" as="sourcePoint" />
            <mxPoint x="750" y="-441" as="targetPoint" />
            <Array as="points">
              <mxPoint x="530" y="-427" />
              <mxPoint x="530" y="-427" />
            </Array>
          </mxGeometry>
        </mxCell>
        <mxCell id="4bJShYl02M1BMANjru1z-28" value="" style="edgeStyle=orthogonalEdgeStyle;fontSize=12;html=1;endArrow=ERmany;" parent="1" source="5tScs2i6ls9q81FOWfNb-1" target="gXIctKyo1TDuMm2zsvnv-192" edge="1">
          <mxGeometry width="100" height="100" relative="1" as="geometry">
            <mxPoint x="2322.5" y="-731" as="sourcePoint" />
            <mxPoint x="2422.5" y="-831" as="targetPoint" />
            <Array as="points">
              <mxPoint x="2672.5" y="-565" />
              <mxPoint x="2672.5" y="-565" />
            </Array>
          </mxGeometry>
        </mxCell>
        <mxCell id="4bJShYl02M1BMANjru1z-43" value="" style="edgeStyle=orthogonalEdgeStyle;fontSize=12;html=1;endArrow=ERmany;" parent="1" source="5tScs2i6ls9q81FOWfNb-1" target="4bJShYl02M1BMANjru1z-36" edge="1">
          <mxGeometry width="100" height="100" relative="1" as="geometry">
            <mxPoint x="2922.5" y="-521" as="sourcePoint" />
            <mxPoint x="3022.5" y="-621" as="targetPoint" />
            <Array as="points">
              <mxPoint x="2720" y="-810" />
            </Array>
          </mxGeometry>
        </mxCell>
        <mxCell id="4bJShYl02M1BMANjru1z-45" value="" style="edgeStyle=entityRelationEdgeStyle;fontSize=12;html=1;endArrow=ERmany;" parent="1" source="4bJShYl02M1BMANjru1z-40" target="4bJShYl02M1BMANjru1z-36" edge="1">
          <mxGeometry width="100" height="100" relative="1" as="geometry">
            <mxPoint x="3052.5" y="-477" as="sourcePoint" />
            <mxPoint x="3152.5" y="-577" as="targetPoint" />
          </mxGeometry>
        </mxCell>
        <mxCell id="6ihYg4v1iRG9pjWXqvsw-2" value="" style="edgeStyle=orthogonalEdgeStyle;fontSize=12;html=1;endArrow=ERmany;endFill=0;" parent="1" source="gXIctKyo1TDuMm2zsvnv-65" target="_0oobIRNl8wnkdukzj8S-32" edge="1">
          <mxGeometry width="100" height="100" relative="1" as="geometry">
            <mxPoint x="970" y="-692" as="sourcePoint" />
            <mxPoint x="1120" y="-712" as="targetPoint" />
            <Array as="points">
              <mxPoint x="1090" y="-352" />
              <mxPoint x="1090" y="-836" />
            </Array>
          </mxGeometry>
        </mxCell>
        <mxCell id="BGuPxNFhb5wrOtqzNdvj-9" value="" style="edgeStyle=orthogonalEdgeStyle;fontSize=12;html=1;endArrow=ERmany;" parent="1" source="gXIctKyo1TDuMm2zsvnv-8" target="BGuPxNFhb5wrOtqzNdvj-2" edge="1">
          <mxGeometry width="100" height="100" relative="1" as="geometry">
            <mxPoint x="-100" y="-216" as="sourcePoint" />
            <mxPoint y="-316" as="targetPoint" />
          </mxGeometry>
        </mxCell>
        <mxCell id="BGuPxNFhb5wrOtqzNdvj-11" value="" style="edgeStyle=orthogonalEdgeStyle;fontSize=12;html=1;endArrow=ERone;endFill=0;" parent="1" source="BGuPxNFhb5wrOtqzNdvj-2" target="BGuPxNFhb5wrOtqzNdvj-5" edge="1">
          <mxGeometry width="100" height="100" relative="1" as="geometry">
            <mxPoint x="-210" y="-46" as="sourcePoint" />
            <mxPoint x="-110" y="-146" as="targetPoint" />
          </mxGeometry>
        </mxCell>
        <mxCell id="BGuPxNFhb5wrOtqzNdvj-14" value="" style="edgeStyle=orthogonalEdgeStyle;fontSize=12;html=1;endArrow=ERmany;" parent="1" source="_0oobIRNl8wnkdukzj8S-109" target="BGuPxNFhb5wrOtqzNdvj-2" edge="1">
          <mxGeometry width="100" height="100" relative="1" as="geometry">
            <mxPoint x="210" y="74" as="sourcePoint" />
            <mxPoint x="310" y="-26" as="targetPoint" />
            <Array as="points">
              <mxPoint x="51" y="-126" />
            </Array>
          </mxGeometry>
        </mxCell>
        <mxCell id="BGuPxNFhb5wrOtqzNdvj-24" value="" style="edgeStyle=orthogonalEdgeStyle;fontSize=12;html=1;endArrow=ERmany;entryX=1;entryY=0.5;entryDx=0;entryDy=0;" parent="1" source="gXIctKyo1TDuMm2zsvnv-85" target="BGuPxNFhb5wrOtqzNdvj-20" edge="1">
          <mxGeometry width="100" height="100" relative="1" as="geometry">
            <mxPoint x="1230" y="541" as="sourcePoint" />
            <mxPoint x="1330" y="441" as="targetPoint" />
            <Array as="points">
              <mxPoint x="1390" y="235" />
              <mxPoint x="1390" y="235" />
            </Array>
          </mxGeometry>
        </mxCell>
        <mxCell id="gXIctKyo1TDuMm2zsvnv-101" value="Party" style="swimlane;fontStyle=0;childLayout=stackLayout;horizontal=1;startSize=26;horizontalStack=0;resizeParent=1;resizeParentMax=0;resizeLast=0;collapsible=1;marginBottom=0;align=center;fontSize=14;fillColor=#dae8fc;strokeColor=#6c8ebf;" parent="1" vertex="1">
          <mxGeometry x="1830" y="202" width="160" height="52" as="geometry" />
        </mxCell>
        <mxCell id="gXIctKyo1TDuMm2zsvnv-102" value="Id" style="text;strokeColor=none;fillColor=none;spacingLeft=4;spacingRight=4;overflow=hidden;rotatable=0;points=[[0,0.5],[1,0.5]];portConstraint=eastwest;fontSize=12;" parent="gXIctKyo1TDuMm2zsvnv-101" vertex="1">
          <mxGeometry y="26" width="160" height="26" as="geometry" />
        </mxCell>
        <mxCell id="gXIctKyo1TDuMm2zsvnv-159" value="PartyRelationship" style="swimlane;fontStyle=0;childLayout=stackLayout;horizontal=1;startSize=26;horizontalStack=0;resizeParent=1;resizeParentMax=0;resizeLast=0;collapsible=1;marginBottom=0;align=center;fontSize=14;fillColor=#dae8fc;strokeColor=#6c8ebf;" parent="1" vertex="1">
          <mxGeometry x="1830" y="446" width="160" height="104" as="geometry" />
        </mxCell>
        <mxCell id="gXIctKyo1TDuMm2zsvnv-160" value="Id" style="text;strokeColor=none;fillColor=none;spacingLeft=4;spacingRight=4;overflow=hidden;rotatable=0;points=[[0,0.5],[1,0.5]];portConstraint=eastwest;fontSize=12;" parent="gXIctKyo1TDuMm2zsvnv-159" vertex="1">
          <mxGeometry y="26" width="160" height="26" as="geometry" />
        </mxCell>
        <mxCell id="5tScs2i6ls9q81FOWfNb-29" value="EffectiveFromDate" style="text;strokeColor=none;fillColor=none;spacingLeft=4;spacingRight=4;overflow=hidden;rotatable=0;points=[[0,0.5],[1,0.5]];portConstraint=eastwest;fontSize=12;" parent="gXIctKyo1TDuMm2zsvnv-159" vertex="1">
          <mxGeometry y="52" width="160" height="26" as="geometry" />
        </mxCell>
        <mxCell id="5tScs2i6ls9q81FOWfNb-30" value="EffectiveToDate" style="text;strokeColor=none;fillColor=none;spacingLeft=4;spacingRight=4;overflow=hidden;rotatable=0;points=[[0,0.5],[1,0.5]];portConstraint=eastwest;fontSize=12;" parent="gXIctKyo1TDuMm2zsvnv-159" vertex="1">
          <mxGeometry y="78" width="160" height="26" as="geometry" />
        </mxCell>
        <mxCell id="gXIctKyo1TDuMm2zsvnv-109" value="Company" style="swimlane;fontStyle=0;childLayout=stackLayout;horizontal=1;startSize=26;horizontalStack=0;resizeParent=1;resizeParentMax=0;resizeLast=0;collapsible=1;marginBottom=0;align=center;fontSize=14;fillColor=#dae8fc;strokeColor=#6c8ebf;" parent="1" vertex="1">
          <mxGeometry x="2045" y="332" width="160" height="78" as="geometry" />
        </mxCell>
        <mxCell id="gXIctKyo1TDuMm2zsvnv-110" value="Id" style="text;strokeColor=none;fillColor=none;spacingLeft=4;spacingRight=4;overflow=hidden;rotatable=0;points=[[0,0.5],[1,0.5]];portConstraint=eastwest;fontSize=12;" parent="gXIctKyo1TDuMm2zsvnv-109" vertex="1">
          <mxGeometry y="26" width="160" height="26" as="geometry" />
        </mxCell>
        <mxCell id="gXIctKyo1TDuMm2zsvnv-111" value="Name" style="text;strokeColor=none;fillColor=none;spacingLeft=4;spacingRight=4;overflow=hidden;rotatable=0;points=[[0,0.5],[1,0.5]];portConstraint=eastwest;fontSize=12;" parent="gXIctKyo1TDuMm2zsvnv-109" vertex="1">
          <mxGeometry y="52" width="160" height="26" as="geometry" />
        </mxCell>
        <mxCell id="gXIctKyo1TDuMm2zsvnv-167" value="PartyRelationshipType" style="swimlane;fontStyle=0;childLayout=stackLayout;horizontal=1;startSize=26;horizontalStack=0;resizeParent=1;resizeParentMax=0;resizeLast=0;collapsible=1;marginBottom=0;align=center;fontSize=14;fillColor=#dae8fc;strokeColor=#6c8ebf;" parent="1" vertex="1">
          <mxGeometry x="2045" y="459" width="195" height="78" as="geometry" />
        </mxCell>
        <mxCell id="gXIctKyo1TDuMm2zsvnv-168" value="Id" style="text;strokeColor=none;fillColor=none;spacingLeft=4;spacingRight=4;overflow=hidden;rotatable=0;points=[[0,0.5],[1,0.5]];portConstraint=eastwest;fontSize=12;" parent="gXIctKyo1TDuMm2zsvnv-167" vertex="1">
          <mxGeometry y="26" width="195" height="26" as="geometry" />
        </mxCell>
        <mxCell id="gXIctKyo1TDuMm2zsvnv-169" value="Name { FATHER }" style="text;strokeColor=none;fillColor=none;spacingLeft=4;spacingRight=4;overflow=hidden;rotatable=0;points=[[0,0.5],[1,0.5]];portConstraint=eastwest;fontSize=12;" parent="gXIctKyo1TDuMm2zsvnv-167" vertex="1">
          <mxGeometry y="52" width="195" height="26" as="geometry" />
        </mxCell>
        <mxCell id="gXIctKyo1TDuMm2zsvnv-192" value="AnswerSheet" style="swimlane;fontStyle=0;childLayout=stackLayout;horizontal=1;startSize=26;horizontalStack=0;resizeParent=1;resizeParentMax=0;resizeLast=0;collapsible=1;marginBottom=0;align=center;fontSize=14;fillColor=#e1d5e7;strokeColor=#9673a6;" parent="1" vertex="1">
          <mxGeometry x="2592.5" y="-589" width="160" height="52" as="geometry" />
        </mxCell>
        <mxCell id="gXIctKyo1TDuMm2zsvnv-193" value="Id" style="text;strokeColor=none;fillColor=none;spacingLeft=4;spacingRight=4;overflow=hidden;rotatable=0;points=[[0,0.5],[1,0.5]];portConstraint=eastwest;fontSize=12;" parent="gXIctKyo1TDuMm2zsvnv-192" vertex="1">
          <mxGeometry y="26" width="160" height="26" as="geometry" />
        </mxCell>
        <mxCell id="gXIctKyo1TDuMm2zsvnv-187" value="Answer" style="swimlane;fontStyle=0;childLayout=stackLayout;horizontal=1;startSize=26;horizontalStack=0;resizeParent=1;resizeParentMax=0;resizeLast=0;collapsible=1;marginBottom=0;align=center;fontSize=14;fillColor=#e1d5e7;strokeColor=#9673a6;" parent="1" vertex="1">
          <mxGeometry x="2592.5" y="-345" width="160" height="52" as="geometry" />
        </mxCell>
        <mxCell id="gXIctKyo1TDuMm2zsvnv-188" value="Id" style="text;strokeColor=none;fillColor=none;spacingLeft=4;spacingRight=4;overflow=hidden;rotatable=0;points=[[0,0.5],[1,0.5]];portConstraint=eastwest;fontSize=12;" parent="gXIctKyo1TDuMm2zsvnv-187" vertex="1">
          <mxGeometry y="26" width="160" height="26" as="geometry" />
        </mxCell>
        <mxCell id="gXIctKyo1TDuMm2zsvnv-85" value="Person" style="swimlane;fontStyle=0;childLayout=stackLayout;horizontal=1;startSize=26;horizontalStack=0;resizeParent=1;resizeParentMax=0;resizeLast=0;collapsible=1;marginBottom=0;align=center;fontSize=14;fillColor=#dae8fc;strokeColor=#6c8ebf;" parent="1" vertex="1">
          <mxGeometry x="1450" y="110" width="160" height="260" as="geometry" />
        </mxCell>
        <mxCell id="gXIctKyo1TDuMm2zsvnv-86" value="Id" style="text;strokeColor=none;fillColor=none;spacingLeft=4;spacingRight=4;overflow=hidden;rotatable=0;points=[[0,0.5],[1,0.5]];portConstraint=eastwest;fontSize=12;" parent="gXIctKyo1TDuMm2zsvnv-85" vertex="1">
          <mxGeometry y="26" width="160" height="26" as="geometry" />
        </mxCell>
        <mxCell id="_0oobIRNl8wnkdukzj8S-45" value="Title" style="text;strokeColor=none;fillColor=none;spacingLeft=4;spacingRight=4;overflow=hidden;rotatable=0;points=[[0,0.5],[1,0.5]];portConstraint=eastwest;fontSize=12;" parent="gXIctKyo1TDuMm2zsvnv-85" vertex="1">
          <mxGeometry y="52" width="160" height="26" as="geometry" />
        </mxCell>
        <mxCell id="gXIctKyo1TDuMm2zsvnv-89" value="BirthDate" style="text;strokeColor=none;fillColor=none;spacingLeft=4;spacingRight=4;overflow=hidden;rotatable=0;points=[[0,0.5],[1,0.5]];portConstraint=eastwest;fontSize=12;" parent="gXIctKyo1TDuMm2zsvnv-85" vertex="1">
          <mxGeometry y="78" width="160" height="26" as="geometry" />
        </mxCell>
        <mxCell id="_0oobIRNl8wnkdukzj8S-47" value="Weight" style="text;strokeColor=none;fillColor=none;spacingLeft=4;spacingRight=4;overflow=hidden;rotatable=0;points=[[0,0.5],[1,0.5]];portConstraint=eastwest;fontSize=12;" parent="gXIctKyo1TDuMm2zsvnv-85" vertex="1">
          <mxGeometry y="104" width="160" height="26" as="geometry" />
        </mxCell>
        <mxCell id="_0oobIRNl8wnkdukzj8S-48" value="Height" style="text;strokeColor=none;fillColor=none;spacingLeft=4;spacingRight=4;overflow=hidden;rotatable=0;points=[[0,0.5],[1,0.5]];portConstraint=eastwest;fontSize=12;" parent="gXIctKyo1TDuMm2zsvnv-85" vertex="1">
          <mxGeometry y="130" width="160" height="26" as="geometry" />
        </mxCell>
        <mxCell id="_0oobIRNl8wnkdukzj8S-49" value="Sex" style="text;strokeColor=none;fillColor=none;spacingLeft=4;spacingRight=4;overflow=hidden;rotatable=0;points=[[0,0.5],[1,0.5]];portConstraint=eastwest;fontSize=12;" parent="gXIctKyo1TDuMm2zsvnv-85" vertex="1">
          <mxGeometry y="156" width="160" height="26" as="geometry" />
        </mxCell>
        <mxCell id="_0oobIRNl8wnkdukzj8S-50" value="MaritalStatus" style="text;strokeColor=none;fillColor=none;spacingLeft=4;spacingRight=4;overflow=hidden;rotatable=0;points=[[0,0.5],[1,0.5]];portConstraint=eastwest;fontSize=12;" parent="gXIctKyo1TDuMm2zsvnv-85" vertex="1">
          <mxGeometry y="182" width="160" height="26" as="geometry" />
        </mxCell>
        <mxCell id="_0oobIRNl8wnkdukzj8S-75" value="Occupation" style="text;strokeColor=none;fillColor=none;spacingLeft=4;spacingRight=4;overflow=hidden;rotatable=0;points=[[0,0.5],[1,0.5]];portConstraint=eastwest;fontSize=12;" parent="gXIctKyo1TDuMm2zsvnv-85" vertex="1">
          <mxGeometry y="208" width="160" height="26" as="geometry" />
        </mxCell>
        <mxCell id="6ihYg4v1iRG9pjWXqvsw-5" value="OccupationCode" style="text;strokeColor=none;fillColor=none;spacingLeft=4;spacingRight=4;overflow=hidden;rotatable=0;points=[[0,0.5],[1,0.5]];portConstraint=eastwest;fontSize=12;" parent="gXIctKyo1TDuMm2zsvnv-85" vertex="1">
          <mxGeometry y="234" width="160" height="26" as="geometry" />
        </mxCell>
        <mxCell id="BGuPxNFhb5wrOtqzNdvj-18" value="PersonName" style="swimlane;fontStyle=0;childLayout=stackLayout;horizontal=1;startSize=26;horizontalStack=0;resizeParent=1;resizeParentMax=0;resizeLast=0;collapsible=1;marginBottom=0;align=center;fontSize=14;fillColor=#dae8fc;strokeColor=#6c8ebf;" parent="1" vertex="1">
          <mxGeometry x="1160" y="170" width="160" height="156" as="geometry" />
        </mxCell>
        <mxCell id="BGuPxNFhb5wrOtqzNdvj-19" value="Id" style="text;strokeColor=none;fillColor=none;spacingLeft=4;spacingRight=4;overflow=hidden;rotatable=0;points=[[0,0.5],[1,0.5]];portConstraint=eastwest;fontSize=12;" parent="BGuPxNFhb5wrOtqzNdvj-18" vertex="1">
          <mxGeometry y="26" width="160" height="26" as="geometry" />
        </mxCell>
        <mxCell id="BGuPxNFhb5wrOtqzNdvj-20" value="Firstname" style="text;strokeColor=none;fillColor=none;spacingLeft=4;spacingRight=4;overflow=hidden;rotatable=0;points=[[0,0.5],[1,0.5]];portConstraint=eastwest;fontSize=12;" parent="BGuPxNFhb5wrOtqzNdvj-18" vertex="1">
          <mxGeometry y="52" width="160" height="26" as="geometry" />
        </mxCell>
        <mxCell id="BGuPxNFhb5wrOtqzNdvj-21" value="Lastname" style="text;strokeColor=none;fillColor=none;spacingLeft=4;spacingRight=4;overflow=hidden;rotatable=0;points=[[0,0.5],[1,0.5]];portConstraint=eastwest;fontSize=12;" parent="BGuPxNFhb5wrOtqzNdvj-18" vertex="1">
          <mxGeometry y="78" width="160" height="26" as="geometry" />
        </mxCell>
        <mxCell id="BGuPxNFhb5wrOtqzNdvj-22" value="EffectiveFromDate" style="text;strokeColor=none;fillColor=none;spacingLeft=4;spacingRight=4;overflow=hidden;rotatable=0;points=[[0,0.5],[1,0.5]];portConstraint=eastwest;fontSize=12;" parent="BGuPxNFhb5wrOtqzNdvj-18" vertex="1">
          <mxGeometry y="104" width="160" height="26" as="geometry" />
        </mxCell>
        <mxCell id="BGuPxNFhb5wrOtqzNdvj-23" value="EffectiveToDate" style="text;strokeColor=none;fillColor=none;spacingLeft=4;spacingRight=4;overflow=hidden;rotatable=0;points=[[0,0.5],[1,0.5]];portConstraint=eastwest;fontSize=12;" parent="BGuPxNFhb5wrOtqzNdvj-18" vertex="1">
          <mxGeometry y="130" width="160" height="26" as="geometry" />
        </mxCell>
        <mxCell id="4bJShYl02M1BMANjru1z-1" value="Communication" style="swimlane;fontStyle=0;childLayout=stackLayout;horizontal=1;startSize=26;horizontalStack=0;resizeParent=1;resizeParentMax=0;resizeLast=0;collapsible=1;marginBottom=0;align=center;fontSize=14;fillColor=#dae8fc;strokeColor=#6c8ebf;" parent="1" vertex="1">
          <mxGeometry x="2240" y="140" width="160" height="130" as="geometry" />
        </mxCell>
        <mxCell id="4bJShYl02M1BMANjru1z-2" value="Id" style="text;strokeColor=none;fillColor=none;spacingLeft=4;spacingRight=4;overflow=hidden;rotatable=0;points=[[0,0.5],[1,0.5]];portConstraint=eastwest;fontSize=12;" parent="4bJShYl02M1BMANjru1z-1" vertex="1">
          <mxGeometry y="26" width="160" height="26" as="geometry" />
        </mxCell>
        <mxCell id="4bJShYl02M1BMANjru1z-3" value="Value" style="text;strokeColor=none;fillColor=none;spacingLeft=4;spacingRight=4;overflow=hidden;rotatable=0;points=[[0,0.5],[1,0.5]];portConstraint=eastwest;fontSize=12;" parent="4bJShYl02M1BMANjru1z-1" vertex="1">
          <mxGeometry y="52" width="160" height="26" as="geometry" />
        </mxCell>
        <mxCell id="4bJShYl02M1BMANjru1z-7" value="EffectiveFromDate" style="text;strokeColor=none;fillColor=none;spacingLeft=4;spacingRight=4;overflow=hidden;rotatable=0;points=[[0,0.5],[1,0.5]];portConstraint=eastwest;fontSize=12;" parent="4bJShYl02M1BMANjru1z-1" vertex="1">
          <mxGeometry y="78" width="160" height="26" as="geometry" />
        </mxCell>
        <mxCell id="4bJShYl02M1BMANjru1z-8" value="EffectiveToDate" style="text;strokeColor=none;fillColor=none;spacingLeft=4;spacingRight=4;overflow=hidden;rotatable=0;points=[[0,0.5],[1,0.5]];portConstraint=eastwest;fontSize=12;" parent="4bJShYl02M1BMANjru1z-1" vertex="1">
          <mxGeometry y="104" width="160" height="26" as="geometry" />
        </mxCell>
        <mxCell id="4bJShYl02M1BMANjru1z-4" value="CommunicationType" style="swimlane;fontStyle=0;childLayout=stackLayout;horizontal=1;startSize=26;horizontalStack=0;resizeParent=1;resizeParentMax=0;resizeLast=0;collapsible=1;marginBottom=0;align=center;fontSize=14;fillColor=#dae8fc;strokeColor=#6c8ebf;" parent="1" vertex="1">
          <mxGeometry x="2500" y="166" width="160" height="78" as="geometry" />
        </mxCell>
        <mxCell id="4bJShYl02M1BMANjru1z-5" value="Id" style="text;strokeColor=none;fillColor=none;spacingLeft=4;spacingRight=4;overflow=hidden;rotatable=0;points=[[0,0.5],[1,0.5]];portConstraint=eastwest;fontSize=12;" parent="4bJShYl02M1BMANjru1z-4" vertex="1">
          <mxGeometry y="26" width="160" height="26" as="geometry" />
        </mxCell>
        <mxCell id="4bJShYl02M1BMANjru1z-6" value="Name { EMAIL, MOBILE }" style="text;strokeColor=none;fillColor=none;spacingLeft=4;spacingRight=4;overflow=hidden;rotatable=0;points=[[0,0.5],[1,0.5]];portConstraint=eastwest;fontSize=12;" parent="4bJShYl02M1BMANjru1z-4" vertex="1">
          <mxGeometry y="52" width="160" height="26" as="geometry" />
        </mxCell>
        <mxCell id="_0oobIRNl8wnkdukzj8S-32" value="Voucher" style="swimlane;fontStyle=0;childLayout=stackLayout;horizontal=1;startSize=26;horizontalStack=0;resizeParent=1;resizeParentMax=0;resizeLast=0;collapsible=1;marginBottom=0;align=center;fontSize=14;fillColor=#FFCCE6;strokeColor=#b85450;" parent="1" vertex="1">
          <mxGeometry x="1160" y="-888" width="200" height="104" as="geometry" />
        </mxCell>
        <mxCell id="_0oobIRNl8wnkdukzj8S-33" value="Id" style="text;strokeColor=none;fillColor=none;spacingLeft=4;spacingRight=4;overflow=hidden;rotatable=0;points=[[0,0.5],[1,0.5]];portConstraint=eastwest;fontSize=12;" parent="_0oobIRNl8wnkdukzj8S-32" vertex="1">
          <mxGeometry y="26" width="200" height="26" as="geometry" />
        </mxCell>
        <mxCell id="_0oobIRNl8wnkdukzj8S-34" value="Code" style="text;strokeColor=none;fillColor=none;spacingLeft=4;spacingRight=4;overflow=hidden;rotatable=0;points=[[0,0.5],[1,0.5]];portConstraint=eastwest;fontSize=12;" parent="_0oobIRNl8wnkdukzj8S-32" vertex="1">
          <mxGeometry y="52" width="200" height="26" as="geometry" />
        </mxCell>
        <mxCell id="_0oobIRNl8wnkdukzj8S-35" value="Amount" style="text;strokeColor=none;fillColor=none;spacingLeft=4;spacingRight=4;overflow=hidden;rotatable=0;points=[[0,0.5],[1,0.5]];portConstraint=eastwest;fontSize=12;" parent="_0oobIRNl8wnkdukzj8S-32" vertex="1">
          <mxGeometry y="78" width="200" height="26" as="geometry" />
        </mxCell>
        <mxCell id="4bJShYl02M1BMANjru1z-21" value="OrderPlanCoverage" style="swimlane;fontStyle=0;childLayout=stackLayout;horizontal=1;startSize=26;horizontalStack=0;resizeParent=1;resizeParentMax=0;resizeLast=0;collapsible=1;marginBottom=0;align=center;fontSize=14;fillColor=#FFCCE6;strokeColor=#b85450;" parent="1" vertex="1">
          <mxGeometry x="900" y="-453.5" width="160" height="52" as="geometry" />
        </mxCell>
        <mxCell id="4bJShYl02M1BMANjru1z-22" value="Id" style="text;strokeColor=none;fillColor=none;spacingLeft=4;spacingRight=4;overflow=hidden;rotatable=0;points=[[0,0.5],[1,0.5]];portConstraint=eastwest;fontSize=12;" parent="4bJShYl02M1BMANjru1z-21" vertex="1">
          <mxGeometry y="26" width="160" height="26" as="geometry" />
        </mxCell>
        <mxCell id="gXIctKyo1TDuMm2zsvnv-65" value="OrderItem" style="swimlane;fontStyle=0;childLayout=stackLayout;horizontal=1;startSize=26;horizontalStack=0;resizeParent=1;resizeParentMax=0;resizeLast=0;collapsible=1;marginBottom=0;align=center;fontSize=14;fillColor=#FFCCE6;strokeColor=#b85450;" parent="1" vertex="1">
          <mxGeometry x="1160" y="-390.5" width="200" height="156" as="geometry" />
        </mxCell>
        <mxCell id="gXIctKyo1TDuMm2zsvnv-66" value="Id" style="text;strokeColor=none;fillColor=none;spacingLeft=4;spacingRight=4;overflow=hidden;rotatable=0;points=[[0,0.5],[1,0.5]];portConstraint=eastwest;fontSize=12;" parent="gXIctKyo1TDuMm2zsvnv-65" vertex="1">
          <mxGeometry y="26" width="200" height="26" as="geometry" />
        </mxCell>
        <mxCell id="gXIctKyo1TDuMm2zsvnv-237" value="Line" style="text;strokeColor=none;fillColor=none;spacingLeft=4;spacingRight=4;overflow=hidden;rotatable=0;points=[[0,0.5],[1,0.5]];portConstraint=eastwest;fontSize=12;" parent="gXIctKyo1TDuMm2zsvnv-65" vertex="1">
          <mxGeometry y="52" width="200" height="26" as="geometry" />
        </mxCell>
        <mxCell id="4bJShYl02M1BMANjru1z-48" value="Price" style="text;strokeColor=none;fillColor=none;spacingLeft=4;spacingRight=4;overflow=hidden;rotatable=0;points=[[0,0.5],[1,0.5]];portConstraint=eastwest;fontSize=12;" parent="gXIctKyo1TDuMm2zsvnv-65" vertex="1">
          <mxGeometry y="78" width="200" height="26" as="geometry" />
        </mxCell>
        <mxCell id="6ihYg4v1iRG9pjWXqvsw-4" value="Discount" style="text;strokeColor=none;fillColor=none;spacingLeft=4;spacingRight=4;overflow=hidden;rotatable=0;points=[[0,0.5],[1,0.5]];portConstraint=eastwest;fontSize=12;" parent="gXIctKyo1TDuMm2zsvnv-65" vertex="1">
          <mxGeometry y="104" width="200" height="26" as="geometry" />
        </mxCell>
        <mxCell id="WDwS9hlg-Zl9L9CRXzQi-96" value="IsDropLead" style="text;strokeColor=none;fillColor=none;spacingLeft=4;spacingRight=4;overflow=hidden;rotatable=0;points=[[0,0.5],[1,0.5]];portConstraint=eastwest;fontSize=12;" parent="gXIctKyo1TDuMm2zsvnv-65" vertex="1">
          <mxGeometry y="130" width="200" height="26" as="geometry" />
        </mxCell>
        <mxCell id="gXIctKyo1TDuMm2zsvnv-182" value="Question" style="swimlane;fontStyle=0;childLayout=stackLayout;horizontal=1;startSize=26;horizontalStack=0;resizeParent=1;resizeParentMax=0;resizeLast=0;collapsible=1;marginBottom=0;align=center;fontSize=14;fillColor=#e1d5e7;strokeColor=#9673a6;" parent="1" vertex="1">
          <mxGeometry x="2330" y="-602" width="160" height="78" as="geometry" />
        </mxCell>
        <mxCell id="gXIctKyo1TDuMm2zsvnv-183" value="Id" style="text;strokeColor=none;fillColor=none;spacingLeft=4;spacingRight=4;overflow=hidden;rotatable=0;points=[[0,0.5],[1,0.5]];portConstraint=eastwest;fontSize=12;" parent="gXIctKyo1TDuMm2zsvnv-182" vertex="1">
          <mxGeometry y="26" width="160" height="26" as="geometry" />
        </mxCell>
        <mxCell id="gXIctKyo1TDuMm2zsvnv-184" value="Name" style="text;strokeColor=none;fillColor=none;spacingLeft=4;spacingRight=4;overflow=hidden;rotatable=0;points=[[0,0.5],[1,0.5]];portConstraint=eastwest;fontSize=12;" parent="gXIctKyo1TDuMm2zsvnv-182" vertex="1">
          <mxGeometry y="52" width="160" height="26" as="geometry" />
        </mxCell>
        <mxCell id="gXIctKyo1TDuMm2zsvnv-175" value="QuestionItem" style="swimlane;fontStyle=0;childLayout=stackLayout;horizontal=1;startSize=26;horizontalStack=0;resizeParent=1;resizeParentMax=0;resizeLast=0;collapsible=1;marginBottom=0;align=center;fontSize=14;fillColor=#e1d5e7;strokeColor=#9673a6;" parent="1" vertex="1">
          <mxGeometry x="2330" y="-475" width="160" height="78" as="geometry" />
        </mxCell>
        <mxCell id="gXIctKyo1TDuMm2zsvnv-176" value="Id" style="text;strokeColor=none;fillColor=none;spacingLeft=4;spacingRight=4;overflow=hidden;rotatable=0;points=[[0,0.5],[1,0.5]];portConstraint=eastwest;fontSize=12;" parent="gXIctKyo1TDuMm2zsvnv-175" vertex="1">
          <mxGeometry y="26" width="160" height="26" as="geometry" />
        </mxCell>
        <mxCell id="gXIctKyo1TDuMm2zsvnv-177" value="Title" style="text;strokeColor=none;fillColor=none;spacingLeft=4;spacingRight=4;overflow=hidden;rotatable=0;points=[[0,0.5],[1,0.5]];portConstraint=eastwest;fontSize=12;" parent="gXIctKyo1TDuMm2zsvnv-175" vertex="1">
          <mxGeometry y="52" width="160" height="26" as="geometry" />
        </mxCell>
        <mxCell id="5tScs2i6ls9q81FOWfNb-20" value="QuestionItemChoice" style="swimlane;fontStyle=0;childLayout=stackLayout;horizontal=1;startSize=26;horizontalStack=0;resizeParent=1;resizeParentMax=0;resizeLast=0;collapsible=1;marginBottom=0;align=center;fontSize=14;fillColor=#e1d5e7;strokeColor=#9673a6;" parent="1" vertex="1">
          <mxGeometry x="2330" y="-345" width="160" height="52" as="geometry" />
        </mxCell>
        <mxCell id="5tScs2i6ls9q81FOWfNb-21" value="Id" style="text;strokeColor=none;fillColor=none;spacingLeft=4;spacingRight=4;overflow=hidden;rotatable=0;points=[[0,0.5],[1,0.5]];portConstraint=eastwest;fontSize=12;" parent="5tScs2i6ls9q81FOWfNb-20" vertex="1">
          <mxGeometry y="26" width="160" height="26" as="geometry" />
        </mxCell>
        <mxCell id="gXIctKyo1TDuMm2zsvnv-178" value="QuestionChoice" style="swimlane;fontStyle=0;childLayout=stackLayout;horizontal=1;startSize=26;horizontalStack=0;resizeParent=1;resizeParentMax=0;resizeLast=0;collapsible=1;marginBottom=0;align=center;fontSize=14;fillColor=#e1d5e7;strokeColor=#9673a6;" parent="1" vertex="1">
          <mxGeometry x="2330" y="-235" width="160" height="78" as="geometry" />
        </mxCell>
        <mxCell id="gXIctKyo1TDuMm2zsvnv-179" value="Id" style="text;strokeColor=none;fillColor=none;spacingLeft=4;spacingRight=4;overflow=hidden;rotatable=0;points=[[0,0.5],[1,0.5]];portConstraint=eastwest;fontSize=12;" parent="gXIctKyo1TDuMm2zsvnv-178" vertex="1">
          <mxGeometry y="26" width="160" height="26" as="geometry" />
        </mxCell>
        <mxCell id="gXIctKyo1TDuMm2zsvnv-180" value="Title" style="text;strokeColor=none;fillColor=none;spacingLeft=4;spacingRight=4;overflow=hidden;rotatable=0;points=[[0,0.5],[1,0.5]];portConstraint=eastwest;fontSize=12;" parent="gXIctKyo1TDuMm2zsvnv-178" vertex="1">
          <mxGeometry y="52" width="160" height="26" as="geometry" />
        </mxCell>
        <mxCell id="ImBsleZGgYlZifHgSxJx-4" value="" style="edgeStyle=orthogonalEdgeStyle;fontSize=12;html=1;endArrow=ERmany;" parent="1" source="gXIctKyo1TDuMm2zsvnv-175" target="ImBsleZGgYlZifHgSxJx-1" edge="1">
          <mxGeometry width="100" height="100" relative="1" as="geometry">
            <mxPoint x="2100" y="-240" as="sourcePoint" />
            <mxPoint x="2200" y="-340" as="targetPoint" />
          </mxGeometry>
        </mxCell>
        <mxCell id="ImBsleZGgYlZifHgSxJx-5" value="" style="edgeStyle=orthogonalEdgeStyle;fontSize=12;html=1;endArrow=ERmany;" parent="1" source="5tScs2i6ls9q81FOWfNb-20" target="ImBsleZGgYlZifHgSxJx-1" edge="1">
          <mxGeometry width="100" height="100" relative="1" as="geometry">
            <mxPoint x="2120" y="-210" as="sourcePoint" />
            <mxPoint x="2220" y="-310" as="targetPoint" />
          </mxGeometry>
        </mxCell>
        <mxCell id="ImBsleZGgYlZifHgSxJx-1" value="QuestionItemChoiceDefault" style="swimlane;fontStyle=0;childLayout=stackLayout;horizontal=1;startSize=26;horizontalStack=0;resizeParent=1;resizeParentMax=0;resizeLast=0;collapsible=1;marginBottom=0;align=center;fontSize=14;fillColor=#e1d5e7;strokeColor=#9673a6;" parent="1" vertex="1">
          <mxGeometry x="2032.5" y="-462" width="220" height="52" as="geometry" />
        </mxCell>
        <mxCell id="ImBsleZGgYlZifHgSxJx-2" value="Id" style="text;strokeColor=none;fillColor=none;spacingLeft=4;spacingRight=4;overflow=hidden;rotatable=0;points=[[0,0.5],[1,0.5]];portConstraint=eastwest;fontSize=12;" parent="ImBsleZGgYlZifHgSxJx-1" vertex="1">
          <mxGeometry y="26" width="220" height="26" as="geometry" />
        </mxCell>
        <mxCell id="zbo5BHDHcFBrp6IUXttY-7" value="" style="edgeStyle=orthogonalEdgeStyle;fontSize=12;html=1;endArrow=ERmany;" parent="1" source="zbo5BHDHcFBrp6IUXttY-4" target="_0oobIRNl8wnkdukzj8S-80" edge="1">
          <mxGeometry width="100" height="100" relative="1" as="geometry">
            <mxPoint x="-10" y="-905" as="sourcePoint" />
            <mxPoint x="90" y="-1005" as="targetPoint" />
          </mxGeometry>
        </mxCell>
        <mxCell id="zbo5BHDHcFBrp6IUXttY-20" value="" style="edgeStyle=orthogonalEdgeStyle;fontSize=12;html=1;endArrow=ERmany;entryX=0.5;entryY=0;entryDx=0;entryDy=0;" parent="1" source="zbo5BHDHcFBrp6IUXttY-1" target="zbo5BHDHcFBrp6IUXttY-15" edge="1">
          <mxGeometry width="100" height="100" relative="1" as="geometry">
            <mxPoint x="90" y="-515" as="sourcePoint" />
            <mxPoint x="190" y="-615" as="targetPoint" />
          </mxGeometry>
        </mxCell>
        <mxCell id="zbo5BHDHcFBrp6IUXttY-21" value="" style="edgeStyle=orthogonalEdgeStyle;fontSize=12;html=1;endArrow=ERmany;exitX=0.25;exitY=0;exitDx=0;exitDy=0;" parent="1" source="gXIctKyo1TDuMm2zsvnv-8" target="zbo5BHDHcFBrp6IUXttY-15" edge="1">
          <mxGeometry width="100" height="100" relative="1" as="geometry">
            <mxPoint x="110" y="-535" as="sourcePoint" />
            <mxPoint x="210" y="-635" as="targetPoint" />
          </mxGeometry>
        </mxCell>
        <mxCell id="zbo5BHDHcFBrp6IUXttY-26" value="" style="edgeStyle=entityRelationEdgeStyle;fontSize=12;html=1;endArrow=ERmany;" parent="1" source="zbo5BHDHcFBrp6IUXttY-1" target="zbo5BHDHcFBrp6IUXttY-22" edge="1">
          <mxGeometry width="100" height="100" relative="1" as="geometry">
            <mxPoint x="-390" y="-405" as="sourcePoint" />
            <mxPoint x="-290" y="-505" as="targetPoint" />
          </mxGeometry>
        </mxCell>
        <mxCell id="zbo5BHDHcFBrp6IUXttY-30" value="" style="edgeStyle=orthogonalEdgeStyle;fontSize=12;html=1;endArrow=ERmany;entryX=0.5;entryY=0;entryDx=0;entryDy=0;" parent="1" source="zbo5BHDHcFBrp6IUXttY-22" target="zbo5BHDHcFBrp6IUXttY-27" edge="1">
          <mxGeometry width="100" height="100" relative="1" as="geometry">
            <mxPoint x="-330" y="-265" as="sourcePoint" />
            <mxPoint x="-230" y="-365" as="targetPoint" />
          </mxGeometry>
        </mxCell>
        <mxCell id="zbo5BHDHcFBrp6IUXttY-37" value="" style="edgeStyle=orthogonalEdgeStyle;fontSize=12;html=1;endArrow=ERmany;" parent="1" source="zbo5BHDHcFBrp6IUXttY-1" target="zbo5BHDHcFBrp6IUXttY-31" edge="1">
          <mxGeometry width="100" height="100" relative="1" as="geometry">
            <mxPoint x="-450" y="5" as="sourcePoint" />
            <mxPoint x="-350" y="-95" as="targetPoint" />
            <Array as="points">
              <mxPoint x="-220" y="-615" />
              <mxPoint x="-220" y="-221" />
            </Array>
          </mxGeometry>
        </mxCell>
        <mxCell id="gXIctKyo1TDuMm2zsvnv-115" value="Address" style="swimlane;fontStyle=0;childLayout=stackLayout;horizontal=1;startSize=26;horizontalStack=0;resizeParent=1;resizeParentMax=0;resizeLast=0;collapsible=1;marginBottom=0;align=center;fontSize=14;fillColor=#dae8fc;strokeColor=#6c8ebf;" parent="1" vertex="1">
          <mxGeometry x="1980" y="-110" width="160" height="234" as="geometry" />
        </mxCell>
        <mxCell id="gXIctKyo1TDuMm2zsvnv-116" value="Id" style="text;strokeColor=none;fillColor=none;spacingLeft=4;spacingRight=4;overflow=hidden;rotatable=0;points=[[0,0.5],[1,0.5]];portConstraint=eastwest;fontSize=12;" parent="gXIctKyo1TDuMm2zsvnv-115" vertex="1">
          <mxGeometry y="26" width="160" height="26" as="geometry" />
        </mxCell>
        <mxCell id="gXIctKyo1TDuMm2zsvnv-126" value="Road" style="text;strokeColor=none;fillColor=none;spacingLeft=4;spacingRight=4;overflow=hidden;rotatable=0;points=[[0,0.5],[1,0.5]];portConstraint=eastwest;fontSize=12;" parent="gXIctKyo1TDuMm2zsvnv-115" vertex="1">
          <mxGeometry y="52" width="160" height="26" as="geometry" />
        </mxCell>
        <mxCell id="gXIctKyo1TDuMm2zsvnv-128" value="Province" style="text;strokeColor=none;fillColor=none;spacingLeft=4;spacingRight=4;overflow=hidden;rotatable=0;points=[[0,0.5],[1,0.5]];portConstraint=eastwest;fontSize=12;" parent="gXIctKyo1TDuMm2zsvnv-115" vertex="1">
          <mxGeometry y="78" width="160" height="26" as="geometry" />
        </mxCell>
        <mxCell id="gXIctKyo1TDuMm2zsvnv-127" value="District" style="text;strokeColor=none;fillColor=none;spacingLeft=4;spacingRight=4;overflow=hidden;rotatable=0;points=[[0,0.5],[1,0.5]];portConstraint=eastwest;fontSize=12;" parent="gXIctKyo1TDuMm2zsvnv-115" vertex="1">
          <mxGeometry y="104" width="160" height="26" as="geometry" />
        </mxCell>
        <mxCell id="_0oobIRNl8wnkdukzj8S-76" value="SubDistrict" style="text;strokeColor=none;fillColor=none;spacingLeft=4;spacingRight=4;overflow=hidden;rotatable=0;points=[[0,0.5],[1,0.5]];portConstraint=eastwest;fontSize=12;" parent="gXIctKyo1TDuMm2zsvnv-115" vertex="1">
          <mxGeometry y="130" width="160" height="26" as="geometry" />
        </mxCell>
        <mxCell id="4bJShYl02M1BMANjru1z-11" value="PostalCode" style="text;strokeColor=none;fillColor=none;spacingLeft=4;spacingRight=4;overflow=hidden;rotatable=0;points=[[0,0.5],[1,0.5]];portConstraint=eastwest;fontSize=12;" parent="gXIctKyo1TDuMm2zsvnv-115" vertex="1">
          <mxGeometry y="156" width="160" height="26" as="geometry" />
        </mxCell>
        <mxCell id="_0oobIRNl8wnkdukzj8S-77" value="EffectiveFromDate" style="text;strokeColor=none;fillColor=none;spacingLeft=4;spacingRight=4;overflow=hidden;rotatable=0;points=[[0,0.5],[1,0.5]];portConstraint=eastwest;fontSize=12;" parent="gXIctKyo1TDuMm2zsvnv-115" vertex="1">
          <mxGeometry y="182" width="160" height="26" as="geometry" />
        </mxCell>
        <mxCell id="4bJShYl02M1BMANjru1z-12" value="EffectiveToDate" style="text;strokeColor=none;fillColor=none;spacingLeft=4;spacingRight=4;overflow=hidden;rotatable=0;points=[[0,0.5],[1,0.5]];portConstraint=eastwest;fontSize=12;" parent="gXIctKyo1TDuMm2zsvnv-115" vertex="1">
          <mxGeometry y="208" width="160" height="26" as="geometry" />
        </mxCell>
        <mxCell id="gXIctKyo1TDuMm2zsvnv-120" value="AddressType" style="swimlane;fontStyle=0;childLayout=stackLayout;horizontal=1;startSize=26;horizontalStack=0;resizeParent=1;resizeParentMax=0;resizeLast=0;collapsible=1;marginBottom=0;align=center;fontSize=14;fillColor=#dae8fc;strokeColor=#6c8ebf;" parent="1" vertex="1">
          <mxGeometry x="2240" y="-32" width="160" height="78" as="geometry" />
        </mxCell>
        <mxCell id="gXIctKyo1TDuMm2zsvnv-121" value="Id" style="text;strokeColor=none;fillColor=none;spacingLeft=4;spacingRight=4;overflow=hidden;rotatable=0;points=[[0,0.5],[1,0.5]];portConstraint=eastwest;fontSize=12;" parent="gXIctKyo1TDuMm2zsvnv-120" vertex="1">
          <mxGeometry y="26" width="160" height="26" as="geometry" />
        </mxCell>
        <mxCell id="gXIctKyo1TDuMm2zsvnv-122" value="Name {  CONTACT }" style="text;strokeColor=none;fillColor=none;spacingLeft=4;spacingRight=4;overflow=hidden;rotatable=0;points=[[0,0.5],[1,0.5]];portConstraint=eastwest;fontSize=12;" parent="gXIctKyo1TDuMm2zsvnv-120" vertex="1">
          <mxGeometry y="52" width="160" height="26" as="geometry" />
        </mxCell>
        <mxCell id="_0oobIRNl8wnkdukzj8S-52" value="PartyIdentity" style="swimlane;fontStyle=0;childLayout=stackLayout;horizontal=1;startSize=26;horizontalStack=0;resizeParent=1;resizeParentMax=0;resizeLast=0;collapsible=1;marginBottom=0;align=center;fontSize=14;fillColor=#dae8fc;strokeColor=#6c8ebf;" parent="1" vertex="1">
          <mxGeometry x="1680" y="-24" width="160" height="130" as="geometry" />
        </mxCell>
        <mxCell id="_0oobIRNl8wnkdukzj8S-53" value="Id" style="text;strokeColor=none;fillColor=none;spacingLeft=4;spacingRight=4;overflow=hidden;rotatable=0;points=[[0,0.5],[1,0.5]];portConstraint=eastwest;fontSize=12;" parent="_0oobIRNl8wnkdukzj8S-52" vertex="1">
          <mxGeometry y="26" width="160" height="26" as="geometry" />
        </mxCell>
        <mxCell id="_0oobIRNl8wnkdukzj8S-54" value="Value" style="text;strokeColor=none;fillColor=none;spacingLeft=4;spacingRight=4;overflow=hidden;rotatable=0;points=[[0,0.5],[1,0.5]];portConstraint=eastwest;fontSize=12;" parent="_0oobIRNl8wnkdukzj8S-52" vertex="1">
          <mxGeometry y="52" width="160" height="26" as="geometry" />
        </mxCell>
        <mxCell id="_0oobIRNl8wnkdukzj8S-66" value="EffectiveFromDate" style="text;strokeColor=none;fillColor=none;spacingLeft=4;spacingRight=4;overflow=hidden;rotatable=0;points=[[0,0.5],[1,0.5]];portConstraint=eastwest;fontSize=12;" parent="_0oobIRNl8wnkdukzj8S-52" vertex="1">
          <mxGeometry y="78" width="160" height="26" as="geometry" />
        </mxCell>
        <mxCell id="_0oobIRNl8wnkdukzj8S-67" value="EffectiveToDate" style="text;strokeColor=none;fillColor=none;spacingLeft=4;spacingRight=4;overflow=hidden;rotatable=0;points=[[0,0.5],[1,0.5]];portConstraint=eastwest;fontSize=12;" parent="_0oobIRNl8wnkdukzj8S-52" vertex="1">
          <mxGeometry y="104" width="160" height="26" as="geometry" />
        </mxCell>
        <mxCell id="_0oobIRNl8wnkdukzj8S-68" value="PartyIdentityType" style="swimlane;fontStyle=0;childLayout=stackLayout;horizontal=1;startSize=26;horizontalStack=0;resizeParent=1;resizeParentMax=0;resizeLast=0;collapsible=1;marginBottom=0;align=center;fontSize=14;fillColor=#dae8fc;strokeColor=#6c8ebf;" parent="1" vertex="1">
          <mxGeometry x="1360" y="2" width="250" height="78" as="geometry" />
        </mxCell>
        <mxCell id="_0oobIRNl8wnkdukzj8S-69" value="Id" style="text;strokeColor=none;fillColor=none;spacingLeft=4;spacingRight=4;overflow=hidden;rotatable=0;points=[[0,0.5],[1,0.5]];portConstraint=eastwest;fontSize=12;" parent="_0oobIRNl8wnkdukzj8S-68" vertex="1">
          <mxGeometry y="26" width="250" height="26" as="geometry" />
        </mxCell>
        <mxCell id="_0oobIRNl8wnkdukzj8S-70" value="Name { CITIZEN_ID, PASSPORT, TAX_ID  }" style="text;strokeColor=none;fillColor=none;spacingLeft=4;spacingRight=4;overflow=hidden;rotatable=0;points=[[0,0.5],[1,0.5]];portConstraint=eastwest;fontSize=12;" parent="_0oobIRNl8wnkdukzj8S-68" vertex="1">
          <mxGeometry y="52" width="250" height="26" as="geometry" />
        </mxCell>
        <mxCell id="THhi0MXmiFV5PUiAw02N-2" value="" style="edgeStyle=orthogonalEdgeStyle;fontSize=12;html=1;endArrow=ERmany;dashed=1;" parent="1" source="gXIctKyo1TDuMm2zsvnv-65" target="THhi0MXmiFV5PUiAw02N-4" edge="1">
          <mxGeometry width="100" height="100" relative="1" as="geometry">
            <mxPoint x="2090" y="-740" as="sourcePoint" />
            <mxPoint x="2290" y="-740" as="targetPoint" />
            <Array as="points">
              <mxPoint x="1960" y="-300" />
              <mxPoint x="1960" y="-741" />
            </Array>
          </mxGeometry>
        </mxCell>
        <mxCell id="5tScs2i6ls9q81FOWfNb-1" value="Policy" style="swimlane;fontStyle=0;childLayout=stackLayout;horizontal=1;startSize=26;horizontalStack=0;resizeParent=1;resizeParentMax=0;resizeLast=0;collapsible=1;marginBottom=0;align=center;fontSize=14;fillColor=#e1d5e7;strokeColor=#9673a6;" parent="1" vertex="1">
          <mxGeometry x="2592.5" y="-780" width="197.5" height="104" as="geometry" />
        </mxCell>
        <mxCell id="5tScs2i6ls9q81FOWfNb-2" value="Id" style="text;strokeColor=none;fillColor=none;spacingLeft=4;spacingRight=4;overflow=hidden;rotatable=0;points=[[0,0.5],[1,0.5]];portConstraint=eastwest;fontSize=12;" parent="5tScs2i6ls9q81FOWfNb-1" vertex="1">
          <mxGeometry y="26" width="197.5" height="26" as="geometry" />
        </mxCell>
        <mxCell id="4bJShYl02M1BMANjru1z-29" value="EffectiveDate" style="text;strokeColor=none;fillColor=none;spacingLeft=4;spacingRight=4;overflow=hidden;rotatable=0;points=[[0,0.5],[1,0.5]];portConstraint=eastwest;fontSize=12;" parent="5tScs2i6ls9q81FOWfNb-1" vertex="1">
          <mxGeometry y="52" width="197.5" height="26" as="geometry" />
        </mxCell>
        <mxCell id="WDwS9hlg-Zl9L9CRXzQi-77" value="IsSendPolicyToContactAddress" style="text;strokeColor=none;fillColor=none;spacingLeft=4;spacingRight=4;overflow=hidden;rotatable=0;points=[[0,0.5],[1,0.5]];portConstraint=eastwest;fontSize=12;" parent="5tScs2i6ls9q81FOWfNb-1" vertex="1">
          <mxGeometry y="78" width="197.5" height="26" as="geometry" />
        </mxCell>
        <mxCell id="THhi0MXmiFV5PUiAw02N-9" value="" style="edgeStyle=orthogonalEdgeStyle;fontSize=12;html=1;endArrow=ERmany;" parent="1" source="5tScs2i6ls9q81FOWfNb-1" target="THhi0MXmiFV5PUiAw02N-4" edge="1">
          <mxGeometry width="100" height="100" relative="1" as="geometry">
            <mxPoint x="2360" y="-720" as="sourcePoint" />
            <mxPoint x="2460" y="-820" as="targetPoint" />
            <Array as="points">
              <mxPoint x="2560" y="-732" />
              <mxPoint x="2560" y="-732" />
            </Array>
          </mxGeometry>
        </mxCell>
        <mxCell id="THhi0MXmiFV5PUiAw02N-12" value="" style="edgeStyle=orthogonalEdgeStyle;fontSize=12;html=1;endArrow=none;startArrow=ERmany;startFill=0;endFill=0;" parent="1" source="gXIctKyo1TDuMm2zsvnv-8" target="_0oobIRNl8wnkdukzj8S-84" edge="1">
          <mxGeometry width="100" height="100" relative="1" as="geometry">
            <mxPoint x="630" y="-645" as="sourcePoint" />
            <mxPoint x="730" y="-745" as="targetPoint" />
            <Array as="points">
              <mxPoint x="140" y="-265" />
              <mxPoint x="140" y="-765" />
              <mxPoint x="430" y="-765" />
            </Array>
          </mxGeometry>
        </mxCell>
        <mxCell id="THhi0MXmiFV5PUiAw02N-13" value="" style="edgeStyle=orthogonalEdgeStyle;fontSize=12;html=1;endArrow=ERmany;" parent="1" source="zbo5BHDHcFBrp6IUXttY-4" target="zbo5BHDHcFBrp6IUXttY-1" edge="1">
          <mxGeometry width="100" height="100" relative="1" as="geometry">
            <mxPoint x="-120" y="-685" as="sourcePoint" />
            <mxPoint x="-20" y="-785" as="targetPoint" />
          </mxGeometry>
        </mxCell>
        <mxCell id="THhi0MXmiFV5PUiAw02N-17" value="" style="edgeStyle=orthogonalEdgeStyle;fontSize=12;html=1;endArrow=ERone;endFill=1;" parent="1" source="gXIctKyo1TDuMm2zsvnv-101" target="THhi0MXmiFV5PUiAw02N-14" edge="1">
          <mxGeometry width="100" height="100" relative="1" as="geometry">
            <mxPoint x="1540" y="630" as="sourcePoint" />
            <mxPoint x="1640" y="530" as="targetPoint" />
            <Array as="points">
              <mxPoint x="1840" y="300" />
              <mxPoint x="1750" y="300" />
            </Array>
          </mxGeometry>
        </mxCell>
        <mxCell id="gXIctKyo1TDuMm2zsvnv-62" value="Order" style="swimlane;fontStyle=0;childLayout=stackLayout;horizontal=1;startSize=26;horizontalStack=0;resizeParent=1;resizeParentMax=0;resizeLast=0;collapsible=1;marginBottom=0;align=center;fontSize=14;fillColor=#FFCCE6;strokeColor=#b85450;" parent="1" vertex="1">
          <mxGeometry x="1120" y="-687.5" width="280" height="260" as="geometry" />
        </mxCell>
        <mxCell id="gXIctKyo1TDuMm2zsvnv-63" value="Id" style="text;strokeColor=none;fillColor=none;spacingLeft=4;spacingRight=4;overflow=hidden;rotatable=0;points=[[0,0.5],[1,0.5]];portConstraint=eastwest;fontSize=12;" parent="gXIctKyo1TDuMm2zsvnv-62" vertex="1">
          <mxGeometry y="26" width="280" height="26" as="geometry" />
        </mxCell>
        <mxCell id="THhi0MXmiFV5PUiAw02N-10" value="Number" style="text;strokeColor=none;fillColor=none;spacingLeft=4;spacingRight=4;overflow=hidden;rotatable=0;points=[[0,0.5],[1,0.5]];portConstraint=eastwest;fontSize=12;" parent="gXIctKyo1TDuMm2zsvnv-62" vertex="1">
          <mxGeometry y="52" width="280" height="26" as="geometry" />
        </mxCell>
        <mxCell id="4bJShYl02M1BMANjru1z-47" value="Seq" style="text;strokeColor=none;fillColor=none;spacingLeft=4;spacingRight=4;overflow=hidden;rotatable=0;points=[[0,0.5],[1,0.5]];portConstraint=eastwest;fontSize=12;" parent="gXIctKyo1TDuMm2zsvnv-62" vertex="1">
          <mxGeometry y="78" width="280" height="26" as="geometry" />
        </mxCell>
        <mxCell id="gXIctKyo1TDuMm2zsvnv-68" value="Status { PENDING, DELIVERED, CANCELLED}" style="text;strokeColor=none;fillColor=none;spacingLeft=4;spacingRight=4;overflow=hidden;rotatable=0;points=[[0,0.5],[1,0.5]];portConstraint=eastwest;fontSize=12;" parent="gXIctKyo1TDuMm2zsvnv-62" vertex="1">
          <mxGeometry y="104" width="280" height="26" as="geometry" />
        </mxCell>
        <mxCell id="_0oobIRNl8wnkdukzj8S-18" value="OrderedFrom" style="text;strokeColor=none;fillColor=none;spacingLeft=4;spacingRight=4;overflow=hidden;rotatable=0;points=[[0,0.5],[1,0.5]];portConstraint=eastwest;fontSize=12;" parent="gXIctKyo1TDuMm2zsvnv-62" vertex="1">
          <mxGeometry y="130" width="280" height="26" as="geometry" />
        </mxCell>
        <mxCell id="_0oobIRNl8wnkdukzj8S-19" value="Price" style="text;strokeColor=none;fillColor=none;spacingLeft=4;spacingRight=4;overflow=hidden;rotatable=0;points=[[0,0.5],[1,0.5]];portConstraint=eastwest;fontSize=12;" parent="gXIctKyo1TDuMm2zsvnv-62" vertex="1">
          <mxGeometry y="156" width="280" height="26" as="geometry" />
        </mxCell>
        <mxCell id="6ihYg4v1iRG9pjWXqvsw-3" value="Discount" style="text;strokeColor=none;fillColor=none;spacingLeft=4;spacingRight=4;overflow=hidden;rotatable=0;points=[[0,0.5],[1,0.5]];portConstraint=eastwest;fontSize=12;" parent="gXIctKyo1TDuMm2zsvnv-62" vertex="1">
          <mxGeometry y="182" width="280" height="26" as="geometry" />
        </mxCell>
        <mxCell id="4bJShYl02M1BMANjru1z-16" value="Quantity" style="text;strokeColor=none;fillColor=none;spacingLeft=4;spacingRight=4;overflow=hidden;rotatable=0;points=[[0,0.5],[1,0.5]];portConstraint=eastwest;fontSize=12;" parent="gXIctKyo1TDuMm2zsvnv-62" vertex="1">
          <mxGeometry y="208" width="280" height="26" as="geometry" />
        </mxCell>
        <mxCell id="THhi0MXmiFV5PUiAw02N-20" value="BusinessTypeCode" style="text;strokeColor=none;fillColor=none;spacingLeft=4;spacingRight=4;overflow=hidden;rotatable=0;points=[[0,0.5],[1,0.5]];portConstraint=eastwest;fontSize=12;" parent="gXIctKyo1TDuMm2zsvnv-62" vertex="1">
          <mxGeometry y="234" width="280" height="26" as="geometry" />
        </mxCell>
        <mxCell id="gXIctKyo1TDuMm2zsvnv-91" value="OrderRole" style="swimlane;fontStyle=0;childLayout=stackLayout;horizontal=1;startSize=26;horizontalStack=0;resizeParent=1;resizeParentMax=0;resizeLast=0;collapsible=1;marginBottom=0;align=center;fontSize=14;fillColor=#FFCCE6;strokeColor=#b85450;" parent="1" vertex="1">
          <mxGeometry x="1550" y="-622.5" width="160" height="130" as="geometry" />
        </mxCell>
        <mxCell id="gXIctKyo1TDuMm2zsvnv-92" value="Id" style="text;strokeColor=none;fillColor=none;spacingLeft=4;spacingRight=4;overflow=hidden;rotatable=0;points=[[0,0.5],[1,0.5]];portConstraint=eastwest;fontSize=12;" parent="gXIctKyo1TDuMm2zsvnv-91" vertex="1">
          <mxGeometry y="26" width="160" height="26" as="geometry" />
        </mxCell>
        <mxCell id="gXIctKyo1TDuMm2zsvnv-131" value="EffectiveFromDate" style="text;strokeColor=none;fillColor=none;spacingLeft=4;spacingRight=4;overflow=hidden;rotatable=0;points=[[0,0.5],[1,0.5]];portConstraint=eastwest;fontSize=12;" parent="gXIctKyo1TDuMm2zsvnv-91" vertex="1">
          <mxGeometry y="52" width="160" height="26" as="geometry" />
        </mxCell>
        <mxCell id="gXIctKyo1TDuMm2zsvnv-132" value="EffectiveToDate" style="text;strokeColor=none;fillColor=none;spacingLeft=4;spacingRight=4;overflow=hidden;rotatable=0;points=[[0,0.5],[1,0.5]];portConstraint=eastwest;fontSize=12;" parent="gXIctKyo1TDuMm2zsvnv-91" vertex="1">
          <mxGeometry y="78" width="160" height="26" as="geometry" />
        </mxCell>
        <mxCell id="4bJShYl02M1BMANjru1z-15" value="PartySource" style="text;strokeColor=none;fillColor=none;spacingLeft=4;spacingRight=4;overflow=hidden;rotatable=0;points=[[0,0.5],[1,0.5]];portConstraint=eastwest;fontSize=12;" parent="gXIctKyo1TDuMm2zsvnv-91" vertex="1">
          <mxGeometry y="104" width="160" height="26" as="geometry" />
        </mxCell>
        <mxCell id="gXIctKyo1TDuMm2zsvnv-97" value="OrderRoleType" style="swimlane;fontStyle=0;childLayout=stackLayout;horizontal=1;startSize=26;horizontalStack=0;resizeParent=1;resizeParentMax=0;resizeLast=0;collapsible=1;marginBottom=0;align=center;fontSize=14;fillColor=#FFCCE6;strokeColor=#b85450;" parent="1" vertex="1">
          <mxGeometry x="1445" y="-784" width="370" height="78" as="geometry" />
        </mxCell>
        <mxCell id="gXIctKyo1TDuMm2zsvnv-98" value="Id" style="text;strokeColor=none;fillColor=none;spacingLeft=4;spacingRight=4;overflow=hidden;rotatable=0;points=[[0,0.5],[1,0.5]];portConstraint=eastwest;fontSize=12;" parent="gXIctKyo1TDuMm2zsvnv-97" vertex="1">
          <mxGeometry y="26" width="370" height="26" as="geometry" />
        </mxCell>
        <mxCell id="gXIctKyo1TDuMm2zsvnv-99" value="Name { CUSTOMER, CONTACT, PAYMENT, PAID }" style="text;strokeColor=none;fillColor=none;spacingLeft=4;spacingRight=4;overflow=hidden;rotatable=0;points=[[0,0.5],[1,0.5]];portConstraint=eastwest;fontSize=12;" parent="gXIctKyo1TDuMm2zsvnv-97" vertex="1">
          <mxGeometry y="52" width="370" height="26" as="geometry" />
        </mxCell>
        <mxCell id="KiXoswTGTcqF2VSnwYO5-63" value="" style="edgeStyle=orthogonalEdgeStyle;fontSize=12;html=1;endArrow=ERmany;entryX=0.5;entryY=0;entryDx=0;entryDy=0;" parent="1" source="KiXoswTGTcqF2VSnwYO5-21" target="THhi0MXmiFV5PUiAw02N-21" edge="1">
          <mxGeometry width="100" height="100" relative="1" as="geometry">
            <mxPoint x="1460" y="-1870" as="sourcePoint" />
            <mxPoint x="1560" y="-1970" as="targetPoint" />
          </mxGeometry>
        </mxCell>
        <mxCell id="KiXoswTGTcqF2VSnwYO5-64" value="" style="edgeStyle=orthogonalEdgeStyle;fontSize=12;html=1;endArrow=ERmany;entryX=0.25;entryY=0;entryDx=0;entryDy=0;" parent="1" source="KiXoswTGTcqF2VSnwYO5-43" target="THhi0MXmiFV5PUiAw02N-21" edge="1">
          <mxGeometry width="100" height="100" relative="1" as="geometry">
            <mxPoint x="1455" y="-2034" as="sourcePoint" />
            <mxPoint x="1455" y="-1830" as="targetPoint" />
            <Array as="points">
              <mxPoint x="1393" y="-2000" />
            </Array>
          </mxGeometry>
        </mxCell>
        <mxCell id="KiXoswTGTcqF2VSnwYO5-66" value="" style="edgeStyle=orthogonalEdgeStyle;fontSize=12;html=1;endArrow=ERmany;" parent="1" source="KiXoswTGTcqF2VSnwYO5-37" target="THhi0MXmiFV5PUiAw02N-21" edge="1">
          <mxGeometry width="100" height="100" relative="1" as="geometry">
            <mxPoint x="1465" y="-2024" as="sourcePoint" />
            <mxPoint x="1465" y="-1820" as="targetPoint" />
            <Array as="points">
              <mxPoint x="1210" y="-1810" />
              <mxPoint x="1210" y="-1810" />
            </Array>
          </mxGeometry>
        </mxCell>
        <mxCell id="KiXoswTGTcqF2VSnwYO5-67" value="" style="edgeStyle=orthogonalEdgeStyle;fontSize=12;html=1;endArrow=ERmany;" parent="1" source="KiXoswTGTcqF2VSnwYO5-4" target="THhi0MXmiFV5PUiAw02N-21" edge="1">
          <mxGeometry width="100" height="100" relative="1" as="geometry">
            <mxPoint x="1475" y="-2014" as="sourcePoint" />
            <mxPoint x="1475" y="-1810" as="targetPoint" />
            <Array as="points">
              <mxPoint x="1500" y="-2000" />
            </Array>
          </mxGeometry>
        </mxCell>
        <mxCell id="KiXoswTGTcqF2VSnwYO5-68" value="" style="edgeStyle=orthogonalEdgeStyle;fontSize=12;html=1;endArrow=ERmany;" parent="1" source="KiXoswTGTcqF2VSnwYO5-11" target="THhi0MXmiFV5PUiAw02N-21" edge="1">
          <mxGeometry width="100" height="100" relative="1" as="geometry">
            <mxPoint x="1485" y="-2004" as="sourcePoint" />
            <mxPoint x="1485" y="-1800" as="targetPoint" />
            <Array as="points">
              <mxPoint x="1820" y="-1784" />
              <mxPoint x="1820" y="-1784" />
            </Array>
          </mxGeometry>
        </mxCell>
        <mxCell id="KiXoswTGTcqF2VSnwYO5-69" value="" style="edgeStyle=orthogonalEdgeStyle;fontSize=12;html=1;endArrow=ERmany;" parent="1" source="KiXoswTGTcqF2VSnwYO5-34" target="THhi0MXmiFV5PUiAw02N-21" edge="1">
          <mxGeometry width="100" height="100" relative="1" as="geometry">
            <mxPoint x="1495" y="-1994" as="sourcePoint" />
            <mxPoint x="1495" y="-1790" as="targetPoint" />
            <Array as="points">
              <mxPoint x="1060" y="-1784" />
            </Array>
          </mxGeometry>
        </mxCell>
        <mxCell id="KiXoswTGTcqF2VSnwYO5-70" value="" style="edgeStyle=orthogonalEdgeStyle;fontSize=12;html=1;endArrow=ERmany;" parent="1" source="KiXoswTGTcqF2VSnwYO5-29" target="THhi0MXmiFV5PUiAw02N-21" edge="1">
          <mxGeometry width="100" height="100" relative="1" as="geometry">
            <mxPoint x="1505" y="-1984" as="sourcePoint" />
            <mxPoint x="1505" y="-1780" as="targetPoint" />
            <Array as="points">
              <mxPoint x="1295" y="-1760" />
            </Array>
          </mxGeometry>
        </mxCell>
        <mxCell id="KiXoswTGTcqF2VSnwYO5-71" value="" style="edgeStyle=orthogonalEdgeStyle;fontSize=12;html=1;endArrow=ERmany;" parent="1" source="KiXoswTGTcqF2VSnwYO5-55" target="THhi0MXmiFV5PUiAw02N-21" edge="1">
          <mxGeometry width="100" height="100" relative="1" as="geometry">
            <mxPoint x="1515" y="-1974" as="sourcePoint" />
            <mxPoint x="1515" y="-1770" as="targetPoint" />
            <Array as="points">
              <mxPoint x="1530" y="-1580" />
            </Array>
          </mxGeometry>
        </mxCell>
        <mxCell id="KiXoswTGTcqF2VSnwYO5-72" value="" style="edgeStyle=orthogonalEdgeStyle;fontSize=12;html=1;endArrow=ERmany;" parent="1" source="KiXoswTGTcqF2VSnwYO5-16" target="THhi0MXmiFV5PUiAw02N-21" edge="1">
          <mxGeometry width="100" height="100" relative="1" as="geometry">
            <mxPoint x="1525" y="-1964" as="sourcePoint" />
            <mxPoint x="1525" y="-1760" as="targetPoint" />
            <Array as="points">
              <mxPoint x="1430" y="-1540" />
              <mxPoint x="1430" y="-1540" />
            </Array>
          </mxGeometry>
        </mxCell>
        <mxCell id="9VPl8Ob1ecwuD47OIKzU-8" value="" style="edgeStyle=orthogonalEdgeStyle;fontSize=12;html=1;endArrow=ERmany;" parent="1" source="9VPl8Ob1ecwuD47OIKzU-1" target="5tScs2i6ls9q81FOWfNb-1" edge="1">
          <mxGeometry width="100" height="100" relative="1" as="geometry">
            <mxPoint x="2810" y="-370" as="sourcePoint" />
            <mxPoint x="2910" y="-470" as="targetPoint" />
            <Array as="points">
              <mxPoint x="3020" y="-720" />
              <mxPoint x="3020" y="-720" />
            </Array>
          </mxGeometry>
        </mxCell>
        <mxCell id="17nkkkLWe5lEtefS8qls-22" value="" style="edgeStyle=orthogonalEdgeStyle;fontSize=12;html=1;endArrow=ERmany;" parent="1" source="17nkkkLWe5lEtefS8qls-1" target="17nkkkLWe5lEtefS8qls-12" edge="1">
          <mxGeometry width="100" height="100" relative="1" as="geometry">
            <mxPoint x="445" y="468" as="sourcePoint" />
            <mxPoint x="755" y="488" as="targetPoint" />
            <Array as="points">
              <mxPoint x="410" y="300" />
            </Array>
          </mxGeometry>
        </mxCell>
        <mxCell id="17nkkkLWe5lEtefS8qls-24" value="" style="edgeStyle=orthogonalEdgeStyle;fontSize=12;html=1;endArrow=ERmany;" parent="1" source="17nkkkLWe5lEtefS8qls-40" target="17nkkkLWe5lEtefS8qls-17" edge="1">
          <mxGeometry width="100" height="100" relative="1" as="geometry">
            <mxPoint x="445" y="848" as="sourcePoint" />
            <mxPoint x="545" y="748" as="targetPoint" />
            <Array as="points" />
          </mxGeometry>
        </mxCell>
        <mxCell id="17nkkkLWe5lEtefS8qls-57" value="" style="edgeStyle=orthogonalEdgeStyle;fontSize=12;html=1;endArrow=ERmany;" parent="1" source="KiXoswTGTcqF2VSnwYO5-43" target="17nkkkLWe5lEtefS8qls-48" edge="1">
          <mxGeometry width="100" height="100" relative="1" as="geometry">
            <mxPoint x="800" y="-2110" as="sourcePoint" />
            <mxPoint x="900" y="-2210" as="targetPoint" />
          </mxGeometry>
        </mxCell>
        <mxCell id="17nkkkLWe5lEtefS8qls-65" value="" style="edgeStyle=orthogonalEdgeStyle;fontSize=12;html=1;endArrow=ERmany;" parent="1" source="17nkkkLWe5lEtefS8qls-60" target="17nkkkLWe5lEtefS8qls-1" edge="1">
          <mxGeometry width="100" height="100" relative="1" as="geometry">
            <mxPoint x="155" y="676" as="sourcePoint" />
            <mxPoint x="255" y="576" as="targetPoint" />
          </mxGeometry>
        </mxCell>
        <mxCell id="17nkkkLWe5lEtefS8qls-73" value="" style="edgeStyle=orthogonalEdgeStyle;fontSize=12;html=1;endArrow=ERmany;" parent="1" source="gXIctKyo1TDuMm2zsvnv-62" target="17nkkkLWe5lEtefS8qls-69" edge="1">
          <mxGeometry width="100" height="100" relative="1" as="geometry">
            <mxPoint x="930" y="-810" as="sourcePoint" />
            <mxPoint x="1030" y="-910" as="targetPoint" />
          </mxGeometry>
        </mxCell>
        <mxCell id="17nkkkLWe5lEtefS8qls-69" value="Currency" style="swimlane;fontStyle=0;childLayout=stackLayout;horizontal=1;startSize=26;horizontalStack=0;resizeParent=1;resizeParentMax=0;resizeLast=0;collapsible=1;marginBottom=0;align=center;fontSize=14;fillColor=#FFCCE6;strokeColor=#b85450;" parent="1" vertex="1">
          <mxGeometry x="830" y="-609.5" width="200" height="104" as="geometry" />
        </mxCell>
        <mxCell id="17nkkkLWe5lEtefS8qls-70" value="Id" style="text;strokeColor=none;fillColor=none;spacingLeft=4;spacingRight=4;overflow=hidden;rotatable=0;points=[[0,0.5],[1,0.5]];portConstraint=eastwest;fontSize=12;" parent="17nkkkLWe5lEtefS8qls-69" vertex="1">
          <mxGeometry y="26" width="200" height="26" as="geometry" />
        </mxCell>
        <mxCell id="17nkkkLWe5lEtefS8qls-71" value="Code { THB }" style="text;strokeColor=none;fillColor=none;spacingLeft=4;spacingRight=4;overflow=hidden;rotatable=0;points=[[0,0.5],[1,0.5]];portConstraint=eastwest;fontSize=12;" parent="17nkkkLWe5lEtefS8qls-69" vertex="1">
          <mxGeometry y="52" width="200" height="26" as="geometry" />
        </mxCell>
        <mxCell id="17nkkkLWe5lEtefS8qls-72" value="Name { THAI BAHT }" style="text;strokeColor=none;fillColor=none;spacingLeft=4;spacingRight=4;overflow=hidden;rotatable=0;points=[[0,0.5],[1,0.5]];portConstraint=eastwest;fontSize=12;" parent="17nkkkLWe5lEtefS8qls-69" vertex="1">
          <mxGeometry y="78" width="200" height="26" as="geometry" />
        </mxCell>
        <mxCell id="WDwS9hlg-Zl9L9CRXzQi-13" value="" style="edgeStyle=orthogonalEdgeStyle;fontSize=12;html=1;endArrow=ERmany;dashed=1;" parent="1" source="gXIctKyo1TDuMm2zsvnv-101" target="WDwS9hlg-Zl9L9CRXzQi-20" edge="1">
          <mxGeometry width="100" height="100" relative="1" as="geometry">
            <mxPoint x="1840" y="240" as="sourcePoint" />
            <mxPoint x="535" y="483" as="targetPoint" />
            <Array as="points">
              <mxPoint x="1640" y="240" />
              <mxPoint x="1640" y="564" />
            </Array>
          </mxGeometry>
        </mxCell>
        <mxCell id="THhi0MXmiFV5PUiAw02N-14" value="Agent" style="swimlane;fontStyle=0;childLayout=stackLayout;horizontal=1;startSize=26;horizontalStack=0;resizeParent=1;resizeParentMax=0;resizeLast=0;collapsible=1;marginBottom=0;align=center;fontSize=14;fillColor=#dae8fc;strokeColor=#6c8ebf;" parent="1" vertex="1">
          <mxGeometry x="1670" y="356" width="160" height="78" as="geometry" />
        </mxCell>
        <mxCell id="THhi0MXmiFV5PUiAw02N-15" value="Id" style="text;strokeColor=none;fillColor=none;spacingLeft=4;spacingRight=4;overflow=hidden;rotatable=0;points=[[0,0.5],[1,0.5]];portConstraint=eastwest;fontSize=12;" parent="THhi0MXmiFV5PUiAw02N-14" vertex="1">
          <mxGeometry y="26" width="160" height="26" as="geometry" />
        </mxCell>
        <mxCell id="THhi0MXmiFV5PUiAw02N-16" value="Code" style="text;strokeColor=none;fillColor=none;spacingLeft=4;spacingRight=4;overflow=hidden;rotatable=0;points=[[0,0.5],[1,0.5]];portConstraint=eastwest;fontSize=12;" parent="THhi0MXmiFV5PUiAw02N-14" vertex="1">
          <mxGeometry y="52" width="160" height="26" as="geometry" />
        </mxCell>
        <mxCell id="WDwS9hlg-Zl9L9CRXzQi-16" value="" style="edgeStyle=orthogonalEdgeStyle;fontSize=12;html=1;endArrow=ERmany;" parent="1" source="17nkkkLWe5lEtefS8qls-40" target="17nkkkLWe5lEtefS8qls-1" edge="1">
          <mxGeometry width="100" height="100" relative="1" as="geometry">
            <mxPoint x="1840" y="240" as="sourcePoint" />
            <mxPoint x="535" y="483" as="targetPoint" />
            <Array as="points">
              <mxPoint x="680" y="480" />
            </Array>
          </mxGeometry>
        </mxCell>
        <mxCell id="WDwS9hlg-Zl9L9CRXzQi-62" value="Bill From" style="edgeLabel;html=1;align=center;verticalAlign=middle;resizable=0;points=[];" parent="WDwS9hlg-Zl9L9CRXzQi-16" vertex="1" connectable="0">
          <mxGeometry x="0.084" y="46" relative="1" as="geometry">
            <mxPoint x="-64" y="-28" as="offset" />
          </mxGeometry>
        </mxCell>
        <mxCell id="WDwS9hlg-Zl9L9CRXzQi-28" value="" style="edgeStyle=orthogonalEdgeStyle;fontSize=12;html=1;endArrow=ERmany;" parent="1" source="WDwS9hlg-Zl9L9CRXzQi-24" target="WDwS9hlg-Zl9L9CRXzQi-20" edge="1">
          <mxGeometry width="100" height="100" relative="1" as="geometry">
            <mxPoint x="760" y="690" as="sourcePoint" />
            <mxPoint x="535" y="510" as="targetPoint" />
            <Array as="points">
              <mxPoint x="980" y="630" />
              <mxPoint x="980" y="630" />
            </Array>
          </mxGeometry>
        </mxCell>
        <mxCell id="WDwS9hlg-Zl9L9CRXzQi-29" value="" style="edgeStyle=orthogonalEdgeStyle;fontSize=12;html=1;endArrow=ERmany;" parent="1" source="17nkkkLWe5lEtefS8qls-40" target="WDwS9hlg-Zl9L9CRXzQi-20" edge="1">
          <mxGeometry width="100" height="100" relative="1" as="geometry">
            <mxPoint x="1065" y="703" as="sourcePoint" />
            <mxPoint x="1065" y="626" as="targetPoint" />
            <Array as="points">
              <mxPoint x="700" y="564" />
            </Array>
          </mxGeometry>
        </mxCell>
        <mxCell id="WDwS9hlg-Zl9L9CRXzQi-20" value="BillingAccountRole" style="swimlane;fontStyle=0;childLayout=stackLayout;horizontal=1;startSize=26;horizontalStack=0;resizeParent=1;resizeParentMax=0;resizeLast=0;collapsible=1;marginBottom=0;align=center;fontSize=14;fillColor=#FF9999;strokeColor=#b85450;" parent="1" vertex="1">
          <mxGeometry x="860" y="512" width="200" height="104" as="geometry" />
        </mxCell>
        <mxCell id="WDwS9hlg-Zl9L9CRXzQi-21" value="Id" style="text;strokeColor=none;fillColor=none;spacingLeft=4;spacingRight=4;overflow=hidden;rotatable=0;points=[[0,0.5],[1,0.5]];portConstraint=eastwest;fontSize=12;" parent="WDwS9hlg-Zl9L9CRXzQi-20" vertex="1">
          <mxGeometry y="26" width="200" height="26" as="geometry" />
        </mxCell>
        <mxCell id="WDwS9hlg-Zl9L9CRXzQi-22" value="EffectiveFromDate" style="text;strokeColor=none;fillColor=none;spacingLeft=4;spacingRight=4;overflow=hidden;rotatable=0;points=[[0,0.5],[1,0.5]];portConstraint=eastwest;fontSize=12;" parent="WDwS9hlg-Zl9L9CRXzQi-20" vertex="1">
          <mxGeometry y="52" width="200" height="26" as="geometry" />
        </mxCell>
        <mxCell id="WDwS9hlg-Zl9L9CRXzQi-23" value="EffectiveToDate" style="text;strokeColor=none;fillColor=none;spacingLeft=4;spacingRight=4;overflow=hidden;rotatable=0;points=[[0,0.5],[1,0.5]];portConstraint=eastwest;fontSize=12;" parent="WDwS9hlg-Zl9L9CRXzQi-20" vertex="1">
          <mxGeometry y="78" width="200" height="26" as="geometry" />
        </mxCell>
        <mxCell id="WDwS9hlg-Zl9L9CRXzQi-24" value="BillingAccountRoleType" style="swimlane;fontStyle=0;childLayout=stackLayout;horizontal=1;startSize=26;horizontalStack=0;resizeParent=1;resizeParentMax=0;resizeLast=0;collapsible=1;marginBottom=0;align=center;fontSize=14;fillColor=#FF9999;strokeColor=#b85450;" parent="1" vertex="1">
          <mxGeometry x="880" y="693" width="200" height="78" as="geometry" />
        </mxCell>
        <mxCell id="WDwS9hlg-Zl9L9CRXzQi-25" value="Id" style="text;strokeColor=none;fillColor=none;spacingLeft=4;spacingRight=4;overflow=hidden;rotatable=0;points=[[0,0.5],[1,0.5]];portConstraint=eastwest;fontSize=12;" parent="WDwS9hlg-Zl9L9CRXzQi-24" vertex="1">
          <mxGeometry y="26" width="200" height="26" as="geometry" />
        </mxCell>
        <mxCell id="WDwS9hlg-Zl9L9CRXzQi-26" value="Name { PAYER, PAYEE }" style="text;strokeColor=none;fillColor=none;spacingLeft=4;spacingRight=4;overflow=hidden;rotatable=0;points=[[0,0.5],[1,0.5]];portConstraint=eastwest;fontSize=12;" parent="WDwS9hlg-Zl9L9CRXzQi-24" vertex="1">
          <mxGeometry y="52" width="200" height="26" as="geometry" />
        </mxCell>
        <mxCell id="WDwS9hlg-Zl9L9CRXzQi-38" value="" style="edgeStyle=orthogonalEdgeStyle;fontSize=12;html=1;endArrow=ERmany;dashed=1;" parent="1" source="17nkkkLWe5lEtefS8qls-12" target="WDwS9hlg-Zl9L9CRXzQi-35" edge="1">
          <mxGeometry width="100" height="100" relative="1" as="geometry">
            <mxPoint x="830" y="110" as="sourcePoint" />
            <mxPoint x="700" y="68" as="targetPoint" />
            <Array as="points">
              <mxPoint x="980" y="300" />
            </Array>
          </mxGeometry>
        </mxCell>
        <mxCell id="WDwS9hlg-Zl9L9CRXzQi-39" value="" style="edgeStyle=orthogonalEdgeStyle;fontSize=12;html=1;endArrow=ERmany;" parent="1" source="gXIctKyo1TDuMm2zsvnv-65" target="WDwS9hlg-Zl9L9CRXzQi-35" edge="1">
          <mxGeometry width="100" height="100" relative="1" as="geometry">
            <mxPoint x="1170" y="-315.5" as="sourcePoint" />
            <mxPoint x="1070" y="-315.5" as="targetPoint" />
            <Array as="points">
              <mxPoint x="1260" y="-181" />
            </Array>
          </mxGeometry>
        </mxCell>
        <mxCell id="17nkkkLWe5lEtefS8qls-12" value="InvoiceItem" style="swimlane;fontStyle=0;childLayout=stackLayout;horizontal=1;startSize=26;horizontalStack=0;resizeParent=1;resizeParentMax=0;resizeLast=0;collapsible=1;marginBottom=0;align=center;fontSize=14;fillColor=#FF9999;strokeColor=#b85450;" parent="1" vertex="1">
          <mxGeometry x="610" y="244" width="160" height="104" as="geometry" />
        </mxCell>
        <mxCell id="17nkkkLWe5lEtefS8qls-13" value="Id" style="text;strokeColor=none;fillColor=none;spacingLeft=4;spacingRight=4;overflow=hidden;rotatable=0;points=[[0,0.5],[1,0.5]];portConstraint=eastwest;fontSize=12;" parent="17nkkkLWe5lEtefS8qls-12" vertex="1">
          <mxGeometry y="26" width="160" height="26" as="geometry" />
        </mxCell>
        <mxCell id="WDwS9hlg-Zl9L9CRXzQi-42" value="Line" style="text;strokeColor=none;fillColor=none;spacingLeft=4;spacingRight=4;overflow=hidden;rotatable=0;points=[[0,0.5],[1,0.5]];portConstraint=eastwest;fontSize=12;" parent="17nkkkLWe5lEtefS8qls-12" vertex="1">
          <mxGeometry y="52" width="160" height="26" as="geometry" />
        </mxCell>
        <mxCell id="WDwS9hlg-Zl9L9CRXzQi-65" value="Amount" style="text;strokeColor=none;fillColor=none;spacingLeft=4;spacingRight=4;overflow=hidden;rotatable=0;points=[[0,0.5],[1,0.5]];portConstraint=eastwest;fontSize=12;" parent="17nkkkLWe5lEtefS8qls-12" vertex="1">
          <mxGeometry y="78" width="160" height="26" as="geometry" />
        </mxCell>
        <mxCell id="17nkkkLWe5lEtefS8qls-17" value="PaymentApplication" style="swimlane;fontStyle=0;childLayout=stackLayout;horizontal=1;startSize=26;horizontalStack=0;resizeParent=1;resizeParentMax=0;resizeLast=0;collapsible=1;marginBottom=0;align=center;fontSize=14;fillColor=#FF9999;strokeColor=#b85450;" parent="1" vertex="1">
          <mxGeometry x="320" y="706" width="205" height="78" as="geometry" />
        </mxCell>
        <mxCell id="17nkkkLWe5lEtefS8qls-18" value="Id" style="text;strokeColor=none;fillColor=none;spacingLeft=4;spacingRight=4;overflow=hidden;rotatable=0;points=[[0,0.5],[1,0.5]];portConstraint=eastwest;fontSize=12;" parent="17nkkkLWe5lEtefS8qls-17" vertex="1">
          <mxGeometry y="26" width="205" height="26" as="geometry" />
        </mxCell>
        <mxCell id="WDwS9hlg-Zl9L9CRXzQi-12" value="AmountApplied" style="text;strokeColor=none;fillColor=none;spacingLeft=4;spacingRight=4;overflow=hidden;rotatable=0;points=[[0,0.5],[1,0.5]];portConstraint=eastwest;fontSize=12;" parent="17nkkkLWe5lEtefS8qls-17" vertex="1">
          <mxGeometry y="52" width="205" height="26" as="geometry" />
        </mxCell>
        <mxCell id="17nkkkLWe5lEtefS8qls-1" value="Invoice" style="swimlane;fontStyle=0;childLayout=stackLayout;horizontal=1;startSize=26;horizontalStack=0;resizeParent=1;resizeParentMax=0;resizeLast=0;collapsible=1;marginBottom=0;align=center;fontSize=14;fillColor=#FF9999;strokeColor=#b85450;" parent="1" vertex="1">
          <mxGeometry x="340" y="434" width="160" height="130" as="geometry" />
        </mxCell>
        <mxCell id="17nkkkLWe5lEtefS8qls-2" value="Id" style="text;strokeColor=none;fillColor=none;spacingLeft=4;spacingRight=4;overflow=hidden;rotatable=0;points=[[0,0.5],[1,0.5]];portConstraint=eastwest;fontSize=12;" parent="17nkkkLWe5lEtefS8qls-1" vertex="1">
          <mxGeometry y="26" width="160" height="26" as="geometry" />
        </mxCell>
        <mxCell id="WDwS9hlg-Zl9L9CRXzQi-8" value="Number" style="text;strokeColor=none;fillColor=none;spacingLeft=4;spacingRight=4;overflow=hidden;rotatable=0;points=[[0,0.5],[1,0.5]];portConstraint=eastwest;fontSize=12;" parent="17nkkkLWe5lEtefS8qls-1" vertex="1">
          <mxGeometry y="52" width="160" height="26" as="geometry" />
        </mxCell>
        <mxCell id="WDwS9hlg-Zl9L9CRXzQi-7" value="Seq" style="text;strokeColor=none;fillColor=none;spacingLeft=4;spacingRight=4;overflow=hidden;rotatable=0;points=[[0,0.5],[1,0.5]];portConstraint=eastwest;fontSize=12;" parent="17nkkkLWe5lEtefS8qls-1" vertex="1">
          <mxGeometry y="78" width="160" height="26" as="geometry" />
        </mxCell>
        <mxCell id="17nkkkLWe5lEtefS8qls-31" value="InvoiceDate" style="text;strokeColor=none;fillColor=none;spacingLeft=4;spacingRight=4;overflow=hidden;rotatable=0;points=[[0,0.5],[1,0.5]];portConstraint=eastwest;fontSize=12;" parent="17nkkkLWe5lEtefS8qls-1" vertex="1">
          <mxGeometry y="104" width="160" height="26" as="geometry" />
        </mxCell>
        <mxCell id="WDwS9hlg-Zl9L9CRXzQi-47" value="" style="edgeStyle=orthogonalEdgeStyle;fontSize=12;html=1;endArrow=ERmany;" parent="1" source="WDwS9hlg-Zl9L9CRXzQi-44" target="17nkkkLWe5lEtefS8qls-17" edge="1">
          <mxGeometry width="100" height="100" relative="1" as="geometry">
            <mxPoint x="433.00000000000045" y="522" as="sourcePoint" />
            <mxPoint x="433.00000000000045" y="716" as="targetPoint" />
            <Array as="points" />
          </mxGeometry>
        </mxCell>
        <mxCell id="WDwS9hlg-Zl9L9CRXzQi-44" value="Payment" style="swimlane;fontStyle=0;childLayout=stackLayout;horizontal=1;startSize=26;horizontalStack=0;resizeParent=1;resizeParentMax=0;resizeLast=0;collapsible=1;marginBottom=0;align=center;fontSize=14;fillColor=#FF9999;strokeColor=#b85450;" parent="1" vertex="1">
          <mxGeometry x="320" y="890" width="205" height="208" as="geometry" />
        </mxCell>
        <mxCell id="WDwS9hlg-Zl9L9CRXzQi-45" value="Id" style="text;strokeColor=none;fillColor=none;spacingLeft=4;spacingRight=4;overflow=hidden;rotatable=0;points=[[0,0.5],[1,0.5]];portConstraint=eastwest;fontSize=12;" parent="WDwS9hlg-Zl9L9CRXzQi-44" vertex="1">
          <mxGeometry y="26" width="205" height="26" as="geometry" />
        </mxCell>
        <mxCell id="WDwS9hlg-Zl9L9CRXzQi-46" value="EffectiveDate" style="text;strokeColor=none;fillColor=none;spacingLeft=4;spacingRight=4;overflow=hidden;rotatable=0;points=[[0,0.5],[1,0.5]];portConstraint=eastwest;fontSize=12;" parent="WDwS9hlg-Zl9L9CRXzQi-44" vertex="1">
          <mxGeometry y="52" width="205" height="26" as="geometry" />
        </mxCell>
        <mxCell id="WDwS9hlg-Zl9L9CRXzQi-57" value="Amount" style="text;strokeColor=none;fillColor=none;spacingLeft=4;spacingRight=4;overflow=hidden;rotatable=0;points=[[0,0.5],[1,0.5]];portConstraint=eastwest;fontSize=12;" parent="WDwS9hlg-Zl9L9CRXzQi-44" vertex="1">
          <mxGeometry y="78" width="205" height="26" as="geometry" />
        </mxCell>
        <mxCell id="WDwS9hlg-Zl9L9CRXzQi-58" value="TransactionDatetime" style="text;strokeColor=none;fillColor=none;spacingLeft=4;spacingRight=4;overflow=hidden;rotatable=0;points=[[0,0.5],[1,0.5]];portConstraint=eastwest;fontSize=12;" parent="WDwS9hlg-Zl9L9CRXzQi-44" vertex="1">
          <mxGeometry y="104" width="205" height="26" as="geometry" />
        </mxCell>
        <mxCell id="WDwS9hlg-Zl9L9CRXzQi-61" value="TransactionRef" style="text;strokeColor=none;fillColor=none;spacingLeft=4;spacingRight=4;overflow=hidden;rotatable=0;points=[[0,0.5],[1,0.5]];portConstraint=eastwest;fontSize=12;" parent="WDwS9hlg-Zl9L9CRXzQi-44" vertex="1">
          <mxGeometry y="130" width="205" height="26" as="geometry" />
        </mxCell>
        <mxCell id="WDwS9hlg-Zl9L9CRXzQi-59" value="MaskedPan" style="text;strokeColor=none;fillColor=none;spacingLeft=4;spacingRight=4;overflow=hidden;rotatable=0;points=[[0,0.5],[1,0.5]];portConstraint=eastwest;fontSize=12;" parent="WDwS9hlg-Zl9L9CRXzQi-44" vertex="1">
          <mxGeometry y="156" width="205" height="26" as="geometry" />
        </mxCell>
        <mxCell id="WDwS9hlg-Zl9L9CRXzQi-60" value="PaidChannel" style="text;strokeColor=none;fillColor=none;spacingLeft=4;spacingRight=4;overflow=hidden;rotatable=0;points=[[0,0.5],[1,0.5]];portConstraint=eastwest;fontSize=12;" parent="WDwS9hlg-Zl9L9CRXzQi-44" vertex="1">
          <mxGeometry y="182" width="205" height="26" as="geometry" />
        </mxCell>
        <mxCell id="WDwS9hlg-Zl9L9CRXzQi-54" value="" style="edgeStyle=orthogonalEdgeStyle;fontSize=12;html=1;endArrow=ERmany;" parent="1" source="WDwS9hlg-Zl9L9CRXzQi-51" target="WDwS9hlg-Zl9L9CRXzQi-44" edge="1">
          <mxGeometry width="100" height="100" relative="1" as="geometry">
            <mxPoint x="432.5" y="899.9999999999995" as="sourcePoint" />
            <mxPoint x="432.5" y="794" as="targetPoint" />
            <Array as="points" />
          </mxGeometry>
        </mxCell>
        <mxCell id="17nkkkLWe5lEtefS8qls-40" value="BillingAccount" style="swimlane;fontStyle=0;childLayout=stackLayout;horizontal=1;startSize=26;horizontalStack=0;resizeParent=1;resizeParentMax=0;resizeLast=0;collapsible=1;marginBottom=0;align=center;fontSize=14;fillColor=#FF9999;strokeColor=#b85450;" parent="1" vertex="1">
          <mxGeometry x="590" y="693" width="200" height="104" as="geometry" />
        </mxCell>
        <mxCell id="17nkkkLWe5lEtefS8qls-41" value="Id" style="text;strokeColor=none;fillColor=none;spacingLeft=4;spacingRight=4;overflow=hidden;rotatable=0;points=[[0,0.5],[1,0.5]];portConstraint=eastwest;fontSize=12;" parent="17nkkkLWe5lEtefS8qls-40" vertex="1">
          <mxGeometry y="26" width="200" height="26" as="geometry" />
        </mxCell>
        <mxCell id="WDwS9hlg-Zl9L9CRXzQi-18" value="FromDate" style="text;strokeColor=none;fillColor=none;spacingLeft=4;spacingRight=4;overflow=hidden;rotatable=0;points=[[0,0.5],[1,0.5]];portConstraint=eastwest;fontSize=12;" parent="17nkkkLWe5lEtefS8qls-40" vertex="1">
          <mxGeometry y="52" width="200" height="26" as="geometry" />
        </mxCell>
        <mxCell id="WDwS9hlg-Zl9L9CRXzQi-19" value="ToDate" style="text;strokeColor=none;fillColor=none;spacingLeft=4;spacingRight=4;overflow=hidden;rotatable=0;points=[[0,0.5],[1,0.5]];portConstraint=eastwest;fontSize=12;" parent="17nkkkLWe5lEtefS8qls-40" vertex="1">
          <mxGeometry y="78" width="200" height="26" as="geometry" />
        </mxCell>
        <mxCell id="WDwS9hlg-Zl9L9CRXzQi-63" value="" style="edgeStyle=orthogonalEdgeStyle;fontSize=12;html=1;endArrow=ERmany;" parent="1" source="17nkkkLWe5lEtefS8qls-40" target="17nkkkLWe5lEtefS8qls-1" edge="1">
          <mxGeometry width="100" height="100" relative="1" as="geometry">
            <mxPoint x="690" y="703.0000000000005" as="sourcePoint" />
            <mxPoint x="510" y="470.00000000000045" as="targetPoint" />
            <Array as="points">
              <mxPoint x="660" y="530" />
            </Array>
          </mxGeometry>
        </mxCell>
        <mxCell id="WDwS9hlg-Zl9L9CRXzQi-64" value="Bill To" style="edgeLabel;html=1;align=center;verticalAlign=middle;resizable=0;points=[];" parent="WDwS9hlg-Zl9L9CRXzQi-63" vertex="1" connectable="0">
          <mxGeometry x="0.084" y="46" relative="1" as="geometry">
            <mxPoint x="-38" y="-26" as="offset" />
          </mxGeometry>
        </mxCell>
        <mxCell id="WDwS9hlg-Zl9L9CRXzQi-35" value="OrderItemBilling" style="swimlane;fontStyle=0;childLayout=stackLayout;horizontal=1;startSize=26;horizontalStack=0;resizeParent=1;resizeParentMax=0;resizeLast=0;collapsible=1;marginBottom=0;align=center;fontSize=14;fillColor=#FFCCE6;strokeColor=#b85450;" parent="1" vertex="1">
          <mxGeometry x="900" y="-220" width="160" height="78" as="geometry" />
        </mxCell>
        <mxCell id="WDwS9hlg-Zl9L9CRXzQi-36" value="Id" style="text;strokeColor=none;fillColor=none;spacingLeft=4;spacingRight=4;overflow=hidden;rotatable=0;points=[[0,0.5],[1,0.5]];portConstraint=eastwest;fontSize=12;" parent="WDwS9hlg-Zl9L9CRXzQi-35" vertex="1">
          <mxGeometry y="26" width="160" height="26" as="geometry" />
        </mxCell>
        <mxCell id="WDwS9hlg-Zl9L9CRXzQi-41" value="Amount" style="text;strokeColor=none;fillColor=none;spacingLeft=4;spacingRight=4;overflow=hidden;rotatable=0;points=[[0,0.5],[1,0.5]];portConstraint=eastwest;fontSize=12;" parent="WDwS9hlg-Zl9L9CRXzQi-35" vertex="1">
          <mxGeometry y="52" width="160" height="26" as="geometry" />
        </mxCell>
        <mxCell id="_0oobIRNl8wnkdukzj8S-103" value="PlanCoverage" style="swimlane;fontStyle=0;childLayout=stackLayout;horizontal=1;startSize=26;horizontalStack=0;resizeParent=1;resizeParentMax=0;resizeLast=0;collapsible=1;marginBottom=0;align=center;fontSize=14;fillColor=#d5e8d4;strokeColor=#82b366;" parent="1" vertex="1">
          <mxGeometry x="185" y="-474" width="160" height="104" as="geometry" />
        </mxCell>
        <mxCell id="_0oobIRNl8wnkdukzj8S-104" value="Id" style="text;strokeColor=none;fillColor=none;spacingLeft=4;spacingRight=4;overflow=hidden;rotatable=0;points=[[0,0.5],[1,0.5]];portConstraint=eastwest;fontSize=12;" parent="_0oobIRNl8wnkdukzj8S-103" vertex="1">
          <mxGeometry y="26" width="160" height="26" as="geometry" />
        </mxCell>
        <mxCell id="_0oobIRNl8wnkdukzj8S-105" value="Name" style="text;strokeColor=none;fillColor=none;spacingLeft=4;spacingRight=4;overflow=hidden;rotatable=0;points=[[0,0.5],[1,0.5]];portConstraint=eastwest;fontSize=12;" parent="_0oobIRNl8wnkdukzj8S-103" vertex="1">
          <mxGeometry y="52" width="160" height="26" as="geometry" />
        </mxCell>
        <mxCell id="0TQyI1X9U9wz12JWhdh1-30" value="CoverageAmount" style="text;strokeColor=none;fillColor=none;spacingLeft=4;spacingRight=4;overflow=hidden;rotatable=0;points=[[0,0.5],[1,0.5]];portConstraint=eastwest;fontSize=12;" parent="_0oobIRNl8wnkdukzj8S-103" vertex="1">
          <mxGeometry y="78" width="160" height="26" as="geometry" />
        </mxCell>
        <mxCell id="_0oobIRNl8wnkdukzj8S-109" value="PlanPremium" style="swimlane;fontStyle=0;childLayout=stackLayout;horizontal=1;startSize=26;horizontalStack=0;resizeParent=1;resizeParentMax=0;resizeLast=0;collapsible=1;marginBottom=0;align=center;fontSize=14;strokeColor=#5E824A;fillColor=#A4B3A3;" parent="1" vertex="1">
          <mxGeometry x="385" y="-178" width="160" height="104" as="geometry" />
        </mxCell>
        <mxCell id="_0oobIRNl8wnkdukzj8S-110" value="Id" style="text;strokeColor=none;fillColor=none;spacingLeft=4;spacingRight=4;overflow=hidden;rotatable=0;points=[[0,0.5],[1,0.5]];portConstraint=eastwest;fontSize=12;" parent="_0oobIRNl8wnkdukzj8S-109" vertex="1">
          <mxGeometry y="26" width="160" height="26" as="geometry" />
        </mxCell>
        <mxCell id="_0oobIRNl8wnkdukzj8S-111" value="Name" style="text;strokeColor=none;fillColor=none;spacingLeft=4;spacingRight=4;overflow=hidden;rotatable=0;points=[[0,0.5],[1,0.5]];portConstraint=eastwest;fontSize=12;" parent="_0oobIRNl8wnkdukzj8S-109" vertex="1">
          <mxGeometry y="52" width="160" height="26" as="geometry" />
        </mxCell>
        <mxCell id="0TQyI1X9U9wz12JWhdh1-31" value="PremiumAmount" style="text;strokeColor=none;fillColor=none;spacingLeft=4;spacingRight=4;overflow=hidden;rotatable=0;points=[[0,0.5],[1,0.5]];portConstraint=eastwest;fontSize=12;" parent="_0oobIRNl8wnkdukzj8S-109" vertex="1">
          <mxGeometry y="78" width="160" height="26" as="geometry" />
        </mxCell>
        <mxCell id="_0oobIRNl8wnkdukzj8S-87" value="Coverage" style="swimlane;fontStyle=0;childLayout=stackLayout;horizontal=1;startSize=26;horizontalStack=0;resizeParent=1;resizeParentMax=0;resizeLast=0;collapsible=1;marginBottom=0;align=center;fontSize=14;fillColor=#d5e8d4;strokeColor=#82b366;" parent="1" vertex="1">
          <mxGeometry x="385" y="-578" width="160" height="78" as="geometry" />
        </mxCell>
        <mxCell id="_0oobIRNl8wnkdukzj8S-88" value="Id" style="text;spacingLeft=4;spacingRight=4;overflow=hidden;rotatable=0;points=[[0,0.5],[1,0.5]];portConstraint=eastwest;fontSize=12;" parent="_0oobIRNl8wnkdukzj8S-87" vertex="1">
          <mxGeometry y="26" width="160" height="26" as="geometry" />
        </mxCell>
        <mxCell id="_0oobIRNl8wnkdukzj8S-89" value="Name" style="text;strokeColor=none;fillColor=none;spacingLeft=4;spacingRight=4;overflow=hidden;rotatable=0;points=[[0,0.5],[1,0.5]];portConstraint=eastwest;fontSize=12;" parent="_0oobIRNl8wnkdukzj8S-87" vertex="1">
          <mxGeometry y="52" width="160" height="26" as="geometry" />
        </mxCell>
        <mxCell id="_0oobIRNl8wnkdukzj8S-96" value="PackageCoverage" style="swimlane;fontStyle=0;childLayout=stackLayout;horizontal=1;startSize=26;horizontalStack=0;resizeParent=1;resizeParentMax=0;resizeLast=0;collapsible=1;marginBottom=0;align=center;fontSize=14;fillColor=#d5e8d4;strokeColor=#82b366;" parent="1" vertex="1">
          <mxGeometry x="385" y="-743" width="160" height="78" as="geometry" />
        </mxCell>
        <mxCell id="_0oobIRNl8wnkdukzj8S-97" value="Id" style="text;strokeColor=none;fillColor=none;spacingLeft=4;spacingRight=4;overflow=hidden;rotatable=0;points=[[0,0.5],[1,0.5]];portConstraint=eastwest;fontSize=12;" parent="_0oobIRNl8wnkdukzj8S-96" vertex="1">
          <mxGeometry y="26" width="160" height="26" as="geometry" />
        </mxCell>
        <mxCell id="_0oobIRNl8wnkdukzj8S-98" value="Name" style="text;strokeColor=none;fillColor=none;spacingLeft=4;spacingRight=4;overflow=hidden;rotatable=0;points=[[0,0.5],[1,0.5]];portConstraint=eastwest;fontSize=12;" parent="_0oobIRNl8wnkdukzj8S-96" vertex="1">
          <mxGeometry y="52" width="160" height="26" as="geometry" />
        </mxCell>
        <mxCell id="gXIctKyo1TDuMm2zsvnv-8" value="Plan" style="swimlane;fontStyle=0;childLayout=stackLayout;horizontal=1;startSize=26;horizontalStack=0;resizeParent=1;resizeParentMax=0;resizeLast=0;collapsible=1;marginBottom=0;align=center;fontSize=14;fillColor=#d5e8d4;strokeColor=#82b366;" parent="1" vertex="1">
          <mxGeometry x="185" y="-286" width="160" height="78" as="geometry" />
        </mxCell>
        <mxCell id="gXIctKyo1TDuMm2zsvnv-9" value="Id" style="text;strokeColor=none;fillColor=none;spacingLeft=4;spacingRight=4;overflow=hidden;rotatable=0;points=[[0,0.5],[1,0.5]];portConstraint=eastwest;fontSize=12;" parent="gXIctKyo1TDuMm2zsvnv-8" vertex="1">
          <mxGeometry y="26" width="160" height="26" as="geometry" />
        </mxCell>
        <mxCell id="_0oobIRNl8wnkdukzj8S-7" value="Name" style="text;strokeColor=none;fillColor=none;spacingLeft=4;spacingRight=4;overflow=hidden;rotatable=0;points=[[0,0.5],[1,0.5]];portConstraint=eastwest;fontSize=12;" parent="gXIctKyo1TDuMm2zsvnv-8" vertex="1">
          <mxGeometry y="52" width="160" height="26" as="geometry" />
        </mxCell>
        <mxCell id="BGuPxNFhb5wrOtqzNdvj-2" value="PlanPremiumBase" style="swimlane;fontStyle=0;childLayout=stackLayout;horizontal=1;startSize=26;horizontalStack=0;resizeParent=1;resizeParentMax=0;resizeLast=0;collapsible=1;marginBottom=0;align=center;fontSize=14;strokeColor=#5E824A;fillColor=#A4B3A3;" parent="1" vertex="1">
          <mxGeometry x="-110" y="-299" width="190" height="104" as="geometry" />
        </mxCell>
        <mxCell id="BGuPxNFhb5wrOtqzNdvj-3" value="Id" style="text;strokeColor=none;fillColor=none;spacingLeft=4;spacingRight=4;overflow=hidden;rotatable=0;points=[[0,0.5],[1,0.5]];portConstraint=eastwest;fontSize=12;" parent="BGuPxNFhb5wrOtqzNdvj-2" vertex="1">
          <mxGeometry y="26" width="190" height="26" as="geometry" />
        </mxCell>
        <mxCell id="BGuPxNFhb5wrOtqzNdvj-15" value="EffectiveFromDate" style="text;strokeColor=none;fillColor=none;spacingLeft=4;spacingRight=4;overflow=hidden;rotatable=0;points=[[0,0.5],[1,0.5]];portConstraint=eastwest;fontSize=12;" parent="BGuPxNFhb5wrOtqzNdvj-2" vertex="1">
          <mxGeometry y="52" width="190" height="26" as="geometry" />
        </mxCell>
        <mxCell id="BGuPxNFhb5wrOtqzNdvj-16" value="EffectiveToDate" style="text;strokeColor=none;fillColor=none;spacingLeft=4;spacingRight=4;overflow=hidden;rotatable=0;points=[[0,0.5],[1,0.5]];portConstraint=eastwest;fontSize=12;" parent="BGuPxNFhb5wrOtqzNdvj-2" vertex="1">
          <mxGeometry y="78" width="190" height="26" as="geometry" />
        </mxCell>
        <mxCell id="BGuPxNFhb5wrOtqzNdvj-5" value="NumRange" style="swimlane;fontStyle=0;childLayout=stackLayout;horizontal=1;startSize=26;horizontalStack=0;resizeParent=1;resizeParentMax=0;resizeLast=0;collapsible=1;marginBottom=0;align=center;fontSize=14;strokeColor=#5E824A;fillColor=#A4B3A3;" parent="1" vertex="1">
          <mxGeometry x="-110" y="-86" width="190" height="104" as="geometry" />
        </mxCell>
        <mxCell id="BGuPxNFhb5wrOtqzNdvj-6" value="Id" style="text;strokeColor=none;fillColor=none;spacingLeft=4;spacingRight=4;overflow=hidden;rotatable=0;points=[[0,0.5],[1,0.5]];portConstraint=eastwest;fontSize=12;" parent="BGuPxNFhb5wrOtqzNdvj-5" vertex="1">
          <mxGeometry y="26" width="190" height="26" as="geometry" />
        </mxCell>
        <mxCell id="BGuPxNFhb5wrOtqzNdvj-7" value="From" style="text;strokeColor=none;fillColor=none;spacingLeft=4;spacingRight=4;overflow=hidden;rotatable=0;points=[[0,0.5],[1,0.5]];portConstraint=eastwest;fontSize=12;" parent="BGuPxNFhb5wrOtqzNdvj-5" vertex="1">
          <mxGeometry y="52" width="190" height="26" as="geometry" />
        </mxCell>
        <mxCell id="BGuPxNFhb5wrOtqzNdvj-8" value="To" style="text;strokeColor=none;fillColor=none;spacingLeft=4;spacingRight=4;overflow=hidden;rotatable=0;points=[[0,0.5],[1,0.5]];portConstraint=eastwest;fontSize=12;" parent="BGuPxNFhb5wrOtqzNdvj-5" vertex="1">
          <mxGeometry y="78" width="190" height="26" as="geometry" />
        </mxCell>
        <mxCell id="zbo5BHDHcFBrp6IUXttY-15" value="CampaignPlan" style="swimlane;fontStyle=0;childLayout=stackLayout;horizontal=1;startSize=26;horizontalStack=0;resizeParent=1;resizeParentMax=0;resizeLast=0;collapsible=1;marginBottom=0;align=center;fontSize=14;fillColor=#d5e8d4;strokeColor=#82b366;" parent="1" vertex="1">
          <mxGeometry x="-170" y="-448.5" width="160" height="52" as="geometry" />
        </mxCell>
        <mxCell id="zbo5BHDHcFBrp6IUXttY-16" value="Id" style="text;strokeColor=none;fillColor=none;spacingLeft=4;spacingRight=4;overflow=hidden;rotatable=0;points=[[0,0.5],[1,0.5]];portConstraint=eastwest;fontSize=12;" parent="zbo5BHDHcFBrp6IUXttY-15" vertex="1">
          <mxGeometry y="26" width="160" height="26" as="geometry" />
        </mxCell>
        <mxCell id="_0oobIRNl8wnkdukzj8S-84" value="Package" style="swimlane;fontStyle=0;childLayout=stackLayout;horizontal=1;startSize=26;horizontalStack=0;resizeParent=1;resizeParentMax=0;resizeLast=0;collapsible=1;marginBottom=0;align=center;fontSize=14;fillColor=#d5e8d4;strokeColor=#82b366;" parent="1" vertex="1">
          <mxGeometry x="385" y="-870" width="160" height="78" as="geometry" />
        </mxCell>
        <mxCell id="_0oobIRNl8wnkdukzj8S-85" value="Id" style="text;strokeColor=none;fillColor=none;spacingLeft=4;spacingRight=4;overflow=hidden;rotatable=0;points=[[0,0.5],[1,0.5]];portConstraint=eastwest;fontSize=12;" parent="_0oobIRNl8wnkdukzj8S-84" vertex="1">
          <mxGeometry y="26" width="160" height="26" as="geometry" />
        </mxCell>
        <mxCell id="_0oobIRNl8wnkdukzj8S-86" value="Name" style="text;strokeColor=none;fillColor=none;spacingLeft=4;spacingRight=4;overflow=hidden;rotatable=0;points=[[0,0.5],[1,0.5]];portConstraint=eastwest;fontSize=12;" parent="_0oobIRNl8wnkdukzj8S-84" vertex="1">
          <mxGeometry y="52" width="160" height="26" as="geometry" />
        </mxCell>
        <mxCell id="_0oobIRNl8wnkdukzj8S-80" value="Product" style="swimlane;fontStyle=0;childLayout=stackLayout;horizontal=1;startSize=26;horizontalStack=0;resizeParent=1;resizeParentMax=0;resizeLast=0;collapsible=1;marginBottom=0;align=center;fontSize=14;fillColor=#d5e8d4;strokeColor=#82b366;" parent="1" vertex="1">
          <mxGeometry x="90" y="-870" width="160" height="78" as="geometry" />
        </mxCell>
        <mxCell id="_0oobIRNl8wnkdukzj8S-81" value="Id" style="text;strokeColor=none;fillColor=none;spacingLeft=4;spacingRight=4;overflow=hidden;rotatable=0;points=[[0,0.5],[1,0.5]];portConstraint=eastwest;fontSize=12;" parent="_0oobIRNl8wnkdukzj8S-80" vertex="1">
          <mxGeometry y="26" width="160" height="26" as="geometry" />
        </mxCell>
        <mxCell id="_0oobIRNl8wnkdukzj8S-82" value="Name" style="text;strokeColor=none;fillColor=none;spacingLeft=4;spacingRight=4;overflow=hidden;rotatable=0;points=[[0,0.5],[1,0.5]];portConstraint=eastwest;fontSize=12;" parent="_0oobIRNl8wnkdukzj8S-80" vertex="1">
          <mxGeometry y="52" width="160" height="26" as="geometry" />
        </mxCell>
        <mxCell id="zbo5BHDHcFBrp6IUXttY-4" value="BusinessType" style="swimlane;fontStyle=0;childLayout=stackLayout;horizontal=1;startSize=26;horizontalStack=0;resizeParent=1;resizeParentMax=0;resizeLast=0;collapsible=1;marginBottom=0;align=center;fontSize=14;fillColor=#d5e8d4;strokeColor=#82b366;" parent="1" vertex="1">
          <mxGeometry x="-170" y="-857" width="160" height="52" as="geometry" />
        </mxCell>
        <mxCell id="zbo5BHDHcFBrp6IUXttY-5" value="Id" style="text;strokeColor=none;fillColor=none;spacingLeft=4;spacingRight=4;overflow=hidden;rotatable=0;points=[[0,0.5],[1,0.5]];portConstraint=eastwest;fontSize=12;" parent="zbo5BHDHcFBrp6IUXttY-4" vertex="1">
          <mxGeometry y="26" width="160" height="26" as="geometry" />
        </mxCell>
        <mxCell id="zbo5BHDHcFBrp6IUXttY-1" value="Campaign" style="swimlane;fontStyle=0;childLayout=stackLayout;horizontal=1;startSize=26;horizontalStack=0;resizeParent=1;resizeParentMax=0;resizeLast=0;collapsible=1;marginBottom=0;align=center;fontSize=14;fillColor=#d5e8d4;strokeColor=#82b366;" parent="1" vertex="1">
          <mxGeometry x="-170" y="-682.5" width="160" height="104" as="geometry" />
        </mxCell>
        <mxCell id="zbo5BHDHcFBrp6IUXttY-2" value="Id" style="text;strokeColor=none;fillColor=none;spacingLeft=4;spacingRight=4;overflow=hidden;rotatable=0;points=[[0,0.5],[1,0.5]];portConstraint=eastwest;fontSize=12;" parent="zbo5BHDHcFBrp6IUXttY-1" vertex="1">
          <mxGeometry y="26" width="160" height="26" as="geometry" />
        </mxCell>
        <mxCell id="zbo5BHDHcFBrp6IUXttY-13" value="EffectiveDate" style="text;strokeColor=none;fillColor=none;spacingLeft=4;spacingRight=4;overflow=hidden;rotatable=0;points=[[0,0.5],[1,0.5]];portConstraint=eastwest;fontSize=12;" parent="zbo5BHDHcFBrp6IUXttY-1" vertex="1">
          <mxGeometry y="52" width="160" height="26" as="geometry" />
        </mxCell>
        <mxCell id="zbo5BHDHcFBrp6IUXttY-14" value="ExpiryDate" style="text;strokeColor=none;fillColor=none;spacingLeft=4;spacingRight=4;overflow=hidden;rotatable=0;points=[[0,0.5],[1,0.5]];portConstraint=eastwest;fontSize=12;" parent="zbo5BHDHcFBrp6IUXttY-1" vertex="1">
          <mxGeometry y="78" width="160" height="26" as="geometry" />
        </mxCell>
        <mxCell id="zbo5BHDHcFBrp6IUXttY-22" value="CampaignVoucher" style="swimlane;fontStyle=0;childLayout=stackLayout;horizontal=1;startSize=26;horizontalStack=0;resizeParent=1;resizeParentMax=0;resizeLast=0;collapsible=1;marginBottom=0;align=center;fontSize=14;fillColor=#d5e8d4;strokeColor=#82b366;" parent="1" vertex="1">
          <mxGeometry x="-450" y="-669.5" width="160" height="78" as="geometry" />
        </mxCell>
        <mxCell id="zbo5BHDHcFBrp6IUXttY-23" value="Id" style="text;strokeColor=none;fillColor=none;spacingLeft=4;spacingRight=4;overflow=hidden;rotatable=0;points=[[0,0.5],[1,0.5]];portConstraint=eastwest;fontSize=12;" parent="zbo5BHDHcFBrp6IUXttY-22" vertex="1">
          <mxGeometry y="26" width="160" height="26" as="geometry" />
        </mxCell>
        <mxCell id="zbo5BHDHcFBrp6IUXttY-24" value="Code" style="text;strokeColor=none;fillColor=none;spacingLeft=4;spacingRight=4;overflow=hidden;rotatable=0;points=[[0,0.5],[1,0.5]];portConstraint=eastwest;fontSize=12;" parent="zbo5BHDHcFBrp6IUXttY-22" vertex="1">
          <mxGeometry y="52" width="160" height="26" as="geometry" />
        </mxCell>
        <mxCell id="zbo5BHDHcFBrp6IUXttY-27" value="CampaignVoucherUsed" style="swimlane;fontStyle=0;childLayout=stackLayout;horizontal=1;startSize=26;horizontalStack=0;resizeParent=1;resizeParentMax=0;resizeLast=0;collapsible=1;marginBottom=0;align=center;fontSize=14;fillColor=#d5e8d4;strokeColor=#82b366;" parent="1" vertex="1">
          <mxGeometry x="-470" y="-457" width="200" height="52" as="geometry" />
        </mxCell>
        <mxCell id="zbo5BHDHcFBrp6IUXttY-28" value="Id" style="text;strokeColor=none;fillColor=none;spacingLeft=4;spacingRight=4;overflow=hidden;rotatable=0;points=[[0,0.5],[1,0.5]];portConstraint=eastwest;fontSize=12;" parent="zbo5BHDHcFBrp6IUXttY-27" vertex="1">
          <mxGeometry y="26" width="200" height="26" as="geometry" />
        </mxCell>
        <mxCell id="zbo5BHDHcFBrp6IUXttY-31" value="CampaignPriceTier" style="swimlane;fontStyle=0;childLayout=stackLayout;horizontal=1;startSize=26;horizontalStack=0;resizeParent=1;resizeParentMax=0;resizeLast=0;collapsible=1;marginBottom=0;align=center;fontSize=14;fillColor=#d5e8d4;strokeColor=#82b366;" parent="1" vertex="1">
          <mxGeometry x="-470" y="-299" width="200" height="156" as="geometry" />
        </mxCell>
        <mxCell id="zbo5BHDHcFBrp6IUXttY-32" value="Id" style="text;strokeColor=none;fillColor=none;spacingLeft=4;spacingRight=4;overflow=hidden;rotatable=0;points=[[0,0.5],[1,0.5]];portConstraint=eastwest;fontSize=12;" parent="zbo5BHDHcFBrp6IUXttY-31" vertex="1">
          <mxGeometry y="26" width="200" height="26" as="geometry" />
        </mxCell>
        <mxCell id="zbo5BHDHcFBrp6IUXttY-33" value="AmountFrom" style="text;strokeColor=none;fillColor=none;spacingLeft=4;spacingRight=4;overflow=hidden;rotatable=0;points=[[0,0.5],[1,0.5]];portConstraint=eastwest;fontSize=12;" parent="zbo5BHDHcFBrp6IUXttY-31" vertex="1">
          <mxGeometry y="52" width="200" height="26" as="geometry" />
        </mxCell>
        <mxCell id="zbo5BHDHcFBrp6IUXttY-34" value="AmountTo" style="text;strokeColor=none;fillColor=none;spacingLeft=4;spacingRight=4;overflow=hidden;rotatable=0;points=[[0,0.5],[1,0.5]];portConstraint=eastwest;fontSize=12;" parent="zbo5BHDHcFBrp6IUXttY-31" vertex="1">
          <mxGeometry y="78" width="200" height="26" as="geometry" />
        </mxCell>
        <mxCell id="zbo5BHDHcFBrp6IUXttY-35" value="TierType { Percent, Value }" style="text;strokeColor=none;fillColor=none;spacingLeft=4;spacingRight=4;overflow=hidden;rotatable=0;points=[[0,0.5],[1,0.5]];portConstraint=eastwest;fontSize=12;" parent="zbo5BHDHcFBrp6IUXttY-31" vertex="1">
          <mxGeometry y="104" width="200" height="26" as="geometry" />
        </mxCell>
        <mxCell id="zbo5BHDHcFBrp6IUXttY-36" value="TierValue" style="text;strokeColor=none;fillColor=none;spacingLeft=4;spacingRight=4;overflow=hidden;rotatable=0;points=[[0,0.5],[1,0.5]];portConstraint=eastwest;fontSize=12;" parent="zbo5BHDHcFBrp6IUXttY-31" vertex="1">
          <mxGeometry y="130" width="200" height="26" as="geometry" />
        </mxCell>
        <mxCell id="KiXoswTGTcqF2VSnwYO5-21" value="OrderDateDim" style="swimlane;fontStyle=0;childLayout=stackLayout;horizontal=1;startSize=22;horizontalStack=0;resizeParent=1;resizeParentMax=0;resizeLast=0;collapsible=1;marginBottom=0;align=center;fontSize=14;fillColor=#ffe6cc;strokeColor=#d79b00;" parent="1" vertex="1">
          <mxGeometry x="1340" y="-2170" width="210" height="126" as="geometry" />
        </mxCell>
        <mxCell id="KiXoswTGTcqF2VSnwYO5-22" value="Key" style="text;strokeColor=none;fillColor=none;spacingLeft=4;spacingRight=4;overflow=hidden;rotatable=0;points=[[0,0.5],[1,0.5]];portConstraint=eastwest;fontSize=12;" parent="KiXoswTGTcqF2VSnwYO5-21" vertex="1">
          <mxGeometry y="22" width="210" height="26" as="geometry" />
        </mxCell>
        <mxCell id="KiXoswTGTcqF2VSnwYO5-23" value="OrderDate" style="text;strokeColor=none;fillColor=none;spacingLeft=4;spacingRight=4;overflow=hidden;rotatable=0;points=[[0,0.5],[1,0.5]];portConstraint=eastwest;fontSize=12;" parent="KiXoswTGTcqF2VSnwYO5-21" vertex="1">
          <mxGeometry y="48" width="210" height="26" as="geometry" />
        </mxCell>
        <mxCell id="KiXoswTGTcqF2VSnwYO5-24" value="Lastname" style="text;strokeColor=none;fillColor=none;spacingLeft=4;spacingRight=4;overflow=hidden;rotatable=0;points=[[0,0.5],[1,0.5]];portConstraint=eastwest;fontSize=12;" parent="KiXoswTGTcqF2VSnwYO5-21" vertex="1">
          <mxGeometry y="74" width="210" height="26" as="geometry" />
        </mxCell>
        <mxCell id="KiXoswTGTcqF2VSnwYO5-25" value="Mobile" style="text;strokeColor=none;fillColor=none;spacingLeft=4;spacingRight=4;overflow=hidden;rotatable=0;points=[[0,0.5],[1,0.5]];portConstraint=eastwest;fontSize=12;" parent="KiXoswTGTcqF2VSnwYO5-21" vertex="1">
          <mxGeometry y="100" width="210" height="26" as="geometry" />
        </mxCell>
        <mxCell id="KiXoswTGTcqF2VSnwYO5-34" value="OrderPaymentDim" style="swimlane;fontStyle=0;childLayout=stackLayout;horizontal=1;startSize=22;horizontalStack=0;resizeParent=1;resizeParentMax=0;resizeLast=0;collapsible=1;marginBottom=0;align=center;fontSize=14;fillColor=#ffe6cc;strokeColor=#d79b00;" parent="1" vertex="1">
          <mxGeometry x="940" y="-1541" width="210" height="74" as="geometry" />
        </mxCell>
        <mxCell id="KiXoswTGTcqF2VSnwYO5-35" value="Key" style="text;strokeColor=none;fillColor=none;spacingLeft=4;spacingRight=4;overflow=hidden;rotatable=0;points=[[0,0.5],[1,0.5]];portConstraint=eastwest;fontSize=12;" parent="KiXoswTGTcqF2VSnwYO5-34" vertex="1">
          <mxGeometry y="22" width="210" height="26" as="geometry" />
        </mxCell>
        <mxCell id="KiXoswTGTcqF2VSnwYO5-36" value="PartyId" style="text;strokeColor=none;fillColor=none;spacingLeft=4;spacingRight=4;overflow=hidden;rotatable=0;points=[[0,0.5],[1,0.5]];portConstraint=eastwest;fontSize=12;" parent="KiXoswTGTcqF2VSnwYO5-34" vertex="1">
          <mxGeometry y="48" width="210" height="26" as="geometry" />
        </mxCell>
        <mxCell id="KiXoswTGTcqF2VSnwYO5-4" value="CustomerDim" style="swimlane;fontStyle=0;childLayout=stackLayout;horizontal=1;startSize=22;horizontalStack=0;resizeParent=1;resizeParentMax=0;resizeLast=0;collapsible=1;marginBottom=0;align=center;fontSize=14;fillColor=#ffe6cc;strokeColor=#d79b00;" parent="1" vertex="1">
          <mxGeometry x="1720" y="-2100" width="210" height="126" as="geometry" />
        </mxCell>
        <mxCell id="KiXoswTGTcqF2VSnwYO5-5" value="Key" style="text;strokeColor=none;fillColor=none;spacingLeft=4;spacingRight=4;overflow=hidden;rotatable=0;points=[[0,0.5],[1,0.5]];portConstraint=eastwest;fontSize=12;" parent="KiXoswTGTcqF2VSnwYO5-4" vertex="1">
          <mxGeometry y="22" width="210" height="26" as="geometry" />
        </mxCell>
        <mxCell id="KiXoswTGTcqF2VSnwYO5-8" value="PartyId" style="text;strokeColor=none;fillColor=none;spacingLeft=4;spacingRight=4;overflow=hidden;rotatable=0;points=[[0,0.5],[1,0.5]];portConstraint=eastwest;fontSize=12;" parent="KiXoswTGTcqF2VSnwYO5-4" vertex="1">
          <mxGeometry y="48" width="210" height="26" as="geometry" />
        </mxCell>
        <mxCell id="KiXoswTGTcqF2VSnwYO5-26" value="Firstname" style="text;strokeColor=none;fillColor=none;spacingLeft=4;spacingRight=4;overflow=hidden;rotatable=0;points=[[0,0.5],[1,0.5]];portConstraint=eastwest;fontSize=12;" parent="KiXoswTGTcqF2VSnwYO5-4" vertex="1">
          <mxGeometry y="74" width="210" height="26" as="geometry" />
        </mxCell>
        <mxCell id="KiXoswTGTcqF2VSnwYO5-10" value="Lastname" style="text;strokeColor=none;fillColor=none;spacingLeft=4;spacingRight=4;overflow=hidden;rotatable=0;points=[[0,0.5],[1,0.5]];portConstraint=eastwest;fontSize=12;" parent="KiXoswTGTcqF2VSnwYO5-4" vertex="1">
          <mxGeometry y="100" width="210" height="26" as="geometry" />
        </mxCell>
        <mxCell id="KiXoswTGTcqF2VSnwYO5-43" value="ProductDim" style="swimlane;fontStyle=0;childLayout=stackLayout;horizontal=1;startSize=22;horizontalStack=0;resizeParent=1;resizeParentMax=0;resizeLast=0;collapsible=1;marginBottom=0;align=center;fontSize=14;fillColor=#ffe6cc;strokeColor=#d79b00;" parent="1" vertex="1">
          <mxGeometry x="950" y="-2160" width="210" height="282" as="geometry" />
        </mxCell>
        <mxCell id="KiXoswTGTcqF2VSnwYO5-44" value="Key" style="text;strokeColor=none;fillColor=none;spacingLeft=4;spacingRight=4;overflow=hidden;rotatable=0;points=[[0,0.5],[1,0.5]];portConstraint=eastwest;fontSize=12;" parent="KiXoswTGTcqF2VSnwYO5-43" vertex="1">
          <mxGeometry y="22" width="210" height="26" as="geometry" />
        </mxCell>
        <mxCell id="KiXoswTGTcqF2VSnwYO5-45" value="ProductId" style="text;strokeColor=none;fillColor=none;spacingLeft=4;spacingRight=4;overflow=hidden;rotatable=0;points=[[0,0.5],[1,0.5]];portConstraint=eastwest;fontSize=12;" parent="KiXoswTGTcqF2VSnwYO5-43" vertex="1">
          <mxGeometry y="48" width="210" height="26" as="geometry" />
        </mxCell>
        <mxCell id="KiXoswTGTcqF2VSnwYO5-46" value="ProductName" style="text;strokeColor=none;fillColor=none;spacingLeft=4;spacingRight=4;overflow=hidden;rotatable=0;points=[[0,0.5],[1,0.5]];portConstraint=eastwest;fontSize=12;" parent="KiXoswTGTcqF2VSnwYO5-43" vertex="1">
          <mxGeometry y="74" width="210" height="26" as="geometry" />
        </mxCell>
        <mxCell id="KiXoswTGTcqF2VSnwYO5-47" value="ProductCode" style="text;strokeColor=none;fillColor=none;spacingLeft=4;spacingRight=4;overflow=hidden;rotatable=0;points=[[0,0.5],[1,0.5]];portConstraint=eastwest;fontSize=12;" parent="KiXoswTGTcqF2VSnwYO5-43" vertex="1">
          <mxGeometry y="100" width="210" height="26" as="geometry" />
        </mxCell>
        <mxCell id="KiXoswTGTcqF2VSnwYO5-48" value="PlanId" style="text;strokeColor=none;fillColor=none;spacingLeft=4;spacingRight=4;overflow=hidden;rotatable=0;points=[[0,0.5],[1,0.5]];portConstraint=eastwest;fontSize=12;" parent="KiXoswTGTcqF2VSnwYO5-43" vertex="1">
          <mxGeometry y="126" width="210" height="26" as="geometry" />
        </mxCell>
        <mxCell id="KiXoswTGTcqF2VSnwYO5-49" value="PlanName" style="text;strokeColor=none;fillColor=none;spacingLeft=4;spacingRight=4;overflow=hidden;rotatable=0;points=[[0,0.5],[1,0.5]];portConstraint=eastwest;fontSize=12;" parent="KiXoswTGTcqF2VSnwYO5-43" vertex="1">
          <mxGeometry y="152" width="210" height="26" as="geometry" />
        </mxCell>
        <mxCell id="KiXoswTGTcqF2VSnwYO5-50" value="PlanCode" style="text;strokeColor=none;fillColor=none;spacingLeft=4;spacingRight=4;overflow=hidden;rotatable=0;points=[[0,0.5],[1,0.5]];portConstraint=eastwest;fontSize=12;" parent="KiXoswTGTcqF2VSnwYO5-43" vertex="1">
          <mxGeometry y="178" width="210" height="26" as="geometry" />
        </mxCell>
        <mxCell id="KiXoswTGTcqF2VSnwYO5-52" value="PlanPremiumId" style="text;strokeColor=none;fillColor=none;spacingLeft=4;spacingRight=4;overflow=hidden;rotatable=0;points=[[0,0.5],[1,0.5]];portConstraint=eastwest;fontSize=12;" parent="KiXoswTGTcqF2VSnwYO5-43" vertex="1">
          <mxGeometry y="204" width="210" height="26" as="geometry" />
        </mxCell>
        <mxCell id="KiXoswTGTcqF2VSnwYO5-53" value="BusinessTypeId" style="text;strokeColor=none;fillColor=none;spacingLeft=4;spacingRight=4;overflow=hidden;rotatable=0;points=[[0,0.5],[1,0.5]];portConstraint=eastwest;fontSize=12;" parent="KiXoswTGTcqF2VSnwYO5-43" vertex="1">
          <mxGeometry y="230" width="210" height="26" as="geometry" />
        </mxCell>
        <mxCell id="KiXoswTGTcqF2VSnwYO5-54" value="BusinessTypeCode" style="text;strokeColor=none;fillColor=none;spacingLeft=4;spacingRight=4;overflow=hidden;rotatable=0;points=[[0,0.5],[1,0.5]];portConstraint=eastwest;fontSize=12;" parent="KiXoswTGTcqF2VSnwYO5-43" vertex="1">
          <mxGeometry y="256" width="210" height="26" as="geometry" />
        </mxCell>
        <mxCell id="THhi0MXmiFV5PUiAw02N-21" value="OrderOneItemFact" style="swimlane;fontStyle=0;childLayout=stackLayout;horizontal=1;startSize=22;horizontalStack=0;resizeParent=1;resizeParentMax=0;resizeLast=0;collapsible=1;marginBottom=0;align=center;fontSize=14;strokeColor=#d6b656;fillColor=#fff2cc;" parent="1" vertex="1">
          <mxGeometry x="1340" y="-1860" width="210" height="152" as="geometry" />
        </mxCell>
        <mxCell id="THhi0MXmiFV5PUiAw02N-22" value="Key" style="text;strokeColor=none;fillColor=none;spacingLeft=4;spacingRight=4;overflow=hidden;rotatable=0;points=[[0,0.5],[1,0.5]];portConstraint=eastwest;fontSize=12;" parent="THhi0MXmiFV5PUiAw02N-21" vertex="1">
          <mxGeometry y="22" width="210" height="26" as="geometry" />
        </mxCell>
        <mxCell id="KiXoswTGTcqF2VSnwYO5-1" value="OrderNumber" style="text;strokeColor=none;fillColor=none;spacingLeft=4;spacingRight=4;overflow=hidden;rotatable=0;points=[[0,0.5],[1,0.5]];portConstraint=eastwest;fontSize=12;" parent="THhi0MXmiFV5PUiAw02N-21" vertex="1">
          <mxGeometry y="48" width="210" height="26" as="geometry" />
        </mxCell>
        <mxCell id="KiXoswTGTcqF2VSnwYO5-9" value="Price" style="text;strokeColor=none;fillColor=none;spacingLeft=4;spacingRight=4;overflow=hidden;rotatable=0;points=[[0,0.5],[1,0.5]];portConstraint=eastwest;fontSize=12;" parent="THhi0MXmiFV5PUiAw02N-21" vertex="1">
          <mxGeometry y="74" width="210" height="26" as="geometry" />
        </mxCell>
        <mxCell id="KiXoswTGTcqF2VSnwYO5-2" value="Discount" style="text;strokeColor=none;fillColor=none;spacingLeft=4;spacingRight=4;overflow=hidden;rotatable=0;points=[[0,0.5],[1,0.5]];portConstraint=eastwest;fontSize=12;" parent="THhi0MXmiFV5PUiAw02N-21" vertex="1">
          <mxGeometry y="100" width="210" height="26" as="geometry" />
        </mxCell>
        <mxCell id="KiXoswTGTcqF2VSnwYO5-3" value="Premium" style="text;strokeColor=none;fillColor=none;spacingLeft=4;spacingRight=4;overflow=hidden;rotatable=0;points=[[0,0.5],[1,0.5]];portConstraint=eastwest;fontSize=12;" parent="THhi0MXmiFV5PUiAw02N-21" vertex="1">
          <mxGeometry y="126" width="210" height="26" as="geometry" />
        </mxCell>
        <mxCell id="KiXoswTGTcqF2VSnwYO5-37" value="PolicyDim" style="swimlane;fontStyle=0;childLayout=stackLayout;horizontal=1;startSize=22;horizontalStack=0;resizeParent=1;resizeParentMax=0;resizeLast=0;collapsible=1;marginBottom=0;align=center;fontSize=14;fillColor=#ffe6cc;strokeColor=#d79b00;" parent="1" vertex="1">
          <mxGeometry x="690" y="-1890" width="210" height="152" as="geometry" />
        </mxCell>
        <mxCell id="KiXoswTGTcqF2VSnwYO5-38" value="Key" style="text;strokeColor=none;fillColor=none;spacingLeft=4;spacingRight=4;overflow=hidden;rotatable=0;points=[[0,0.5],[1,0.5]];portConstraint=eastwest;fontSize=12;" parent="KiXoswTGTcqF2VSnwYO5-37" vertex="1">
          <mxGeometry y="22" width="210" height="26" as="geometry" />
        </mxCell>
        <mxCell id="KiXoswTGTcqF2VSnwYO5-39" value="PolicyId" style="text;strokeColor=none;fillColor=none;spacingLeft=4;spacingRight=4;overflow=hidden;rotatable=0;points=[[0,0.5],[1,0.5]];portConstraint=eastwest;fontSize=12;" parent="KiXoswTGTcqF2VSnwYO5-37" vertex="1">
          <mxGeometry y="48" width="210" height="26" as="geometry" />
        </mxCell>
        <mxCell id="KiXoswTGTcqF2VSnwYO5-42" value="Status" style="text;strokeColor=none;fillColor=none;spacingLeft=4;spacingRight=4;overflow=hidden;rotatable=0;points=[[0,0.5],[1,0.5]];portConstraint=eastwest;fontSize=12;" parent="KiXoswTGTcqF2VSnwYO5-37" vertex="1">
          <mxGeometry y="74" width="210" height="26" as="geometry" />
        </mxCell>
        <mxCell id="KiXoswTGTcqF2VSnwYO5-40" value="Number" style="text;strokeColor=none;fillColor=none;spacingLeft=4;spacingRight=4;overflow=hidden;rotatable=0;points=[[0,0.5],[1,0.5]];portConstraint=eastwest;fontSize=12;" parent="KiXoswTGTcqF2VSnwYO5-37" vertex="1">
          <mxGeometry y="100" width="210" height="26" as="geometry" />
        </mxCell>
        <mxCell id="KiXoswTGTcqF2VSnwYO5-41" value="YearlyEffectiveFromDate" style="text;strokeColor=none;fillColor=none;spacingLeft=4;spacingRight=4;overflow=hidden;rotatable=0;points=[[0,0.5],[1,0.5]];portConstraint=eastwest;fontSize=12;" parent="KiXoswTGTcqF2VSnwYO5-37" vertex="1">
          <mxGeometry y="126" width="210" height="26" as="geometry" />
        </mxCell>
        <mxCell id="KiXoswTGTcqF2VSnwYO5-11" value="InsuredDim" style="swimlane;fontStyle=0;childLayout=stackLayout;horizontal=1;startSize=22;horizontalStack=0;resizeParent=1;resizeParentMax=0;resizeLast=0;collapsible=1;marginBottom=0;align=center;fontSize=14;fillColor=#ffe6cc;strokeColor=#d79b00;" parent="1" vertex="1">
          <mxGeometry x="1890" y="-1900" width="210" height="204" as="geometry" />
        </mxCell>
        <mxCell id="KiXoswTGTcqF2VSnwYO5-12" value="Key" style="text;strokeColor=none;fillColor=none;spacingLeft=4;spacingRight=4;overflow=hidden;rotatable=0;points=[[0,0.5],[1,0.5]];portConstraint=eastwest;fontSize=12;" parent="KiXoswTGTcqF2VSnwYO5-11" vertex="1">
          <mxGeometry y="22" width="210" height="26" as="geometry" />
        </mxCell>
        <mxCell id="KiXoswTGTcqF2VSnwYO5-13" value="PartyId" style="text;strokeColor=none;fillColor=none;spacingLeft=4;spacingRight=4;overflow=hidden;rotatable=0;points=[[0,0.5],[1,0.5]];portConstraint=eastwest;fontSize=12;" parent="KiXoswTGTcqF2VSnwYO5-11" vertex="1">
          <mxGeometry y="48" width="210" height="26" as="geometry" />
        </mxCell>
        <mxCell id="KiXoswTGTcqF2VSnwYO5-27" value="Title" style="text;strokeColor=none;fillColor=none;spacingLeft=4;spacingRight=4;overflow=hidden;rotatable=0;points=[[0,0.5],[1,0.5]];portConstraint=eastwest;fontSize=12;" parent="KiXoswTGTcqF2VSnwYO5-11" vertex="1">
          <mxGeometry y="74" width="210" height="26" as="geometry" />
        </mxCell>
        <mxCell id="KiXoswTGTcqF2VSnwYO5-15" value="Firstname" style="text;strokeColor=none;fillColor=none;spacingLeft=4;spacingRight=4;overflow=hidden;rotatable=0;points=[[0,0.5],[1,0.5]];portConstraint=eastwest;fontSize=12;" parent="KiXoswTGTcqF2VSnwYO5-11" vertex="1">
          <mxGeometry y="100" width="210" height="26" as="geometry" />
        </mxCell>
        <mxCell id="KiXoswTGTcqF2VSnwYO5-14" value="Lastname" style="text;strokeColor=none;fillColor=none;spacingLeft=4;spacingRight=4;overflow=hidden;rotatable=0;points=[[0,0.5],[1,0.5]];portConstraint=eastwest;fontSize=12;" parent="KiXoswTGTcqF2VSnwYO5-11" vertex="1">
          <mxGeometry y="126" width="210" height="26" as="geometry" />
        </mxCell>
        <mxCell id="KiXoswTGTcqF2VSnwYO5-61" value="CitizenId" style="text;strokeColor=none;fillColor=none;spacingLeft=4;spacingRight=4;overflow=hidden;rotatable=0;points=[[0,0.5],[1,0.5]];portConstraint=eastwest;fontSize=12;" parent="KiXoswTGTcqF2VSnwYO5-11" vertex="1">
          <mxGeometry y="152" width="210" height="26" as="geometry" />
        </mxCell>
        <mxCell id="KiXoswTGTcqF2VSnwYO5-62" value="Address" style="text;strokeColor=none;fillColor=none;spacingLeft=4;spacingRight=4;overflow=hidden;rotatable=0;points=[[0,0.5],[1,0.5]];portConstraint=eastwest;fontSize=12;" parent="KiXoswTGTcqF2VSnwYO5-11" vertex="1">
          <mxGeometry y="178" width="210" height="26" as="geometry" />
        </mxCell>
        <mxCell id="KiXoswTGTcqF2VSnwYO5-29" value="OrderPaidDim" style="swimlane;fontStyle=0;childLayout=stackLayout;horizontal=1;startSize=22;horizontalStack=0;resizeParent=1;resizeParentMax=0;resizeLast=0;collapsible=1;marginBottom=0;align=center;fontSize=14;fillColor=#ffe6cc;strokeColor=#d79b00;" parent="1" vertex="1">
          <mxGeometry x="1190" y="-1480" width="210" height="74" as="geometry" />
        </mxCell>
        <mxCell id="KiXoswTGTcqF2VSnwYO5-30" value="Key" style="text;strokeColor=none;fillColor=none;spacingLeft=4;spacingRight=4;overflow=hidden;rotatable=0;points=[[0,0.5],[1,0.5]];portConstraint=eastwest;fontSize=12;" parent="KiXoswTGTcqF2VSnwYO5-29" vertex="1">
          <mxGeometry y="22" width="210" height="26" as="geometry" />
        </mxCell>
        <mxCell id="KiXoswTGTcqF2VSnwYO5-31" value="PartyId" style="text;strokeColor=none;fillColor=none;spacingLeft=4;spacingRight=4;overflow=hidden;rotatable=0;points=[[0,0.5],[1,0.5]];portConstraint=eastwest;fontSize=12;" parent="KiXoswTGTcqF2VSnwYO5-29" vertex="1">
          <mxGeometry y="48" width="210" height="26" as="geometry" />
        </mxCell>
        <mxCell id="17nkkkLWe5lEtefS8qls-48" value="CoverageFact" style="swimlane;fontStyle=0;childLayout=stackLayout;horizontal=1;startSize=22;horizontalStack=0;resizeParent=1;resizeParentMax=0;resizeLast=0;collapsible=1;marginBottom=0;align=center;fontSize=14;fillColor=#FFF2CC;strokeColor=#d79b00;" parent="1" vertex="1">
          <mxGeometry x="290" y="-2121" width="210" height="204" as="geometry" />
        </mxCell>
        <mxCell id="17nkkkLWe5lEtefS8qls-49" value="Key" style="text;strokeColor=none;fillColor=none;spacingLeft=4;spacingRight=4;overflow=hidden;rotatable=0;points=[[0,0.5],[1,0.5]];portConstraint=eastwest;fontSize=12;" parent="17nkkkLWe5lEtefS8qls-48" vertex="1">
          <mxGeometry y="22" width="210" height="26" as="geometry" />
        </mxCell>
        <mxCell id="17nkkkLWe5lEtefS8qls-50" value="Code" style="text;strokeColor=none;fillColor=none;spacingLeft=4;spacingRight=4;overflow=hidden;rotatable=0;points=[[0,0.5],[1,0.5]];portConstraint=eastwest;fontSize=12;" parent="17nkkkLWe5lEtefS8qls-48" vertex="1">
          <mxGeometry y="48" width="210" height="26" as="geometry" />
        </mxCell>
        <mxCell id="17nkkkLWe5lEtefS8qls-51" value="Name" style="text;strokeColor=none;fillColor=none;spacingLeft=4;spacingRight=4;overflow=hidden;rotatable=0;points=[[0,0.5],[1,0.5]];portConstraint=eastwest;fontSize=12;" parent="17nkkkLWe5lEtefS8qls-48" vertex="1">
          <mxGeometry y="74" width="210" height="26" as="geometry" />
        </mxCell>
        <mxCell id="17nkkkLWe5lEtefS8qls-52" value="Amount" style="text;strokeColor=none;fillColor=none;spacingLeft=4;spacingRight=4;overflow=hidden;rotatable=0;points=[[0,0.5],[1,0.5]];portConstraint=eastwest;fontSize=12;" parent="17nkkkLWe5lEtefS8qls-48" vertex="1">
          <mxGeometry y="100" width="210" height="26" as="geometry" />
        </mxCell>
        <mxCell id="17nkkkLWe5lEtefS8qls-53" value="Unit" style="text;strokeColor=none;fillColor=none;spacingLeft=4;spacingRight=4;overflow=hidden;rotatable=0;points=[[0,0.5],[1,0.5]];portConstraint=eastwest;fontSize=12;" parent="17nkkkLWe5lEtefS8qls-48" vertex="1">
          <mxGeometry y="126" width="210" height="26" as="geometry" />
        </mxCell>
        <mxCell id="17nkkkLWe5lEtefS8qls-55" value="Description" style="text;strokeColor=none;fillColor=none;spacingLeft=4;spacingRight=4;overflow=hidden;rotatable=0;points=[[0,0.5],[1,0.5]];portConstraint=eastwest;fontSize=12;" parent="17nkkkLWe5lEtefS8qls-48" vertex="1">
          <mxGeometry y="152" width="210" height="26" as="geometry" />
        </mxCell>
        <mxCell id="17nkkkLWe5lEtefS8qls-54" value="IsMainCoverage" style="text;strokeColor=none;fillColor=none;spacingLeft=4;spacingRight=4;overflow=hidden;rotatable=0;points=[[0,0.5],[1,0.5]];portConstraint=eastwest;fontSize=12;" parent="17nkkkLWe5lEtefS8qls-48" vertex="1">
          <mxGeometry y="178" width="210" height="26" as="geometry" />
        </mxCell>
        <mxCell id="WDwS9hlg-Zl9L9CRXzQi-51" value="PaymentType" style="swimlane;fontStyle=0;childLayout=stackLayout;horizontal=1;startSize=26;horizontalStack=0;resizeParent=1;resizeParentMax=0;resizeLast=0;collapsible=1;marginBottom=0;align=center;fontSize=14;fillColor=#FF9999;strokeColor=#b85450;" parent="1" vertex="1">
          <mxGeometry x="-30" y="955" width="235" height="78" as="geometry" />
        </mxCell>
        <mxCell id="WDwS9hlg-Zl9L9CRXzQi-52" value="Id" style="text;strokeColor=none;fillColor=none;spacingLeft=4;spacingRight=4;overflow=hidden;rotatable=0;points=[[0,0.5],[1,0.5]];portConstraint=eastwest;fontSize=12;" parent="WDwS9hlg-Zl9L9CRXzQi-51" vertex="1">
          <mxGeometry y="26" width="235" height="26" as="geometry" />
        </mxCell>
        <mxCell id="WDwS9hlg-Zl9L9CRXzQi-53" value="Name { RECEIPT, DISBURSEMENT }" style="text;strokeColor=none;fillColor=none;spacingLeft=4;spacingRight=4;overflow=hidden;rotatable=0;points=[[0,0.5],[1,0.5]];portConstraint=eastwest;fontSize=12;" parent="WDwS9hlg-Zl9L9CRXzQi-51" vertex="1">
          <mxGeometry y="52" width="235" height="26" as="geometry" />
        </mxCell>
        <mxCell id="KiXoswTGTcqF2VSnwYO5-55" value="BeneficiaryDim" style="swimlane;fontStyle=0;childLayout=stackLayout;horizontal=1;startSize=22;horizontalStack=0;resizeParent=1;resizeParentMax=0;resizeLast=0;collapsible=1;marginBottom=0;align=center;fontSize=14;fillColor=#ffe6cc;strokeColor=#d79b00;" parent="1" vertex="1">
          <mxGeometry x="1900" y="-1640" width="210" height="152" as="geometry" />
        </mxCell>
        <mxCell id="KiXoswTGTcqF2VSnwYO5-56" value="Key" style="text;strokeColor=none;fillColor=none;spacingLeft=4;spacingRight=4;overflow=hidden;rotatable=0;points=[[0,0.5],[1,0.5]];portConstraint=eastwest;fontSize=12;" parent="KiXoswTGTcqF2VSnwYO5-55" vertex="1">
          <mxGeometry y="22" width="210" height="26" as="geometry" />
        </mxCell>
        <mxCell id="KiXoswTGTcqF2VSnwYO5-57" value="PartyId" style="text;strokeColor=none;fillColor=none;spacingLeft=4;spacingRight=4;overflow=hidden;rotatable=0;points=[[0,0.5],[1,0.5]];portConstraint=eastwest;fontSize=12;" parent="KiXoswTGTcqF2VSnwYO5-55" vertex="1">
          <mxGeometry y="48" width="210" height="26" as="geometry" />
        </mxCell>
        <mxCell id="KiXoswTGTcqF2VSnwYO5-59" value="Firstname" style="text;strokeColor=none;fillColor=none;spacingLeft=4;spacingRight=4;overflow=hidden;rotatable=0;points=[[0,0.5],[1,0.5]];portConstraint=eastwest;fontSize=12;" parent="KiXoswTGTcqF2VSnwYO5-55" vertex="1">
          <mxGeometry y="74" width="210" height="26" as="geometry" />
        </mxCell>
        <mxCell id="KiXoswTGTcqF2VSnwYO5-60" value="Lastname" style="text;strokeColor=none;fillColor=none;spacingLeft=4;spacingRight=4;overflow=hidden;rotatable=0;points=[[0,0.5],[1,0.5]];portConstraint=eastwest;fontSize=12;" parent="KiXoswTGTcqF2VSnwYO5-55" vertex="1">
          <mxGeometry y="100" width="210" height="26" as="geometry" />
        </mxCell>
        <mxCell id="KiXoswTGTcqF2VSnwYO5-58" value="Relationship" style="text;strokeColor=none;fillColor=none;spacingLeft=4;spacingRight=4;overflow=hidden;rotatable=0;points=[[0,0.5],[1,0.5]];portConstraint=eastwest;fontSize=12;" parent="KiXoswTGTcqF2VSnwYO5-55" vertex="1">
          <mxGeometry y="126" width="210" height="26" as="geometry" />
        </mxCell>
        <mxCell id="KiXoswTGTcqF2VSnwYO5-16" value="OrderContactDim" style="swimlane;fontStyle=0;childLayout=stackLayout;horizontal=1;startSize=22;horizontalStack=0;resizeParent=1;resizeParentMax=0;resizeLast=0;collapsible=1;marginBottom=0;align=center;fontSize=14;fillColor=#ffe6cc;strokeColor=#d79b00;" parent="1" vertex="1">
          <mxGeometry x="1330" y="-1360" width="210" height="152" as="geometry" />
        </mxCell>
        <mxCell id="KiXoswTGTcqF2VSnwYO5-17" value="Key" style="text;strokeColor=none;fillColor=none;spacingLeft=4;spacingRight=4;overflow=hidden;rotatable=0;points=[[0,0.5],[1,0.5]];portConstraint=eastwest;fontSize=12;" parent="KiXoswTGTcqF2VSnwYO5-16" vertex="1">
          <mxGeometry y="22" width="210" height="26" as="geometry" />
        </mxCell>
        <mxCell id="KiXoswTGTcqF2VSnwYO5-28" value="PartyId" style="text;strokeColor=none;fillColor=none;spacingLeft=4;spacingRight=4;overflow=hidden;rotatable=0;points=[[0,0.5],[1,0.5]];portConstraint=eastwest;fontSize=12;" parent="KiXoswTGTcqF2VSnwYO5-16" vertex="1">
          <mxGeometry y="48" width="210" height="26" as="geometry" />
        </mxCell>
        <mxCell id="KiXoswTGTcqF2VSnwYO5-19" value="Firstname" style="text;strokeColor=none;fillColor=none;spacingLeft=4;spacingRight=4;overflow=hidden;rotatable=0;points=[[0,0.5],[1,0.5]];portConstraint=eastwest;fontSize=12;" parent="KiXoswTGTcqF2VSnwYO5-16" vertex="1">
          <mxGeometry y="74" width="210" height="26" as="geometry" />
        </mxCell>
        <mxCell id="KiXoswTGTcqF2VSnwYO5-20" value="Lastname" style="text;strokeColor=none;fillColor=none;spacingLeft=4;spacingRight=4;overflow=hidden;rotatable=0;points=[[0,0.5],[1,0.5]];portConstraint=eastwest;fontSize=12;" parent="KiXoswTGTcqF2VSnwYO5-16" vertex="1">
          <mxGeometry y="100" width="210" height="26" as="geometry" />
        </mxCell>
        <mxCell id="KiXoswTGTcqF2VSnwYO5-18" value="Mobile" style="text;strokeColor=none;fillColor=none;spacingLeft=4;spacingRight=4;overflow=hidden;rotatable=0;points=[[0,0.5],[1,0.5]];portConstraint=eastwest;fontSize=12;" parent="KiXoswTGTcqF2VSnwYO5-16" vertex="1">
          <mxGeometry y="126" width="210" height="26" as="geometry" />
        </mxCell>
        <mxCell id="17nkkkLWe5lEtefS8qls-60" value="InvoiceType" style="swimlane;fontStyle=0;childLayout=stackLayout;horizontal=1;startSize=26;horizontalStack=0;resizeParent=1;resizeParentMax=0;resizeLast=0;collapsible=1;marginBottom=0;align=center;fontSize=14;fillColor=#FF9999;strokeColor=#b85450;" parent="1" vertex="1">
          <mxGeometry x="80" y="447" width="160" height="104" as="geometry" />
        </mxCell>
        <mxCell id="17nkkkLWe5lEtefS8qls-61" value="Id" style="text;strokeColor=none;fillColor=none;spacingLeft=4;spacingRight=4;overflow=hidden;rotatable=0;points=[[0,0.5],[1,0.5]];portConstraint=eastwest;fontSize=12;" parent="17nkkkLWe5lEtefS8qls-60" vertex="1">
          <mxGeometry y="26" width="160" height="26" as="geometry" />
        </mxCell>
        <mxCell id="17nkkkLWe5lEtefS8qls-62" value="Name" style="text;strokeColor=none;fillColor=none;spacingLeft=4;spacingRight=4;overflow=hidden;rotatable=0;points=[[0,0.5],[1,0.5]];portConstraint=eastwest;fontSize=12;" parent="17nkkkLWe5lEtefS8qls-60" vertex="1">
          <mxGeometry y="52" width="160" height="26" as="geometry" />
        </mxCell>
        <mxCell id="17nkkkLWe5lEtefS8qls-63" value="Prefix { H1 }" style="text;strokeColor=none;fillColor=none;spacingLeft=4;spacingRight=4;overflow=hidden;rotatable=0;points=[[0,0.5],[1,0.5]];portConstraint=eastwest;fontSize=12;" parent="17nkkkLWe5lEtefS8qls-60" vertex="1">
          <mxGeometry y="78" width="160" height="26" as="geometry" />
        </mxCell>
        <mxCell id="WDwS9hlg-Zl9L9CRXzQi-74" value="" style="edgeStyle=orthogonalEdgeStyle;fontSize=12;html=1;endArrow=ERmany;" parent="1" source="5tScs2i6ls9q81FOWfNb-1" target="WDwS9hlg-Zl9L9CRXzQi-69" edge="1">
          <mxGeometry width="100" height="100" relative="1" as="geometry">
            <mxPoint x="2780" y="-640" as="sourcePoint" />
            <mxPoint x="2762.5" y="-669.9655172413791" as="targetPoint" />
            <Array as="points">
              <mxPoint x="2710" y="-610" />
            </Array>
          </mxGeometry>
        </mxCell>
        <mxCell id="4bJShYl02M1BMANjru1z-36" value="PolicyStatus" style="swimlane;fontStyle=0;childLayout=stackLayout;horizontal=1;startSize=26;horizontalStack=0;resizeParent=1;resizeParentMax=0;resizeLast=0;collapsible=1;marginBottom=0;align=center;fontSize=14;fillColor=#e1d5e7;strokeColor=#9673a6;" parent="1" vertex="1">
          <mxGeometry x="2860" y="-836" width="160" height="52" as="geometry" />
        </mxCell>
        <mxCell id="4bJShYl02M1BMANjru1z-37" value="Id" style="text;strokeColor=none;fillColor=none;spacingLeft=4;spacingRight=4;overflow=hidden;rotatable=0;points=[[0,0.5],[1,0.5]];portConstraint=eastwest;fontSize=12;" parent="4bJShYl02M1BMANjru1z-36" vertex="1">
          <mxGeometry y="26" width="160" height="26" as="geometry" />
        </mxCell>
        <mxCell id="4bJShYl02M1BMANjru1z-40" value="PolicyStatusType" style="swimlane;fontStyle=0;childLayout=stackLayout;horizontal=1;startSize=26;horizontalStack=0;resizeParent=1;resizeParentMax=0;resizeLast=0;collapsible=1;marginBottom=0;align=center;fontSize=14;fillColor=#e1d5e7;strokeColor=#9673a6;" parent="1" vertex="1">
          <mxGeometry x="3082.5" y="-849" width="267.5" height="78" as="geometry" />
        </mxCell>
        <mxCell id="4bJShYl02M1BMANjru1z-41" value="Id" style="text;strokeColor=none;fillColor=none;spacingLeft=4;spacingRight=4;overflow=hidden;rotatable=0;points=[[0,0.5],[1,0.5]];portConstraint=eastwest;fontSize=12;" parent="4bJShYl02M1BMANjru1z-40" vertex="1">
          <mxGeometry y="26" width="267.5" height="26" as="geometry" />
        </mxCell>
        <mxCell id="4bJShYl02M1BMANjru1z-42" value="Name { PENDING, SENT, ISSUED, ERROR }" style="text;strokeColor=none;fillColor=none;spacingLeft=4;spacingRight=4;overflow=hidden;rotatable=0;points=[[0,0.5],[1,0.5]];portConstraint=eastwest;fontSize=12;" parent="4bJShYl02M1BMANjru1z-40" vertex="1">
          <mxGeometry y="52" width="267.5" height="26" as="geometry" />
        </mxCell>
        <mxCell id="9VPl8Ob1ecwuD47OIKzU-1" value="PolicyType" style="swimlane;fontStyle=0;childLayout=stackLayout;horizontal=1;startSize=26;horizontalStack=0;resizeParent=1;resizeParentMax=0;resizeLast=0;collapsible=1;marginBottom=0;align=center;fontSize=14;fillColor=#e1d5e7;strokeColor=#9673a6;" parent="1" vertex="1">
          <mxGeometry x="3030" y="-743" width="160" height="104" as="geometry" />
        </mxCell>
        <mxCell id="9VPl8Ob1ecwuD47OIKzU-2" value="Id" style="text;strokeColor=none;fillColor=none;spacingLeft=4;spacingRight=4;overflow=hidden;rotatable=0;points=[[0,0.5],[1,0.5]];portConstraint=eastwest;fontSize=12;" parent="9VPl8Ob1ecwuD47OIKzU-1" vertex="1">
          <mxGeometry y="26" width="160" height="26" as="geometry" />
        </mxCell>
        <mxCell id="9VPl8Ob1ecwuD47OIKzU-5" value="Name { AHD }" style="text;strokeColor=none;fillColor=none;spacingLeft=4;spacingRight=4;overflow=hidden;rotatable=0;points=[[0,0.5],[1,0.5]];portConstraint=eastwest;fontSize=12;" parent="9VPl8Ob1ecwuD47OIKzU-1" vertex="1">
          <mxGeometry y="52" width="160" height="26" as="geometry" />
        </mxCell>
        <mxCell id="17nkkkLWe5lEtefS8qls-58" value="Prefix { G9 }" style="text;strokeColor=none;fillColor=none;spacingLeft=4;spacingRight=4;overflow=hidden;rotatable=0;points=[[0,0.5],[1,0.5]];portConstraint=eastwest;fontSize=12;" parent="9VPl8Ob1ecwuD47OIKzU-1" vertex="1">
          <mxGeometry y="78" width="160" height="26" as="geometry" />
        </mxCell>
        <mxCell id="THhi0MXmiFV5PUiAw02N-4" value="PolicyOrderItem" style="swimlane;fontStyle=0;childLayout=stackLayout;horizontal=1;startSize=26;horizontalStack=0;resizeParent=1;resizeParentMax=0;resizeLast=0;collapsible=1;marginBottom=0;align=center;fontSize=14;fillColor=#e1d5e7;strokeColor=#9673a6;" parent="1" vertex="1">
          <mxGeometry x="2330" y="-771" width="160" height="78" as="geometry" />
        </mxCell>
        <mxCell id="THhi0MXmiFV5PUiAw02N-5" value="Id" style="text;strokeColor=none;fillColor=none;spacingLeft=4;spacingRight=4;overflow=hidden;rotatable=0;points=[[0,0.5],[1,0.5]];portConstraint=eastwest;fontSize=12;" parent="THhi0MXmiFV5PUiAw02N-4" vertex="1">
          <mxGeometry y="26" width="160" height="26" as="geometry" />
        </mxCell>
        <mxCell id="THhi0MXmiFV5PUiAw02N-8" value="OrderSource" style="text;strokeColor=none;fillColor=none;spacingLeft=4;spacingRight=4;overflow=hidden;rotatable=0;points=[[0,0.5],[1,0.5]];portConstraint=eastwest;fontSize=12;" parent="THhi0MXmiFV5PUiAw02N-4" vertex="1">
          <mxGeometry y="52" width="160" height="26" as="geometry" />
        </mxCell>
        <mxCell id="WDwS9hlg-Zl9L9CRXzQi-69" value="PolicyNumber" style="swimlane;fontStyle=0;childLayout=stackLayout;horizontal=1;startSize=26;horizontalStack=0;resizeParent=1;resizeParentMax=0;resizeLast=0;collapsible=1;marginBottom=0;align=center;fontSize=14;fillColor=#e1d5e7;strokeColor=#9673a6;" parent="1" vertex="1">
          <mxGeometry x="2830" y="-669.5" width="160" height="156" as="geometry" />
        </mxCell>
        <mxCell id="WDwS9hlg-Zl9L9CRXzQi-70" value="Id" style="text;strokeColor=none;fillColor=none;spacingLeft=4;spacingRight=4;overflow=hidden;rotatable=0;points=[[0,0.5],[1,0.5]];portConstraint=eastwest;fontSize=12;" parent="WDwS9hlg-Zl9L9CRXzQi-69" vertex="1">
          <mxGeometry y="26" width="160" height="26" as="geometry" />
        </mxCell>
        <mxCell id="WDwS9hlg-Zl9L9CRXzQi-71" value="Number" style="text;strokeColor=none;fillColor=none;spacingLeft=4;spacingRight=4;overflow=hidden;rotatable=0;points=[[0,0.5],[1,0.5]];portConstraint=eastwest;fontSize=12;" parent="WDwS9hlg-Zl9L9CRXzQi-69" vertex="1">
          <mxGeometry y="52" width="160" height="26" as="geometry" />
        </mxCell>
        <mxCell id="WDwS9hlg-Zl9L9CRXzQi-73" value="Seq" style="text;strokeColor=none;fillColor=none;spacingLeft=4;spacingRight=4;overflow=hidden;rotatable=0;points=[[0,0.5],[1,0.5]];portConstraint=eastwest;fontSize=12;" parent="WDwS9hlg-Zl9L9CRXzQi-69" vertex="1">
          <mxGeometry y="78" width="160" height="26" as="geometry" />
        </mxCell>
        <mxCell id="WDwS9hlg-Zl9L9CRXzQi-75" value="EffectiveFromDate" style="text;strokeColor=none;fillColor=none;spacingLeft=4;spacingRight=4;overflow=hidden;rotatable=0;points=[[0,0.5],[1,0.5]];portConstraint=eastwest;fontSize=12;" parent="WDwS9hlg-Zl9L9CRXzQi-69" vertex="1">
          <mxGeometry y="104" width="160" height="26" as="geometry" />
        </mxCell>
        <mxCell id="WDwS9hlg-Zl9L9CRXzQi-76" value="EffectiveToDate" style="text;strokeColor=none;fillColor=none;spacingLeft=4;spacingRight=4;overflow=hidden;rotatable=0;points=[[0,0.5],[1,0.5]];portConstraint=eastwest;fontSize=12;" parent="WDwS9hlg-Zl9L9CRXzQi-69" vertex="1">
          <mxGeometry y="130" width="160" height="26" as="geometry" />
        </mxCell>
        <mxCell id="5tScs2i6ls9q81FOWfNb-8" value="PolicyPartyRole" style="swimlane;fontStyle=0;childLayout=stackLayout;horizontal=1;startSize=26;horizontalStack=0;resizeParent=1;resizeParentMax=0;resizeLast=0;collapsible=1;marginBottom=0;align=center;fontSize=14;fillColor=#e1d5e7;strokeColor=#9673a6;" parent="1" vertex="1">
          <mxGeometry x="2592.5" y="-1050" width="160" height="130" as="geometry" />
        </mxCell>
        <mxCell id="5tScs2i6ls9q81FOWfNb-9" value="Id" style="text;strokeColor=none;fillColor=none;spacingLeft=4;spacingRight=4;overflow=hidden;rotatable=0;points=[[0,0.5],[1,0.5]];portConstraint=eastwest;fontSize=12;" parent="5tScs2i6ls9q81FOWfNb-8" vertex="1">
          <mxGeometry y="26" width="160" height="26" as="geometry" />
        </mxCell>
        <mxCell id="5tScs2i6ls9q81FOWfNb-10" value="EffectiveFromDate" style="text;strokeColor=none;fillColor=none;spacingLeft=4;spacingRight=4;overflow=hidden;rotatable=0;points=[[0,0.5],[1,0.5]];portConstraint=eastwest;fontSize=12;" parent="5tScs2i6ls9q81FOWfNb-8" vertex="1">
          <mxGeometry y="52" width="160" height="26" as="geometry" />
        </mxCell>
        <mxCell id="5tScs2i6ls9q81FOWfNb-11" value="EffectiveToDate" style="text;strokeColor=none;fillColor=none;spacingLeft=4;spacingRight=4;overflow=hidden;rotatable=0;points=[[0,0.5],[1,0.5]];portConstraint=eastwest;fontSize=12;" parent="5tScs2i6ls9q81FOWfNb-8" vertex="1">
          <mxGeometry y="78" width="160" height="26" as="geometry" />
        </mxCell>
        <mxCell id="THhi0MXmiFV5PUiAw02N-1" value="PartySource" style="text;strokeColor=none;fillColor=none;spacingLeft=4;spacingRight=4;overflow=hidden;rotatable=0;points=[[0,0.5],[1,0.5]];portConstraint=eastwest;fontSize=12;" parent="5tScs2i6ls9q81FOWfNb-8" vertex="1">
          <mxGeometry y="104" width="160" height="26" as="geometry" />
        </mxCell>
        <mxCell id="5tScs2i6ls9q81FOWfNb-14" value="PolicyPartyRoleType" style="swimlane;fontStyle=0;childLayout=stackLayout;horizontal=1;startSize=26;horizontalStack=0;resizeParent=1;resizeParentMax=0;resizeLast=0;collapsible=1;marginBottom=0;align=center;fontSize=14;fillColor=#e1d5e7;strokeColor=#9673a6;" parent="1" vertex="1">
          <mxGeometry x="2840" y="-1024" width="520" height="78" as="geometry" />
        </mxCell>
        <mxCell id="5tScs2i6ls9q81FOWfNb-15" value="Id" style="text;strokeColor=none;fillColor=none;spacingLeft=4;spacingRight=4;overflow=hidden;rotatable=0;points=[[0,0.5],[1,0.5]];portConstraint=eastwest;fontSize=12;" parent="5tScs2i6ls9q81FOWfNb-14" vertex="1">
          <mxGeometry y="26" width="520" height="26" as="geometry" />
        </mxCell>
        <mxCell id="5tScs2i6ls9q81FOWfNb-16" value="Name { CUSTOMER, INSURED, INSURER, BENEFICIARY, AGENT, TAX_EXCEMPTION }" style="text;strokeColor=none;fillColor=none;spacingLeft=4;spacingRight=4;overflow=hidden;rotatable=0;points=[[0,0.5],[1,0.5]];portConstraint=eastwest;fontSize=12;" parent="5tScs2i6ls9q81FOWfNb-14" vertex="1">
          <mxGeometry y="52" width="520" height="26" as="geometry" />
        </mxCell>
        <mxCell id="WDwS9hlg-Zl9L9CRXzQi-89" value="PolicyPeriod" style="swimlane;fontStyle=0;childLayout=stackLayout;horizontal=1;startSize=26;horizontalStack=0;resizeParent=1;resizeParentMax=0;resizeLast=0;collapsible=1;marginBottom=0;align=center;fontSize=14;fillColor=#e1d5e7;strokeColor=#9673a6;" parent="1" vertex="1">
          <mxGeometry x="2390" y="-948" width="160" height="130" as="geometry" />
        </mxCell>
        <mxCell id="WDwS9hlg-Zl9L9CRXzQi-90" value="Id" style="text;strokeColor=none;fillColor=none;spacingLeft=4;spacingRight=4;overflow=hidden;rotatable=0;points=[[0,0.5],[1,0.5]];portConstraint=eastwest;fontSize=12;" parent="WDwS9hlg-Zl9L9CRXzQi-89" vertex="1">
          <mxGeometry y="26" width="160" height="26" as="geometry" />
        </mxCell>
        <mxCell id="WDwS9hlg-Zl9L9CRXzQi-91" value="Value" style="text;strokeColor=none;fillColor=none;spacingLeft=4;spacingRight=4;overflow=hidden;rotatable=0;points=[[0,0.5],[1,0.5]];portConstraint=eastwest;fontSize=12;" parent="WDwS9hlg-Zl9L9CRXzQi-89" vertex="1">
          <mxGeometry y="52" width="160" height="26" as="geometry" />
        </mxCell>
        <mxCell id="WDwS9hlg-Zl9L9CRXzQi-92" value="EffectiveFromDate" style="text;strokeColor=none;fillColor=none;spacingLeft=4;spacingRight=4;overflow=hidden;rotatable=0;points=[[0,0.5],[1,0.5]];portConstraint=eastwest;fontSize=12;" parent="WDwS9hlg-Zl9L9CRXzQi-89" vertex="1">
          <mxGeometry y="78" width="160" height="26" as="geometry" />
        </mxCell>
        <mxCell id="WDwS9hlg-Zl9L9CRXzQi-93" value="EffectiveToDate" style="text;strokeColor=none;fillColor=none;spacingLeft=4;spacingRight=4;overflow=hidden;rotatable=0;points=[[0,0.5],[1,0.5]];portConstraint=eastwest;fontSize=12;" parent="WDwS9hlg-Zl9L9CRXzQi-89" vertex="1">
          <mxGeometry y="104" width="160" height="26" as="geometry" />
        </mxCell>
        <mxCell id="WDwS9hlg-Zl9L9CRXzQi-85" value="PolicyPeriodType" style="swimlane;fontStyle=0;childLayout=stackLayout;horizontal=1;startSize=26;horizontalStack=0;resizeParent=1;resizeParentMax=0;resizeLast=0;collapsible=1;marginBottom=0;align=center;fontSize=14;fillColor=#e1d5e7;strokeColor=#9673a6;" parent="1" vertex="1">
          <mxGeometry x="2120" y="-948" width="160" height="78" as="geometry" />
        </mxCell>
        <mxCell id="WDwS9hlg-Zl9L9CRXzQi-86" value="Id" style="text;strokeColor=none;fillColor=none;spacingLeft=4;spacingRight=4;overflow=hidden;rotatable=0;points=[[0,0.5],[1,0.5]];portConstraint=eastwest;fontSize=12;" parent="WDwS9hlg-Zl9L9CRXzQi-85" vertex="1">
          <mxGeometry y="26" width="160" height="26" as="geometry" />
        </mxCell>
        <mxCell id="WDwS9hlg-Zl9L9CRXzQi-87" value="Name { YEAR }" style="text;strokeColor=none;fillColor=none;spacingLeft=4;spacingRight=4;overflow=hidden;rotatable=0;points=[[0,0.5],[1,0.5]];portConstraint=eastwest;fontSize=12;" parent="WDwS9hlg-Zl9L9CRXzQi-85" vertex="1">
          <mxGeometry y="52" width="160" height="26" as="geometry" />
        </mxCell>
        <mxCell id="WDwS9hlg-Zl9L9CRXzQi-94" value="" style="edgeStyle=orthogonalEdgeStyle;fontSize=12;html=1;endArrow=ERmany;entryX=0;entryY=0.5;entryDx=0;entryDy=0;" parent="1" source="WDwS9hlg-Zl9L9CRXzQi-85" target="WDwS9hlg-Zl9L9CRXzQi-90" edge="1">
          <mxGeometry width="100" height="100" relative="1" as="geometry">
            <mxPoint x="2020" y="-805" as="sourcePoint" />
            <mxPoint x="2020" y="-945" as="targetPoint" />
          </mxGeometry>
        </mxCell>
        <mxCell id="WDwS9hlg-Zl9L9CRXzQi-95" value="" style="edgeStyle=orthogonalEdgeStyle;fontSize=12;html=1;endArrow=ERmany;" parent="1" source="5tScs2i6ls9q81FOWfNb-1" target="WDwS9hlg-Zl9L9CRXzQi-89" edge="1">
          <mxGeometry width="100" height="100" relative="1" as="geometry">
            <mxPoint x="2290" y="-899" as="sourcePoint" />
            <mxPoint x="2400" y="-899" as="targetPoint" />
            <Array as="points">
              <mxPoint x="2630" y="-860" />
            </Array>
          </mxGeometry>
        </mxCell>
        <mxCell id="0TQyI1X9U9wz12JWhdh1-1" value="OrderPlanItem" style="swimlane;fontStyle=0;childLayout=stackLayout;horizontal=1;startSize=26;horizontalStack=0;resizeParent=1;resizeParentMax=0;resizeLast=0;collapsible=1;marginBottom=0;align=center;fontSize=14;fillColor=#FFCCE6;strokeColor=#b85450;" parent="1" vertex="1">
          <mxGeometry x="900" y="-351.5" width="160" height="78" as="geometry" />
        </mxCell>
        <mxCell id="0TQyI1X9U9wz12JWhdh1-2" value="Id" style="text;strokeColor=none;fillColor=none;spacingLeft=4;spacingRight=4;overflow=hidden;rotatable=0;points=[[0,0.5],[1,0.5]];portConstraint=eastwest;fontSize=12;" parent="0TQyI1X9U9wz12JWhdh1-1" vertex="1">
          <mxGeometry y="26" width="160" height="26" as="geometry" />
        </mxCell>
        <mxCell id="4bJShYl02M1BMANjru1z-17" value="ProductSource" style="text;strokeColor=none;fillColor=none;spacingLeft=4;spacingRight=4;overflow=hidden;rotatable=0;points=[[0,0.5],[1,0.5]];portConstraint=eastwest;fontSize=12;" parent="0TQyI1X9U9wz12JWhdh1-1" vertex="1">
          <mxGeometry y="52" width="160" height="26" as="geometry" />
        </mxCell>
        <mxCell id="e5138ga-Zsw3_W7Uqy_G-11" value="" style="edgeStyle=orthogonalEdgeStyle;fontSize=12;html=1;endArrow=ERmany;dashed=1;" edge="1" parent="1" source="gXIctKyo1TDuMm2zsvnv-8" target="e5138ga-Zsw3_W7Uqy_G-7">
          <mxGeometry width="100" height="100" relative="1" as="geometry">
            <mxPoint x="590" y="-620" as="sourcePoint" />
            <mxPoint x="690" y="-720" as="targetPoint" />
            <Array as="points">
              <mxPoint x="660" y="-247" />
              <mxPoint x="660" y="-781" />
            </Array>
          </mxGeometry>
        </mxCell>
        <mxCell id="e5138ga-Zsw3_W7Uqy_G-12" value="" style="edgeStyle=orthogonalEdgeStyle;fontSize=12;html=1;endArrow=ERmany;dashed=1;" edge="1" parent="1" source="_0oobIRNl8wnkdukzj8S-109" target="e5138ga-Zsw3_W7Uqy_G-7">
          <mxGeometry width="100" height="100" relative="1" as="geometry">
            <mxPoint x="590" y="-500" as="sourcePoint" />
            <mxPoint x="690" y="-600" as="targetPoint" />
            <Array as="points">
              <mxPoint x="750" y="-160" />
              <mxPoint x="750" y="-760" />
            </Array>
          </mxGeometry>
        </mxCell>
        <mxCell id="e5138ga-Zsw3_W7Uqy_G-13" value="" style="edgeStyle=orthogonalEdgeStyle;fontSize=12;html=1;endArrow=ERone;endFill=0;" edge="1" parent="1" source="gXIctKyo1TDuMm2zsvnv-62" target="e5138ga-Zsw3_W7Uqy_G-1">
          <mxGeometry width="100" height="100" relative="1" as="geometry">
            <mxPoint x="1060" y="-860" as="sourcePoint" />
            <mxPoint x="1160" y="-960" as="targetPoint" />
            <Array as="points">
              <mxPoint x="1380" y="-958" />
            </Array>
          </mxGeometry>
        </mxCell>
        <mxCell id="e5138ga-Zsw3_W7Uqy_G-14" value="" style="edgeStyle=orthogonalEdgeStyle;fontSize=12;html=1;endArrow=ERmany;" edge="1" parent="1" source="e5138ga-Zsw3_W7Uqy_G-1" target="e5138ga-Zsw3_W7Uqy_G-7">
          <mxGeometry width="100" height="100" relative="1" as="geometry">
            <mxPoint x="600" y="-910" as="sourcePoint" />
            <mxPoint x="700" y="-1010" as="targetPoint" />
          </mxGeometry>
        </mxCell>
        <mxCell id="e5138ga-Zsw3_W7Uqy_G-7" value="ฺBasketItem" style="swimlane;fontStyle=0;childLayout=stackLayout;horizontal=1;startSize=26;horizontalStack=0;resizeParent=1;resizeParentMax=0;resizeLast=0;collapsible=1;marginBottom=0;align=center;fontSize=14;fillColor=#FFCCE6;strokeColor=#b85450;" vertex="1" parent="1">
          <mxGeometry x="790" y="-810" width="200" height="78" as="geometry" />
        </mxCell>
        <mxCell id="e5138ga-Zsw3_W7Uqy_G-8" value="Id" style="text;strokeColor=none;fillColor=none;spacingLeft=4;spacingRight=4;overflow=hidden;rotatable=0;points=[[0,0.5],[1,0.5]];portConstraint=eastwest;fontSize=12;" vertex="1" parent="e5138ga-Zsw3_W7Uqy_G-7">
          <mxGeometry y="26" width="200" height="26" as="geometry" />
        </mxCell>
        <mxCell id="e5138ga-Zsw3_W7Uqy_G-9" value="Line" style="text;strokeColor=none;fillColor=none;spacingLeft=4;spacingRight=4;overflow=hidden;rotatable=0;points=[[0,0.5],[1,0.5]];portConstraint=eastwest;fontSize=12;" vertex="1" parent="e5138ga-Zsw3_W7Uqy_G-7">
          <mxGeometry y="52" width="200" height="26" as="geometry" />
        </mxCell>
        <mxCell id="e5138ga-Zsw3_W7Uqy_G-1" value="ฺBasket" style="swimlane;fontStyle=0;childLayout=stackLayout;horizontal=1;startSize=26;horizontalStack=0;resizeParent=1;resizeParentMax=0;resizeLast=0;collapsible=1;marginBottom=0;align=center;fontSize=14;fillColor=#FFCCE6;strokeColor=#b85450;" vertex="1" parent="1">
          <mxGeometry x="790" y="-1030" width="200" height="156" as="geometry" />
        </mxCell>
        <mxCell id="e5138ga-Zsw3_W7Uqy_G-2" value="Id" style="text;strokeColor=none;fillColor=none;spacingLeft=4;spacingRight=4;overflow=hidden;rotatable=0;points=[[0,0.5],[1,0.5]];portConstraint=eastwest;fontSize=12;" vertex="1" parent="e5138ga-Zsw3_W7Uqy_G-1">
          <mxGeometry y="26" width="200" height="26" as="geometry" />
        </mxCell>
        <mxCell id="e5138ga-Zsw3_W7Uqy_G-4" value="Number" style="text;strokeColor=none;fillColor=none;spacingLeft=4;spacingRight=4;overflow=hidden;rotatable=0;points=[[0,0.5],[1,0.5]];portConstraint=eastwest;fontSize=12;" vertex="1" parent="e5138ga-Zsw3_W7Uqy_G-1">
          <mxGeometry y="52" width="200" height="26" as="geometry" />
        </mxCell>
        <mxCell id="e5138ga-Zsw3_W7Uqy_G-5" value="Quantity" style="text;strokeColor=none;fillColor=none;spacingLeft=4;spacingRight=4;overflow=hidden;rotatable=0;points=[[0,0.5],[1,0.5]];portConstraint=eastwest;fontSize=12;" vertex="1" parent="e5138ga-Zsw3_W7Uqy_G-1">
          <mxGeometry y="78" width="200" height="26" as="geometry" />
        </mxCell>
        <mxCell id="e5138ga-Zsw3_W7Uqy_G-15" value="Price" style="text;strokeColor=none;fillColor=none;spacingLeft=4;spacingRight=4;overflow=hidden;rotatable=0;points=[[0,0.5],[1,0.5]];portConstraint=eastwest;fontSize=12;" vertex="1" parent="e5138ga-Zsw3_W7Uqy_G-1">
          <mxGeometry y="104" width="200" height="26" as="geometry" />
        </mxCell>
        <mxCell id="e5138ga-Zsw3_W7Uqy_G-16" value="Discount" style="text;strokeColor=none;fillColor=none;spacingLeft=4;spacingRight=4;overflow=hidden;rotatable=0;points=[[0,0.5],[1,0.5]];portConstraint=eastwest;fontSize=12;" vertex="1" parent="e5138ga-Zsw3_W7Uqy_G-1">
          <mxGeometry y="130" width="200" height="26" as="geometry" />
        </mxCell>
      </root>
    </mxGraphModel>
  </diagram>
</mxfile>
